/* XPM */
static char *cf1f074dc81a4841eaf5eee31cb695afF26nlli9nqyjIPLD[] = {
/* columns rows colors chars-per-pixel */
"35 48 131 2 ",
"   c None",
".  c #15130C",
"X  c #1A1912",
"o  c #211F16",
"O  c #242116",
"+  c #222219",
"@  c #29251B",
"#  c #2E281E",
"$  c #342E1F",
"%  c #302B20",
"&  c #373125",
"*  c #3A3324",
"=  c #37332B",
"-  c #3B362A",
";  c #3F3B2B",
":  c #373730",
">  c #433525",
",  c #423C2C",
"<  c #493E2C",
"1  c #443D31",
"2  c #4A3F32",
"3  c #47402F",
"4  c #4A412F",
"5  c #51442D",
"6  c #56482F",
"7  c #454134",
"8  c #4B4434",
"9  c #4F4836",
"0  c #45423A",
"q  c #4C4639",
"w  c #4E4A3B",
"e  c #524633",
"r  c #544936",
"t  c #5A4C35",
"y  c #51473A",
"u  c #524B3A",
"i  c #5A4E3B",
"p  c #55503F",
"a  c #5D533D",
"s  c #63563E",
"d  c #65583F",
"f  c #4F4C41",
"g  c #514E41",
"h  c #555145",
"j  c #5C5342",
"k  c #5E5A4C",
"l  c #615643",
"z  c #645A44",
"x  c #6B5E45",
"c  c #615748",
"v  c #655E4B",
"b  c #695E4B",
"n  c #635F51",
"m  c #6A6147",
"M  c #6C614A",
"N  c #766447",
"B  c #74654B",
"V  c #79664D",
"C  c #76684E",
"Z  c #78694F",
"A  c #7A684F",
"S  c #79684D",
"D  c #7E6E4D",
"F  c #7B6A4D",
"G  c #676152",
"H  c #6F6654",
"J  c #706452",
"K  c #726652",
"L  c #776552",
"P  c #746752",
"I  c #736755",
"U  c #726556",
"Y  c #766754",
"T  c #746850",
"R  c #746951",
"E  c #776952",
"W  c #756955",
"Q  c #776955",
"!  c #756B52",
"~  c #786A50",
"^  c #786A51",
"/  c #7B6B50",
"(  c #7A6B51",
")  c #7C6B52",
"_  c #7B6C50",
"`  c #7A6C51",
"'  c #7D6E51",
"]  c #7C6D52",
"[  c #7F6F52",
"{  c #7F6F53",
"}  c #7A6D56",
"|  c #7C6C54",
" . c #7C6E55",
".. c #7A6C53",
"X. c #7D6E59",
"o. c #7F7151",
"O. c #7E7152",
"+. c #7C7055",
"@. c #7F7056",
"#. c #7E7256",
"$. c #7D7155",
"%. c #7E7058",
"&. c #7F7359",
"*. c #7E735A",
"=. c #806E54",
"-. c #807253",
";. c #857553",
":. c #817354",
">. c #827255",
",. c #817057",
"<. c #857555",
"1. c #867755",
"2. c #847456",
"3. c #867656",
"4. c #847354",
"5. c #817558",
"6. c #827458",
"7. c #847758",
"8. c #847659",
"9. c #877658",
"0. c #84755B",
"q. c #827459",
"w. c #887759",
"e. c #86785B",
"r. c #87785F",
"t. c #85795C",
"y. c #8B795A",
"u. c #877760",
"i. c #857B60",
"p. c #8A7B63",
"a. c #8B7F60",
/* pixels */
"                                                                      ",
"                                                                      ",
"                                                                      ",
"                                                                      ",
"                                                                      ",
"                                                                      ",
"                                                                      ",
"                                                                      ",
"                                                                      ",
"                                                                      ",
"                                                                      ",
"                                                                      ",
"                                                                      ",
"                                                                      ",
"                                                                      ",
"                                                                      ",
"                                                                      ",
"                                                                      ",
"                                                                      ",
"                                                                      ",
"                          O # & & 3 t 7 = : 0 , u                     ",
"                @ + X . . X o o 1 J P c % o , b I j                   ",
"              % @ X X X X o @ @ q I B J * % i B B z                   ",
"              1 u u 8 8 4 u j c t B N z g b s N B l                   ",
"              1 i I E ~ ~ ~ M a t C N p u 9 i N x <                   ",
"              7 y B C B B B v 9 9 z a r p w 8 6 5 8                   ",
"              , e B N N N C M m u u t u G G r i a ,                   ",
"              * 4 N N N C S B z 4 m M 3 u 7 7 j j 8                   ",
"              , < B B J P M j , 4 p 8 9 q h j u q 1 -                 ",
"              1 < B B N B b l j 9 ; ; ; , 8 8 u q q j j a y 7         ",
"              1 e L N V V P J i > a I +.B B N d 5 z X.] V Q b u       ",
"              2 l B V V V B N t b i.p.8.X.) =.u. .i B | A F  .j       ",
"              , M N C C C C C ..6.9.9.q.O.O.O.2.i.! a #.D F D z 7     ",
"              8 J C S C F F O.:.4.9.9.9.1.;.2.2.&.&.s Z O.D $.M q     ",
"              a ..S C S :.:.4.4.4.-.3.9.w.w.9.2.$.&.a S =.#.*.v 7     ",
"            & 3 t x z m x d d B &.&.0.0.t.a.w.8.*.C 6 d x m j q 0     ",
"            9 a 6 5 8 8 2 8 u 8 e u j c v b j i 9 8 ; i r a b k f     ",
"            , l N b N C C  .q. .m a t 8 t i t i j z t P L A ) c 9     ",
"              * 8 j j l j j z m C ! $.q.q.#.$.+.! z 8 c z j y -       ",
"                  0 7 q g k w ; 8 u j m m z a u , , 9 q 7 0           ",
"                                    , 8 7 8 1 -                       ",
"                                                                      ",
"                                                                      ",
"                                                                      ",
"                                                                      ",
"                                                                      ",
"                                                                      ",
"                                                                      "
};
