/* XPM */
static char *result[] = {
/* columns rows colors chars-per-pixel */
"58 80 138 2 ",
"   c #0F0B02",
".  c #120F06",
"X  c #141007",
"o  c #12150E",
"O  c #1A160B",
"+  c #1D190F",
"@  c #151611",
"#  c #161812",
"$  c #1E1B14",
"%  c #1F1E19",
"&  c #251C0B",
"*  c #2D1C0A",
"=  c #221E12",
"-  c #2B1D10",
";  c #1C211B",
":  c #252114",
">  c #2C2416",
",  c #23221A",
"<  c #2B251A",
"1  c #2D291C",
"2  c #322A17",
"3  c #3B2911",
"4  c #30261A",
"5  c #342C1C",
"6  c #3A2F1F",
"7  c #36301D",
"8  c #3B311E",
"9  c #2E2B22",
"0  c #342E23",
"q  c #382F21",
"w  c #363223",
"e  c #3B3323",
"r  c #3F3A27",
"t  c #35322B",
"y  c #3C3629",
"u  c #3D392D",
"i  c #353630",
"p  c #3D3B33",
"a  c #3F3E39",
"s  c #42341C",
"d  c #45381E",
"f  c #423625",
"g  c #433A25",
"h  c #4A3C25",
"j  c #41372A",
"k  c #443C2B",
"l  c #4B3F2C",
"z  c #503F2D",
"x  c #453F32",
"c  c #4B3F31",
"v  c #3F402E",
"b  c #46422E",
"n  c #4C422C",
"m  c #51442C",
"M  c #454134",
"N  c #4B4434",
"B  c #4D4835",
"V  c #45423B",
"C  c #4B4539",
"Z  c #4E493A",
"A  c #524532",
"S  c #544933",
"D  c #5B4C33",
"F  c #504738",
"G  c #534C3C",
"H  c #5A4E39",
"J  c #5D5137",
"K  c #55513D",
"L  c #5C523D",
"P  c #63553D",
"I  c #655A3E",
"U  c #735E3F",
"Y  c #464540",
"T  c #4C4B43",
"R  c #534D41",
"E  c #555041",
"W  c #5C5543",
"Q  c #5C5845",
"!  c #5C574C",
"~  c #5E594B",
"^  c #615543",
"/  c #655A44",
"(  c #6B5C43",
")  c #625748",
"_  c #645C4B",
"`  c #6A5E4B",
"'  c #725E43",
"]  c #725E4B",
"[  c #6D6046",
"{  c #6C614C",
"}  c #736345",
"|  c #796444",
" . c #766845",
".. c #796947",
"X. c #74644B",
"o. c #79664C",
"O. c #75694E",
"+. c #7A6B4D",
"@. c #7E714F",
"#. c #666050",
"$. c #6C6352",
"%. c #6F6A55",
"&. c #676358",
"*. c #6B675C",
"=. c #6C685C",
"-. c #736652",
";. c #786350",
":. c #756B54",
">. c #7B6C53",
",. c #71675B",
"<. c #756C5A",
"1. c #7B6E5A",
"2. c #7D7155",
"3. c #7D735B",
"4. c #736E61",
"5. c #7A6F61",
"6. c #7C7463",
"7. c #7D7568",
"8. c #836F4C",
"9. c #82704F",
"0. c #806E52",
"q. c #837354",
"w. c #897655",
"e. c #857957",
"r. c #887957",
"t. c #83745A",
"y. c #88775B",
"u. c #86795C",
"i. c #8B7A5C",
"p. c #837661",
"a. c #847A63",
"s. c #8A7B63",
"d. c #867F6C",
"f. c #8B7C69",
"g. c #8C8163",
"h. c #8D806C",
"j. c #918371",
"k. c None",
/* pixels */
"k.k.k.k.k.k.k.k.k.k.k.k.k.k.k.k.k.k.k.k.k.k.k.k.k.k.k.k.k.k.k.k.k.k.k.k.k.k.k.k.k.k.k.k.k.k.k.k.k.k.k.k.k.k.k.k.k.k.",
"k.k.k.k.k.k.k.k.k.k.k.k.k.k.k.k.k.k.k.k.k.k.k.k.k.k.k.k.k.k.k.k.k.k.k.k.k.k.k.k.k.k.k.k.k.k.k.k.k.k.k.k.k.k.k.k.k.k.",
"k.k.k.k.k.k.k.k.k.k.k.k.k.k.k.k.k.k.k.k.k.k.k.k.k.k.k.k.k.k.k.k.k.k.k.k.k.k.k.k.k.k.k.k.k.k.k.k.k.k.k.k.k.k.k.k.k.k.",
"k.k.k.k.k.k.k.k.k.k.k.k.k.k.k.k.k.k.k.k.k.k.k.k.k.k.k.k.k.k.k.k.k.k.k.k.k.k.k.k.k.k.k.k.k.k.k.k.k.k.k.k.k.k.k.k.k.k.",
"k.k.k.k.k.k.k.k.k.k.k.k.k.k.k.k.k.k.k.k.k.k.k.k.k.k.k.k.k.k.k.k.k.k.k.k.k.k.k.k.k.k.k.k.k.k.k.k.k.k.k.k.k.k.k.k.k.k.",
"k.k.k.k.k.k.k.k.k.k.k.k.k.k.k.k.k.k.k.k.k.k.k.k.k.k.k.k.k.k.k.k.k.k.k.k.k.k.k.k.k.k.k.k.k.k.k.k.k.k.k.k.k.k.k.k.k.k.",
"k.k.k.k.k.k.k.k.k.k.k.k.k.k.k.k.k.k.k.k.k.k.k.k.k.k.k.k.k.k.k.k.k.k.k.k.k.k.k.k.k.k.k.k.k.k.k.k.k.k.k.k.k.k.k.k.k.k.",
"k.k.k.k.k.k.k.k.k.k.k.k.k.k.k.k.k.k.k.k.k.k.k.k.k.k.k.k.k.k.k.k.k.k.k.k.k.k.k.k.k.k.k.k.k.k.k.k.k.k.k.k.k.k.k.k.k.k.",
"k.k.k.k.k.k.k.k.k.k.k.k.k.k.k.k.k.k.k.k.k.k.k.k.k.k.k.k.k.k.k.k.k.k.k.k.k.k.k.k.k.k.k.k.k.k.k.k.k.k.k.k.k.k.k.k.k.k.",
"k.k.k.k.k.k.k.k.k.k.k.k.k.k.k.k.k.k.k.k.k.k.k.k.k.k.k.k.k.k.k.k.k.k.k.k.k.k.k.k.k.k.k.k.k.k.k.k.k.k.k.k.k.k.k.k.k.k.",
"k.k.k.k.k.k.k.k.k.k.k.k.k.k.k.k.k.k.k.k.k.k.k.k.k.k.k.k.k.k.k.k.k.k.k.k.k.k.k.k.k.k.k.k.k.k.k.k.k.k.k.k.k.k.k.k.k.k.",
"k.k.k.k.k.k.k.k.k.k.k.k.k.k.k.k.k.k.k.k.k.k.k.k.k.k.k.k.k.k.k.k.k.k.k.k.k.k.k.k.k.k.k.k.k.k.k.k.k.k.k.k.k.k.k.k.k.k.",
"k.k.k.k.k.k.k.k.k.k.k.k.k.k.k.k.k.k.k.k.k.k.k.k.k.k.k.k.k.k.k.k.k.k.k.k.k.k.k.k.k.k.k.k.k.k.k.k.k.k.k.k.k.k.k.k.k.k.",
"k.k.k.k.k.k.k.k.k.k.k.k.k.k.k.k.k.k.k.k.k.k.k.k.k.k.k.k.k.k.k.k.k.k.k.k.k.k.k.k.k.k.k.k.k.k.k.k.k.k.k.k.k.k.k.k.k.k.",
"k.k.k.k.k.k.k.k.k.k.k.k.k.k.k.k.k.k.k.k.k.k.k.k.k.k.k.k.k.k.k.k.k.k.k.k.k.k.k.k.k.k.k.k.k.k.k.k.k.k.k.k.k.k.k.k.k.k.",
"k.k.k.k.k.k.k.k.k.k.k.k.k.k.k.k.k.k.k.k.k.k.k.k.k.k.k.k.k.k.k.k.k.k.k.k.k.k.k.k.k.k.k.k.k.k.k.k.k.k.k.k.k.k.k.k.k.k.",
"k.k.k.k.k.k.k.k.k.k.k.k.k.k.k.k.k.k.k.k.k.k.k.k.k.k.k.k.k.k.k.k.k.k.k.k.k.k.k.k.k.k.k.k.k.k.k.k.k.k.k.k.k.k.k.k.k.k.",
"k.k.k.k.k.k.k.k.k.k.k.k.k.k.k.k.k.k.k.k.k.k.k.k.k.k.k.k.k.k.k.k.k.k.k.k.k.k.k.k.k.k.k.k.k.k.k.k.k.k.k.k.k.k.k.k.k.k.",
"k.k.k.k.k.k.k.k.k.k.k.k.k.k.k.k.k.k.k.k.k.k.k.k.k.k.k.k.k.k.k.k.k.k.k.k.k.k.k.k.k.k.k.k.k.k.k.k.k.k.k.k.k.k.k.k.k.k.",
"k.k.k.k.k.k.k.k.k.k.k.k.k.k.k.k.k.k.k.k.k.k.k.k.k.k.k.k.k.k.k.k.k.k.k.k.k.k.k.k.k.k.k.k.k.k.k.k.k.k.k.k.k.k.k.k.k.k.",
"k.k.k.k.k.k.k.k.k.k.k.k.k.k.k.k.k.k.k.k.k.k.k.k.k.k.k.k.k.k.k.k.k.k.k.k.k.k.k.k.k.k.k.k.k.k.k.k.k.k.k.k.k.k.k.k.k.k.",
"k.k.k.k.k.k.k.k.k.k.k.k.k.k.k.k.k.k.k.k.k.k.k.k.k.k.k.k.k.k.k.k.k.k.k.k.k.k.k.k.k.k.k.k.k.k.k.k.k.k.k.k.k.k.k.k.k.k.",
"k.k.k.k.k.k.k.k.k.k.k.k.k.k.k.k.k.k.k.k.k.k.k.k.k.k.k.k.k.k.k.k.k.k.k.k.k.k.k.k.k.k.k.k.k.k.k.k.k.k.k.k.k.k.k.k.k.k.",
"k.k.k.k.k.k.k.k.k.k.k.k.k.k.k.k.k.k.k.k.k.k.k.k.k.k.k.k.k.k.k.k.k.k.k.k.k.k.k.k.k.k.k.k.k.k.k.k.k.k.k.k.k.k.k.k.k.k.",
"k.k.k.k.k.k.k.k.k.k.k.k.k.k.k.k.k.k.k.k.k.k.k.k.k.k.k.k.k.k.k.k.k.k.k.k.k.k.k.k.k.k.k.k.k.k.k.k.k.k.k.k.k.k.k.k.k.k.",
"k.k.k.k.k.k.k.k.k.k.k.k.k.k.k.k.k.k.k.k.k.k.k.k.k.k.k.k.k.k.k.k.k.k.k.k.k.k.k.k.k.k.k.k.k.k.k.k.k.k.k.k.k.k.k.k.k.k.",
"k.k.k.k.k.k.k.k.k.k.k.k.k.k.k.k.k.k.k.k.k.k.k.k.k.k.k.k.k.k.k.k.k.k.k.k.k.k.k.k.k.k.k.k.k.k.k.k.k.k.k.k.k.k.k.k.k.k.",
"k.k.k.k.k.k.k.k.k.k.k.k.k.k.k.k.k.k.k.k.k.k.k.k.k.k.k.k.k.k.k.k.k.k.k.k.k.k.k.k.k.k.k.k.k.k.k.k.k.k.k.k.k.k.k.k.k.k.",
"k.k.k.k.k.k.k.k.k.k.k.k.k.k.k.k.k.k.k.k.k.k.k.k.k.k.k.k.k.k.k.k.k.k.k.k.k.k.k.k.k.k.k.k.k.k.k.k.k.k.k.k.k.k.k.k.k.k.",
"k.k.k.k.k.k.k.k.k.k.k.k.k.k.k.k.k.k.k.k.k.k.k.k.k.k.k.k.k.k.k.k.k.k.k.k.k.k.k.k.k.k.k.k.k.k.k.k.k.k.k.k.k.k.k.k.k.k.",
"k.k.k.k.k.k.k.k.k.k.k.k.k.k.k.k.k.k.k.k.k.k.k.k.k.k.k.k.k.k.k.k.k.k.k.k.k.k.k.k.k.k.k.k.k.k.k.k.k.k.k.k.k.k.k.k.k.k.",
"k.k.k.k.k.k.k.k.k.k.k.k.k.k.k.k.k.k.k.k.k.k.k.k.k.k.k.k.k.k.k.k.k.k.k.k.k.k.k.k.k.k.k.k.k.k.k.k.k.k.k.k.k.k.k.k.k.k.",
"k.k.k.k.k.k.k.k.k.k.k.k.k.k.k.k.k.k.k.k.k.k.k.k.k.k.k.k.k.k.k.k.k.k.k.k.k.k.k.k.k.k.k.k.k.k.k.k.k.k.k.k.k.k.k.k.k.k.",
"k.k.k.k.k.k.k.k.k.k.k.k.k.k.k.k.k.k.k.k.k.k.k.k.k.k.k.k.k.k.k.k.k.k.k.k.k.k.k.k.k k.k.k.k.k.k.k.k.k.k.k.k.k.k.k.k.k.",
"k.k.k.k.k.k.k.k.k.k.k.k.k.k.k.k.k.k.k.$ = < < 9 0 p p 0 w k z S x i x i T ~ 1 j F C M k.k.k.k.k.k.k.k.k.k.k.k.k.k.k.",
"k.k.k.k.k.k.k.k.k.k.k.k.k.k.9 1 , , o X     X % O $ O y 1.3.1.0.R = = @ : < ) 3.:.6.C k.k.k.k.k.k.k.k.k.k.k.k.k.k.k.",
"k.k.k.k.k.k.k.k.k.k.k.k.k., < = @ o @ @ @ % % % < = = ! 5.-.%.:.7.f = < : _ :.X.[ <.E k.k.k.k.k.k.k.k.k.k.k.k.k.k.k.",
"k.k.k.k.k.k.k.k.k.k.k.k.9 = = = ; # # # $ = = = 9 $ $ R <.` ` >.6.w : : 1 { X.( ] >.H k.k.k.k.k.k.k.k.k.k.k.k.k.k.k.",
"k.k.k.k.k.k.k.k.k.k.k.k.p x e = 1 = $ : = = < q e N e S t.X.X.+.$.6 Q $.f / X.| o.1.F k.k.k.k.k.k.k.k.k.k.k.k.k.k.k.",
"k.k.k.k.k.k.k.k.k.k.k.k.x y p.$.{ ^ W K ^ / ` -.1.j.l A >.' | | W e 7.6.n / X.' X.>.G k.k.k.k.k.k.k.k.k.k.k.k.k.k.k.",
"k.k.k.k.k.k.k.k.k.k.k.k.C e $.,.:.+.2.:.q.O.>.>.` >.m D >.}  .+.W b G #.k [ >.} X.:.6 k.k.k.k.k.k.k.k.k.k.k.k.k.k.k.",
"k.k.k.k.k.k.k.k.k.k.k.k.G q $.-.O.O.X.>.X.>.-.` K b k L 3.X.O.[ g k #.5 2 H ( X.( d > k.k.k.k.k.k.k.k.k.k.k.k.k.k.k.",
"k.k.k.k.k.k.k.k.k.k.k.k.R 5 ` -.X.O.O.+.[ O.{ L 6.b g r Q { { n B Z G E r b h m s L x k.k.k.k.k.k.k.k.k.k.k.k.k.k.k.",
"k.k.k.k.k.k.k.k.k.k.k.k.G > / ] X.O. .} X.O.O./ B ` K B W e 2 { K Q 7.4.N :.S 8 g K N k.k.k.k.k.k.k.k.k.k.k.k.k.k.k.",
"k.k.k.k.k.k.k.k.k.k.k.k.C & _ X.U | | | | O.+.+.:.3.C W / N L S j _ 4.4.x u m -.-.K 9 k.k.k.k.k.k.k.k.k.k.k.k.k.k.k.",
"k.k.k.k.k.k.k.k.k.k.k.k.N & / X.U | | | ....+.>.3.t.H s m X.y.` 2 M W C w Z %.<.-.G t k.k.k.k.k.k.k.k.k.k.k.k.k.k.k.",
"k.k.k.k.k.k.k.k.k.k.k.k.C & / ;.X.X.O.] +.O.;./ L Q e N 6.3.{ n k k W y x b r k 8 ` C k.k.k.k.k.k.k.k.k.k.k.k.k.k.k.",
"k.k.k.k.k.k.k.k.k.k.k.k.F & ^ ;.X.:.X.-.{ 3.{ G W 2 1 u G M 7 Q ` f R =.M <.) g G N y v k.k.k.k.k.k.k.k.k.k.k.k.k.k.",
"k.k.k.k.k.k.k.k.k.k.k.k.R : L :.}  .[ O.O.:.` K 3.b b Q E v C w t u R ~ V ) R *.! 0 < t 1 0 0 f C x k.k.k.k.k.k.k.k.",
"k.k.k.k.k.k.k.k.k.k.k.k.R - L >.o.| O.[ O.{ ` ^ n #.Q r q j w w b e 7 e e f k A y G W $.<.:.>./ G j N k.k.k.k.k.k.k.",
"k.k.k.k.k.k.k.k.k.k.k.k.R > ` >.o.] ;.] >.;.1.-.-.5.N * j c _ 5.t.>.O.O.o.P D d h L u.3.t.;.>...5.p.W G k.k.k.k.k.k.",
"k.k.k.k.k.k.k.k.k.k.k.k.C 0 X.:.] o.o.| o.O.;.] ] z * A 1.f.f.p.t.t.>.>.0.y.p.t.P s H 3.>.>.X.o.X.1.p._ N k.k.k.k.k.",
"k.k.k.k.k.k.k.k.k.k.k.k.N k ;.X.} o.o.+.} X.] X.X.h D y.y.a.y.a.t.t.>.>.X.t.t.s.f._ f X.1.>.>.>.8.] >.a.j N k.k.k.k.",
"k.k.k.k.k.k.k.k.k.k.k.k.j G -.X.} +.+.X.+.X.X.>.X.] t.0.t.s.s.y.q.>.>.>.2.2.t.s.s.h.L A 3.>.0.;.| 9.+.2.S C k.k.k.k.",
"k.k.k.k.k.k.k.k.k.k.k.y 0 { :.X.O.+.O.[ +.X.X.O.X.t.>.t.q.3.t.y.e.9.+.@.e.@.2.2.3.g.3.d :.2.>.+.8...+.t.G N k.k.k.k.",
"k.k.k.k.k.k.k.k.k.k.k.y w :.X.X.O.O.O.X.>.>.+.>.q.>.e.t.i.e.e.e.e.r.e.q.e.r.@.q.u.2.u.H I t.+.t...8.>.a.K N k.k.k.k.",
"k.k.k.k.k.k.k.k.k.k.k.x C 3.[ X.+.>.] +.>.0.>.0.w.t.q.q.w.y.y.w.q.e.r.w.w.w.t.0.q.3.a.( A 0.0.0.2.@.3.3.Q C k.k.k.k.",
"k.k.k.k.k.k.k.k.k.k.k.u / >.+.>.+.+.} +.0.q.8.q.8.8.w.t.8.8.w.w.y.r.i.i.w.w.q.t.u.2.s.P l y.;.0.@.3.3.h.~ p k.k.k.k.",
"k.k.k.k.k.k.k.k.k.k.k.1 _ X.2.>.>.X.+.>.e.r.r.y.y.q.q.q.0.q.0.t.e.q.u.g.r.e.q.y.2.2.t.J d i.q.>.3.g.3.%.C p k.k.k.k.",
"k.k.k.k.k.k.k.k.k.k.r 5 2 s z P _ ^ ` ` ) L S n H X.a.a.t.t.p.3.t.3.u.g.g.u.t.t.3.3.<.H h P / I L m k r u T k.k.k.k.",
"k.k.k.k.k.k.k.k.k.k.B F / n s 3 2 1 q 6 2 > 5 8 5 1 q G _ $.,.5.6.6.7.p.3.:.%.{ W K k 5 f x e f d m Q { Q R k.k.k.k.",
"k.k.k.k.k.k.k.k.k.k.B N <.[ ( } ) ^ ) ) ) #.<.6.<.` F q 1 5 q q y j l c e e 6 5 0 q j e G 6.-.-.+.2.:.6.E E k.k.k.k.",
"k.k.k.k.k.k.k.k.k.k.M b :.( X.} X.O.X.>.2.2.2.3.q.2.t.1.X.L A l j k c S A S S H ^ ` 1.A S 1.;.X.o.o.O.a.E E k.k.k.k.",
"k.k.k.k.k.k.k.k.k.k.k.7 l ( X.} U +...+... .+.9.e.+.+.+.+.+.>.>.t.0.t.t.t.0.q.q.>.t.>.d ] t.o.t.0.0.X.W > k k.k.k.k.",
"k.k.k.k.k.k.k.k.k.k.k.k.1 % p T C Z R R C M M b G ~ <.<.%.:.3.2.e.e.q.2.@.2.:.:.3.%.Q 7 k W E Z V p t t 0 k.k.k.k.k.",
"k.k.k.k.k.k.k.k.k.k.k.k.k.t V Y V M N V R ! &.&.u 5 e N K [ -.3.s.u.3.2.+.%.{ / B e e K R M p V Y Y p k.k.k.k.k.k.k.",
"k.k.k.k.k.k.k.k.k.k.k.k.k.k.k.k.k.k.k.k.k.k.k.k.k.k.M N w w 7 r l k k k v r 5 1 1 y r k.k.k.k.k.k.k.k.k.k.k.k.k.k.k.",
"k.k.k.k.k.k.k.k.k.k.k.k.k.k.k.k.k.k.k.k.k.k.k.k.k.k.k.k.k.k.M N C N G R N M M r k.k.k.k.k.k.k.k.k.k.k.k.k.k.k.k.k.k.",
"k.k.k.k.k.k.k.k.k.k.k.k.k.k.k.k.k.k.k.k.k.k.k.k.k.k.k.k.k.k.k.k.k.k.k.k.k.k.k.k.k.k.k.k.k.k.k.k.k.k.k.k.k.k.k.k.k.k.",
"k.k.k.k.k.k.k.k.k.k.k.k.k.k.k.k.k.k.k.k.k.k.k.k.k.k.k.k.k.k.k.k.k.k.k.k.k.k.k.k.k.k.k.k.k.k.k.k.k.k.k.k.k.k.k.k.k.k.",
"k.k.k.k.k.k.k.k.k.k.k.k.k.k.k.k.k.k.k.k.k.k.k.k.k.k.k.k.k.k.k.k.k.k.k.k.k.k.k.k.k.k.k.k.k.k.k.k.k.k.k.k.k.k.k.k.k.k.",
"k.k.k.k.k.k.k.k.k.k.k.k.k.k.k.k.k.k.k.k.k.k.k.k.k.k.k.k.k.k.k.k.k.k.k.k.k.k.k.k.k.k.k.k.k.k.k.k.k.k.k.k.k.k.k.k.k.k.",
"k.k.k.k.k.k.k.k.k.k.k.k.k.k.k.k.k.k.k.k.k.k.k.k.k.k.k.k.k.k.k.k.k.k.k.k.k.k.k.k.k.k.k.k.k.k.k.k.k.k.k.k.k.k.k.k.k.k.",
"k.k.k.k.k.k.k.k.k.k.k.k.k.k.k.k.k.k.k.k.k.k.k.k.k.k.k.k.k.k.k.k.k.k.k.k.k.k.k.k.k.k.k.k.k.k.k.k.k.k.k.k.k.k.k.k.k.k.",
"k.k.k.k.k.k.k.k.k.k.k.k.k.k.k.k.k.k.k.k.k.k.k.k.k.k.k.k.k.k.k.k.k.k.k.k.k.k.k.k.k.k.k.k.k.k.k.k.k.k.k.k.k.k.k.k.k.k.",
"k.k.k.k.k.k.k.k.k.k.k.k.k.k.k.k.k.k.k.k.k.k.k.k.k.k.k.k.k.k.k.k.k.k.k.k.k.k.k.k.k.k.k.k.k.k.k.k.k.k.k.k.k.k.k.k.k.k.",
"k.k.k.k.k.k.k.k.k.k.k.k.k.k.k.k.k.k.k.k.k.k.k.k.k.k.k.k.k.k.k.k.k.k.k.k.k.k.k.k.k.k.k.k.k.k.k.k.k.k.k.k.k.k.k.k.k.k.",
"k.k.k.k.k.k.k.k.k.k.k.k.k.k.k.k.k.k.k.k.k.k.k.k.k.k.k.k.k.k.k.k.k.k.k.k.k.k.k.k.k.k.k.k.k.k.k.k.k.k.k.k.k.k.k.k.k.k.",
"k.k.k.k.k.k.k.k.k.k.k.k.k.k.k.k.k.k.k.k.k.k.k.k.k.k.k.k.k.k.k.k.k.k.k.k.k.k.k.k.k.k.k.k.k.k.k.k.k.k.k.k.k.k.k.k.k.k.",
"k.k.k.k.k.k.k.k.k.k.k.k.k.k.k.k.k.k.k.k.k.k.k.k.k.k.k.k.k.k.k.k.k.k.k.k.k.k.k.k.k.k.k.k.k.k.k.k.k.k.k.k.k.k.k.k.k.k."
};
