/* XPM */
static char *e6a8b8a567774b1a93bf3b47c4c71210zRorm6RI78aHH6CN[] = {
/* columns rows colors chars-per-pixel */
"34 48 120 2 ",
"   c None",
".  c #161110",
"X  c #1E1817",
"o  c #1C151A",
"O  c #231E1C",
"+  c #2E262A",
"@  c #2F2B2A",
"#  c #372F2D",
"$  c #34352A",
"%  c #372F30",
"&  c #3B3333",
"*  c #3B3934",
"=  c #3B3439",
"-  c #43363E",
";  c #423C3B",
":  c #493F3E",
">  c #44413C",
",  c #3D3440",
"<  c #433B42",
"1  c #4B3E49",
"2  c #474047",
"3  c #4B4343",
"4  c #4C4B43",
"5  c #4D464C",
"6  c #524F47",
"7  c #52474D",
"8  c #524C4D",
"9  c #594B4F",
"0  c #55524D",
"q  c #524652",
"w  c #544B53",
"e  c #594D56",
"r  c #5B4E5A",
"t  c #565252",
"y  c #5B5353",
"u  c #5D5954",
"i  c #5C545B",
"p  c #5D585A",
"a  c #605653",
"s  c #615C54",
"d  c #62555D",
"f  c #635C5D",
"g  c #5F5560",
"h  c #625462",
"j  c #645B63",
"k  c #695F65",
"l  c #675C69",
"z  c #6A5D6B",
"x  c #6C5D71",
"c  c #705F74",
"v  c #666166",
"b  c #6A6264",
"n  c #6B626B",
"m  c #716D67",
"M  c #70656D",
"N  c #746F6D",
"B  c #6D6273",
"V  c #726573",
"C  c #746A75",
"Z  c #796E76",
"A  c #756A7A",
"S  c #7B6E7B",
"D  c #7C737C",
"F  c #7D787E",
"G  c #80747E",
"H  c #7B6C83",
"J  c #7D7681",
"K  c #826F87",
"L  c #837485",
"P  c #847982",
"I  c #83758B",
"U  c #85798B",
"Y  c #8A7B8D",
"T  c #867693",
"R  c #867993",
"E  c #8F7A95",
"W  c #8A7E95",
"Q  c #8E7D94",
"!  c #8C7E95",
"~  c #8E7E94",
"^  c #8F7C96",
"/  c #8C7B93",
"(  c #89799A",
")  c #8E7C98",
"_  c #8F7E9B",
"`  c #8B7D99",
"'  c #907F90",
"]  c #917997",
"[  c #907D94",
"{  c #907D96",
"}  c #917F96",
"|  c #927F96",
" . c #907B9A",
".. c #937F98",
"X. c #937E99",
"o. c #907D9B",
"O. c #917F9A",
"+. c #917E9B",
"@. c #937E9B",
"#. c #907D9D",
"$. c #957E9D",
"%. c #89818D",
"&. c #8C8090",
"*. c #8D8092",
"=. c #8F8094",
"-. c #8F8198",
";. c #8F819A",
":. c #918093",
">. c #908095",
",. c #938096",
"<. c #918296",
"1. c #988896",
"2. c #938198",
"3. c #938299",
"4. c #958299",
"5. c #94819E",
"6. c #97809E",
"7. c #96869D",
"8. c #98869B",
"9. c #9A889F",
/* pixels */
"                                                                    ",
"                                                                    ",
"                                                                    ",
"                                                                    ",
"                                                                    ",
"                                                                    ",
"                                                                    ",
"                                                                    ",
"                                                                    ",
"                                                                    ",
"                                                                    ",
"                                      3 : ; # O X                   ",
"                                - 3 9 h M Z S z q + .               ",
"                          * ; 5 n L [ $.6.9.8...~ S < O             ",
"                        ; i S U Q o. .,.%.' Y E +._ I < o           ",
"                    = w A [ ] ..,.Y C p 0 9 7 h c I 7.A =           ",
"                  & d I } $.6.I l 5 ;             r Z b b 0         ",
"                & z [ [ } Y z q                     ; 3 N 0         ",
"              % b [ ] E V w                         # = t 3         ",
"            @ g ..} Y z 3                           3 d g e         ",
"            q Y X.E l <                             d U L S         ",
"          ; Z ,.} z <                             q S ~ ~ Z         ",
"          e %.,.S -                               h /  .E j         ",
"        , V ~ U e                               B Y } 4.P 8         ",
"        w I ( B &                             C I x G 1.M           ",
"        g T T e                         6 q B / V h d G e           ",
"        h T I 1                   > 0 u m g R 3.D d M b             ",
"        z T K e               4 0 t p M b t n %.[ [ V 5             ",
"        l K H d           f 0 s u v C F j f 0 G ,.K q               ",
"          1 i 7 d z A A A L Z a n W v 6 u t e D G i                 ",
"          < C L I R I x H ( I d j J M 8 p v n y 3                   ",
"            j Y R ( l y i T ` v j A %.D F p m *                     ",
"              A ( ( z y e T ` Z f n F n t t 4 $                     ",
"              j V I Y Z L ` ` P p 0 p p t ;                         ",
"                  5 7 u p g i q ; 4 4 > *                           ",
"                                                                    ",
"                                                                    ",
"                                                                    ",
"                                                                    ",
"                                                                    ",
"                                                                    ",
"                                                                    ",
"                                                                    ",
"                                                                    ",
"                                                                    ",
"                                                                    ",
"                                                                    ",
"                                                                    "
};
