/* XPM */
static char *f1faae8e630341bedddcac497850af97Tq2D7Y1S1e00OOeJ[] = {
/* columns rows colors chars-per-pixel */
"48 63 160 2 ",
"   c None",
".  c #503524",
"X  c #6B4733",
"o  c #654D3B",
"O  c #6B4D3A",
"+  c #744E38",
"@  c #705F37",
"#  c #71533E",
"$  c #7C523B",
"%  c #786539",
"&  c #745541",
"*  c #7B5742",
"=  c #7B5945",
"-  c #7E5D49",
";  c #83543D",
":  c #896F3C",
">  c #855740",
",  c #855A43",
"<  c #8A5C45",
"1  c #825E49",
"2  c #8B5F48",
"3  c #905F46",
"4  c #826345",
"5  c #8D6047",
"6  c #84624B",
"7  c #8C634B",
"8  c #876B4C",
"9  c #8A6C4E",
"0  c #936147",
"q  c #93644B",
"w  c #99664C",
"e  c #95684E",
"r  c #9C6A4E",
"t  c #8E714C",
"y  c #967D45",
"u  c #96754E",
"i  c #856652",
"p  c #8C6650",
"a  c #8E6A52",
"s  c #8F6F5A",
"d  c #926750",
"f  c #946B54",
"g  c #9B6D53",
"h  c #946F58",
"j  c #986F58",
"k  c #977651",
"l  c #9D7156",
"z  c #997A51",
"x  c #94715B",
"c  c #9C735B",
"v  c #9E7959",
"b  c #A0674C",
"n  c #A26A4E",
"m  c #A46E52",
"M  c #A86F53",
"N  c #A57155",
"B  c #A97256",
"V  c #A4755A",
"C  c #AB765A",
"Z  c #A6795E",
"A  c #AD795D",
"S  c #B27B5E",
"D  c #987660",
"F  c #9E7B64",
"G  c #A47B62",
"H  c #AC7D62",
"J  c #B37E61",
"K  c #9C804C",
"L  c #A38A51",
"P  c #A08159",
"I  c #AC9153",
"U  c #B29458",
"Y  c #A78167",
"T  c #AD8166",
"R  c #A78169",
"E  c #AD8369",
"W  c #B38165",
"Q  c #B98365",
"!  c #B18268",
"~  c #B78368",
"^  c #B08468",
"/  c #B38569",
"(  c #B48669",
")  c #B4876B",
"_  c #B3856A",
"`  c #B98468",
"'  c #BB8768",
"]  c #BB876B",
"[  c #BA876B",
"{  c #BC8769",
"}  c #BA866A",
"|  c #B7886D",
" . c #B78C6F",
".. c #B5886D",
"X. c #BD896B",
"o. c #BD8A6B",
"O. c #B9886C",
"+. c #BB896D",
"@. c #BA886C",
"#. c #B8896E",
"$. c #B88A6E",
"%. c #BC896D",
"&. c #BF8B6D",
"*. c #BC8A6E",
"=. c #BD8B6F",
"-. c #BE8B6E",
";. c #BB8C6F",
":. c #BD8C6F",
">. c #BF8D6F",
",. c #BC8A6E",
"<. c #B38B71",
"1. c #B68C70",
"2. c #B58C72",
"3. c #B88C70",
"4. c #BB8D70",
"5. c #BB8E71",
"6. c #BA8F72",
"7. c #BD8D71",
"8. c #BE8C70",
"9. c #BC8F71",
"0. c #BF8E71",
"q. c #BF8F73",
"w. c #BD8D71",
"e. c #BF9073",
"r. c #BE9074",
"t. c #BE9175",
"y. c #BD9378",
"u. c #C18C6E",
"i. c #C18D70",
"p. c #C18F70",
"a. c #C18E72",
"s. c #C28F73",
"d. c #C18E72",
"f. c #C39071",
"g. c #C09175",
"h. c #C39074",
"j. c #C09376",
"k. c #C19476",
"l. c #C29275",
"z. c #C89476",
"x. c #C49679",
"c. c #C49579",
"v. c #C9967A",
"b. c #C4987A",
"n. c #C6987C",
"m. c #C79B7D",
"M. c #C6997C",
"N. c #C99A7D",
"B. c #C4A661",
"V. c #DBBA69",
"C. c #ECC86D",
"Z. c #F5D174",
"A. c #C59D80",
"S. c #C69F82",
"D. c #CA9C80",
"F. c #CA9E80",
"G. c #CA9F80",
"H. c #CB9E81",
"J. c #CAA385",
"K. c #CEA184",
/* pixels */
"                                                                                                ",
"                          i 6 = 1 = = 6 1 1 6 7 7 1 , , = ; , 4 5 5 4 $ $ $ $ $ $ .             ",
"          o p H E ;.3.6.r.6./ T ! W J W J J J W Q S A B C B C A A A A N n N B B < +             ",
"          h x c ! x.N.J.m.b.r.;.+.+.+.[ J J W ~ W J A B C A A S C S Q B B S S q 4 l             ",
"          x ) h j 2.S.J.S.*.H H T T ! H H H H J Z Z l r r l N l r l r q w g , * A N             ",
"          x | T 1 a G R G c F c c F c f j j j g c N l g l r l r r r w r e q X w A N             ",
"          x ;.) h H g.+.*.#.#.%.%.%.` J Q ] ] { &.>.&.' ' Q Q Q S S Q W S B $ r C N             ",
"          p | ;.D H c.7.=.7.q.7.w.i.%.~ %.s.s.s.u.u.p.&.>.&.&.' Q S Q J S S $ g A N             ",
"          p / t.G E t.w.#.G G G c c V j f V V f q e g e g l c V d q q C J J > m S V             ",
"          p ..q.F E n.D.2.f H H H H J ! ! W H C V N m N A H H A B r $ M S J 2 J W N             ",
"          x 6.x.G <.D.K.2.c =.D.v.g.i.s.v.l.] Q W S S S J Q ' W J C ; M S S 3 J J N             ",
"          x w.x.G 2.n.K.<.c %.c.H.H.l.8.i.s.8.[ >.] Q W ` ` Q Q 7.[ > M S S 2 J J N             ",
"          c t.n.G <.c.t.H D #.q.K.H.i.8.c.c.c.s.z.g.c.D.n.%.i.v.v.i.> M S J q J S N             ",
"          F t.x.G E q.t.G V J *.v.n.[ 8.x.x.g.c.c.c.c.c.l.i.v.D.N.8.< B S J d J S N             ",
"          F y.t.F _ c.c.E c [ [ ~ q.g.c.n.x.c.c.c.c.v.z.s.i.D.H.D.i.3 C C C 7 C A g             ",
"          F r.6.D 3.D.c.H j _ +.3.s.n.c.n.n.c.t.c.D.D.v.z.i.v.D.D.i.q S C B < B A N             ",
"          F 6.| x y.S.x.G j ) q.x.n.D.n.x.x.g.g.x.n.N.x.z.s.n.v.N.%.7 B B m > B J V             ",
"          F t.t.F y.D.x.H g W q.n.n.H.n.v.x.k.x.x.b.x.z.z.g.n.v.v.g.7 M n m 2 S A N             ",
"          F y.y.G t.x.q.G f J w.x.N.D.b.x.x.k.k.g.x.x.x.z.s.v.N.v.f.0 n n M 2 C B g             ",
"          F x.x.G y.c.6.G g ) k.c.A.N.x.b.n.N.x.c.x.x.x.z.s.v.N.v.w.d B B C 2 m M V             ",
"          D y.n.R <.y.3.Z f | k.y.n.K.n.n.n.x.c.c.c.D.c.g.s.c.v.c.>.q J S J < M C V             ",
"          D t.n.R H ..3.c c +.y.c.n.D.N.n.n.b.g.s.c.v.h.g.s.c.c.v.g.7 S Q W > B J V             ",
"          x y.x.G E ! ..Z c | t.t.y.A.x.b.b.N.k.g.n.D.h.h.g.v.c.z.i.e J S W 2 M J V             ",
"          x 6.y.F H W W G c +.t.q.x.D.x.x.b.c.k.c.c.D.D.h.s.h.v.x.i.q S J J > B S C             ",
"          x 6.<.x T W T c c | t.8.r.D.D.A.8.a.A.q.q.x.z.s.q.c.v.v.+.q S J J < B S N             ",
"          s _ H h Y v f c c ) t.r.8.D.8.J A.a.s.q.q.g.s.8.8.g.z.l.8.q S J C 2 S B w             ",
"          a H G a P V.B.9 c | r.2.A.D.A.D.A.A.J 6.t.x.w.s.%.g.h.l.] q S A m , B m w             ",
"          i H H a U Z.Z.t x +.w.J 8.h.A.a.A.D.J q.t.c.s.%.%.g.h.l.` e C m w ; m n w             ",
"          - H E f K C.V.p c J 2.A.J D.D.8.A.a.A.%.a.A.h.s.[ a.a.8.! q M n w < n N 0             ",
"          - H _ x x z k j F A.r.r.A.D.D.A.D.A.J 8.8.a.h.7.} %.a.8.! 2 b n r ; B B 0             ",
"          - H H x a k N a F D.A.a.8.A.A.D.A.A.a.#.%.a.h.a.a.%.a.Q A > b n r > m N 0             ",
"          - H E h e y P p j J J J H J H J J A H J J J %.%.J J J S m > n B N , m M 0             ",
"          - G ! h t @ L 9 c Q H V C H H J H C B H C J C S C C S J m > M C g < M M d             ",
"          = Z T h 9 % I 9 f W W H J J J G B G B B B C C C C M J J G > M M w > M M w             ",
"          = Z T h 4 : K 6 - a x x j c h f j f j f d d 7 d 7 3 d f 2 2 M C w 3 C C w             ",
"          = V H 7 c c G T W 6.t.q.g.t.s.s.z.h.a.h.s.h.u.J J J J J C M b M d 3 J J d             ",
"          - Z A f H ..q.+.6.6.6.8.c.N.v.v.N.z.x.D.D.D.h.D.] J J J J M b b w 3 J A g             ",
"          i H Z a H ! ../ c c j j j c j F G G G G V G G H V g g j d b b M d 3 C A D             ",
"          i E H a _ 3.3.E p G V j V V j N V V V V V V m m V V M C d 2 M C g 3 C J f             ",
"          1 H H a E q.q._ h l.n.c.n.v.c.c.s.8.[ J h.h.D.D.h.s.u.a.C 3 J ~ g w C J q             ",
"          = Z V p E g.c.E f s.n.c.x.x.n.D.n.b.i.h.D.c.v.v.D.z.z.v.J q J u.g 3 m M <             ",
"          = N V 7 T t.t.E f w.x.c.c.x.n.N.n.x.s.D.D.v.D.v.v.v.v.N.} 3 u.{ f 3 m b <             ",
"          * V V p T w.x.<.f +.t.q.y.c.n.D.b.g.w.D.v.v.D.v.h.v.v.z.~ w J u.e w M m 2             ",
"          & A T d T 6.x...f +.g.c.c.n.c.N.x.x.g.v.D.h.D.v.v.h.v.v.~ 3 J Q 2 3 C B 2             ",
"          = H ! d H 6.t.E f ` t.g.g.c.c.D.c.a.a.c.D.a.c.v.h.h.h.l.H 2 S C > w C N <             ",
"          = H T p H w.x.E f ) w.q.t.t.t.D.a.q.q.c.D.s.v.v.h.h.c.z.V ; n B > w C m <             ",
"          & H H p H t.g./ f W | } +.+.7.y.%.c.q.a.c.h.v.s.s.h.v.z.V > M B 2 e B N >             ",
"          = H Z 7 T t.t._ f C V G B V J #.J J J J J H J J C J J J r ; n S 2 w N m >             ",
"          = H H a E g.t...8 V V V B B H V V N r g r r m r w b e w < ; M S < g B m ,             ",
"          & V Z a _ x.q.H < 2 3 2 d d f 3 d 7 < 2 q q d d f g e f d 3 B J < g B N ,             ",
"          & V A d H w.+.C V V H V B J J J ] =.=.i.8.%.+.{ ] ] i.u.{ m C J < m C B ,             ",
"          & Z T p g N V H J J J J V V C J h.D.c.x.x.g.f.s.i.] ] ] { B B J 2 H J S 5             ",
"          # Z T 6 g m g H +.+.) H H V N J =.*.#.o.9.>.>.p.p.p.&.f.f.C B J 7 C W W 5             ",
"          # T Z 5 j V V W 6.t.+.J %.J H J =.a.q.e.f.u.>.p.p.&.u.u.z.Q C J q N Q Q 5             ",
"          # T H 8 V A H / x.b.x.c.c.g.J J g.c.a.z.z.z.l.z.l.l.f.u.f.u.S A , n J S 5             ",
"          # Z T 7 c Z A T t.y.r.q.q._ H H 3.6.q.l.f.l.l.c.z.v.f.u.u.' C B ; m S C e             ",
"          # Z Z 8 V A N A ;. .| ..H B C H +.w.;.r.r.f.l.c.k.c.f.f.u.Q B C ; m B B u             ",
"          # V A 1 g N V Z H H W H V C H W H W W W W ' ' Q ' f.c.f.W A B M $ r W A 0             ",
"          O k Z = e Z ^ ) Y G H H H H H H V H G Z H T W W T T T P r r r w X q C N 5             ",
"                                                                                                ",
"                                                                                                ",
"                                                                                                ",
"                                                                                                "
};
