/* XPM */
static char *_cbff20b85f24282caaedfb4b205f369vlXMu9MMhW5m3G4P[] = {
/* columns rows colors chars-per-pixel */
"48 63 223 2 ",
"   c None",
".  c #0C0A06",
"X  c #130E09",
"o  c #16120B",
"O  c #1A150E",
"+  c #1D180E",
"@  c #1E1A11",
"#  c #221D14",
"$  c #2C1910",
"%  c #252116",
"&  c #262219",
"*  c #2B241A",
"=  c #37281C",
"-  c #3D2E22",
";  c #3D342B",
":  c #73331E",
">  c #7E351E",
",  c #64301E",
"<  c #463527",
"1  c #453529",
"2  c #4E3B2D",
"3  c #533B2C",
"4  c #5C3928",
"5  c #49362A",
"6  c #6B3927",
"7  c #763A25",
"8  c #793A24",
"9  c #5B4535",
"0  c #78422C",
"q  c #664531",
"w  c #644C3B",
"e  c #6C4C39",
"r  c #6B4635",
"t  c #7C4B35",
"y  c #774934",
"u  c #74523E",
"i  c #7B533C",
"p  c #684937",
"a  c #6B5342",
"s  c #61564E",
"d  c #7B5640",
"f  c #7E5A44",
"g  c #745C49",
"h  c #7C5D49",
"j  c #695E55",
"k  c #775A56",
"l  c #7E624C",
"z  c #7F6B4C",
"x  c #6D6258",
"c  c #71645A",
"v  c #796B61",
"b  c #7D7167",
"n  c #585149",
"m  c #81371F",
"M  c #8A3C23",
"N  c #833E27",
"B  c #913E22",
"V  c #83432D",
"C  c #8E4229",
"Z  c #924126",
"A  c #93452B",
"S  c #99492E",
"D  c #98472A",
"F  c #884933",
"G  c #954A33",
"H  c #9B4D34",
"J  c #934D3D",
"K  c #83523B",
"L  c #99523B",
"P  c #9E5237",
"I  c #A15135",
"U  c #825C44",
"Y  c #8B5C44",
"T  c #815F49",
"R  c #895848",
"E  c #975A43",
"W  c #855950",
"Q  c #905851",
"!  c #83624B",
"~  c #8C644C",
"^  c #8C6A4F",
"/  c #8C6147",
"(  c #94654C",
")  c #9A654C",
"_  c #95684E",
"`  c #9B694E",
"'  c #916147",
"]  c #836652",
"[  c #8D6B54",
"{  c #886754",
"}  c #946B52",
"|  c #9A6D53",
" . c #956B56",
".. c #8A7755",
"X. c #9D7156",
"o. c #95725A",
"O. c #9D7459",
"+. c #9D7C5D",
"@. c #947458",
"#. c #85714F",
"$. c #A4654C",
"%. c #A46B4E",
"&. c #AA6A4F",
"*. c #A46E52",
"=. c #AA6E53",
"-. c #A37154",
";. c #AB7455",
":. c #A3755A",
">. c #AC755A",
",. c #A5785E",
"<. c #AC795B",
"1. c #B07556",
"2. c #B27759",
"3. c #B37C5C",
"4. c #BA7E5E",
"5. c #84786D",
"6. c #967966",
"7. c #887B76",
"8. c #966E74",
"9. c #A77A60",
"0. c #AB7D62",
"q. c #AB7B68",
"w. c #B47D61",
"e. c #B97E60",
"r. c #B07D6A",
"t. c #A5777E",
"y. c #928057",
"u. c #BC805F",
"i. c #A2845D",
"p. c #96897E",
"a. c #8B837A",
"s. c #AB8165",
"d. c #AD866A",
"f. c #AA8B66",
"g. c #B58263",
"h. c #BC8464",
"j. c #B58769",
"k. c #BC8669",
"l. c #B5896C",
"z. c #BC8A6B",
"x. c #BF8966",
"c. c #B68D72",
"v. c #BB8E71",
"b. c #B68A78",
"n. c #BC9174",
"m. c #BD947C",
"M. c #B39663",
"N. c #C28565",
"B. c #C38867",
"V. c #C48C6C",
"C. c #C98E6D",
"Z. c #C6906D",
"A. c #C9906F",
"S. c #C38E70",
"D. c #C59272",
"F. c #CB9473",
"G. c #CC9976",
"H. c #C49679",
"J. c #C7997A",
"K. c #CC9A7A",
"L. c #CD9778",
"P. c #D29C7B",
"I. c #D09876",
"U. c #D3A17F",
"Y. c #997F92",
"T. c #A07883",
"R. c #968589",
"E. c #9B9086",
"W. c #9C8494",
"Q. c #9E8697",
"!. c #A1968B",
"~. c #A59789",
"^. c #A58797",
"/. c #AB9D96",
"(. c #A5838D",
"). c #ADA296",
"_. c #ABA498",
"`. c #B1A59A",
"'. c #B5A89B",
"]. c #B398AE",
"[. c #A889A3",
"{. c #BAAFA3",
"}. c #B5AAA3",
"|. c #BDB2A6",
" X c #BEB6AA",
".X c #BAB5AA",
"XX c #AEA4A0",
"oX c #CE9F80",
"OX c #C39A87",
"+X c #D09F80",
"@X c #CFA181",
"#X c #D3A383",
"$X c #D8A989",
"%X c #CAA693",
"&X c #C8A998",
"*X c #C2B6AA",
"=X c #C4BAAE",
"-X c #C9B2A4",
";X c #D4B9AA",
":X c #C6BCB1",
">X c #C9BDB1",
",X c #F1D081",
"<X c #CCC1B5",
"1X c #CEC5B9",
"2X c #D3C9BD",
"3X c #DCCBBD",
"4X c #D5C5B7",
"5X c #E1CDBE",
"6X c #D6CDC1",
"7X c #D8CAC3",
"8X c #DBD2C6",
"9X c #DDD5C9",
"0X c #DED8CC",
"qX c #E1D6C9",
"wX c #E3DACE",
"eX c #E9DCCE",
"rX c #E6DED1",
"tX c #E9DFD3",
"yX c #E0CEC0",
"uX c #E6E1D4",
"iX c #E9E1D5",
"pX c #EBE5D9",
"aX c #F0E7DB",
/* pixels */
"                                                                                                ",
"                                                                                                ",
"            ! ~ #.@.@.@.o.} } @.| o.X.| | | _ | | | _ | _ _ _ _ | -.X.X.( ( ` X./ 3             ",
"          ! :.g.x.Z.Z.z.V.V.Z.Z.V.B.B.x.h.N.h.h.x.h.h.h.x.h.4.4.h.V.B.B.u.4.h.3./ (             ",
"          s.l.O.g.Z.Z.F.G.G.G.G.G.Z.V.B.B.V.B.B.h.B.V.Z.F.Z.h.x.B.Z.Z.V.B.h.g.( <.<.            ",
"          s.K.z.} ! ! ! l ! ] l h ! f f u f f f U / ^ } } _ / / ( [ } ^ ~ ~ / <.Z.;.            ",
"          s.D.G.@.% & # O + @ O + @ @ + o o + o X O O O + O o o . . + * 3 i f x.Z.u.            ",
"          f.J.K.+.% & # # & & @ # # @ + o X X o o + O O X . . O = e ( ;.4.h.) h.Z.i.            ",
"          d.G.U.6.% % # & & % % @ @ o o + @ @ + o o X o = 3 u %.4.N.V.B.4.4.) 3.h.,.            ",
"          d.K.U.O.% % # % # % % & @ @ + O o o o # < u | 2.e.4.4.N.A.F.B.4.N.| 2.u.;.            ",
"          d.K.K.@.# % # % % & & # @ + o @ * 4 R :.B.C.B.N.4.4.u.B.F.I.e.4.N.` e.u.-.            ",
"          f.G.U.@.% % & & & % # & * 1 a ~ >.N.B.B.B.B.C.B.N.N.N.B.C.V.4.u.B.:.V.B.-.            ",
"          d.K.U.o.% # @ @ & * 3 l >.z.B.N.e.e.N.N.C.F.I.I.B.N.e.2.2.:.=.B.F.:.Z.B.<.            ",
"          l.K.U.[ # # - 9 [ w.F.L.L.F.V.N.N.B.B.B.V.V.N.e.>.>.2.e.e.>.*.B.F.-.Z.B.,.            ",
"          d.K.U.[ 2 [ g.D.I.P.P.P.G.C.B.V.B.e.2.>.9.w.e.V.C.C.B.N.N.;.;.C.C.-.z.N.:.            ",
"          c.K.#X{ l V.V.V.K.U.P.L.V.h.w.0.w.r.w.N.F.F.F.F.A.C.V.V.A.g.2.F.V.X.x.u.:.            ",
"          c.U.@X{ h A.V.S.v.l.j.0.0.z.D.L.F.C.C.F.I.F.A.C.V.A.F.C.A.z.g.Z.B.| e.4.-.            ",
"          c.K.U.] ] K.L.F.O.k.S.I.K.P.#XI.F.B.V.C.C.N.N.N.A.I.C.C.I.z.g.C.N.| 4.4.|             ",
"          m.J.J.l { #X$X+X9.F.L.P.P.#XP.F.B.h.B.C.B.h.N.C.I.F.A.V.I.z.0.B.h.( 2.u.:.            ",
"          c.K.K.z [ #X$XoXq.F.L.#XP.I.F.V.B.C.I.P.I.C.V.A.F.F.F.F.I.v.3.V.B._ 2.h.,.            ",
"          c.@X#X] o.oX$XoX9.V.V.C.F.F.L.L.L.I.K.P.P.F.C.C.F.A.F.Z.I.v.<.h.V.| k.V.,.            ",
"          c.@X@Xl 6.oX#XoX9.z.V.V.C.L.P.I.L.K.L.P.K.C.B.V.A.A.F.C.F.g.;.u.h.` k.Z.,.            ",
"          m.@XoXg o.oX#XJ.q.S.L.L.F.K.I.L.F.K.L.P.L.S.V.V.A.F.F.D.F.:.;.B.h.} h.V.,.            ",
"          m.@XoXh  .K.K.D.q.S.L.F.V.L.K.L.F.L.F.L.F.V.V.C.S.F.S.V.D.>.;.x.h.} h.B.X.            ",
"          c.K.@Xg  .D.D.z.,.C.L.z.S.F.K.K.D.F.V.D.C.z.B.V.Z.D.V.S.C.:.>.x.h._ h.h.X.            ",
"          n.J.J.g [ D.v.z.:.z.S.V.V.C.D.B.B.k.h.k.h.h.k.V.V.D.V.V.S.O.;.k.V.( 3.u.X.            ",
"          c.J.J.g [ V.z.k.X.h.V.z.V.V.h.>.2.2.3.*.*.w.h.B.B.B.S.V.C.:.;.x.V.~ =.;.}             ",
"          c.@XJ.g [ S.z.j.X.w.V.k.V.k.*.y ) 2.;.6 R 4.h.z.z.z.V.V.V.:.<.k.B.~ =.3.X.            ",
"          c.J.J.g  .S.z.z.:.h.k.k.z.4.t F Q 3.K 7 R 2.h.h.h.V.V.V.F.:.w.B.z.( <.u.X.            ",
"          c.oXJ.a [ j.f.o. .w.k.k.k.` V >.~._ 0 ( ( 1.4.x.h.V.D.V.D.:.2.h.h._ 3.x.@.            ",
"          c.m.n.a ! M.,Xf.! w.k.k.h.Y A OX*X7 N q.~ =.3.h.e.k.D.V.B.X.=.<.3.~ 4.h.o.            ",
"          l.D.n.a l M.,XM.~ e.h.k.>.t C OXOXA L $.y ` 2.3.3.h.k.h.h.| *.3.2.( u.u._             ",
"          c.J.n.w [ +.i.O.| w.k.B.Y V A L C J -X3Xr.d ) 1.3.e.e.e.e.| ;.u.u.^ u.u.^             ",
"          n.H.n.w ! +.i.@. .w.h.<.0 A I S A OX6X/.8X;X6.[ *.=.1.2.e.-.1.x.k.( ;.3.|             ",
"          n.H.v.z @...y.#. .h.w.( V S H S >.rX X}.6XpXrX1X6.7 K =.w. .>.k.k.' ;.3.}             ",
"          n.D.v.#.+.....#. .g.<.K G H I S &XpX9X0XrXuXtXpX-XB 7 %.1.) ;.k.z._ 3.u.}             ",
"          n.D.z.w ^ @...l :.9.X.t G P H G <XpXuXpXuXuXuXuX0Xr.0 %.1.( >.h.z.| g.j.|             ",
"          n.n.l.w  .3.<.<.g.z.h.R H S G L 6XpXuX0XuXuXpXpXpX|.e E ) Y 2.h.g._ g.h.}             ",
"          l.D.D.a +.g.g.g.w.g.h.Y G G S E 3XpXpX6X.X X:X.X`.k ( ;.>.;.2.4.2._ u.h._             ",
"          v.J.J.a :.S.S.g.^ | } i F H G L ;XpXpXuXuX0X.Xk k W %.1.2.2.;.1.>._ g.x.}             ",
"          n.J.H.w +.J.J.l.o.3.) q W E L L &XuX0XrXrX7X[.R ) ) &.&.1.2.;.;.-.( u.g._             ",
"          v.J.D.w 9.H.D.j.:.g.>. .8.t.(.(.(._./.[.].[.Y.k Y ) ` &.1.2.;.1.;.( h.u.!             ",
"          n.D.v.w 9.D.D.j.9.h.4.| ^.].W.^.Q.Q.Y.W.Q.[.T.r R ` ` ) ' Y ;.u.>._ g.;.!             ",
"          v.J.n.w 9.D.D.l.9.z.g.Q W t.^.R.R.R.Y.Y.Y.8.N > i 3.4.3.;.Y ;.u.<.( 4.u.^             ",
"          n.K.z.w 9.S.v.j.,.k.g.R M A J R Q { W Q E B M B 0 ;.;.;.1.' ;.4.>._ <.h.{             ",
"          v.D.v.w ,.z.z.j.:.k.<.N S A S G A G B Z Z A B Z 8 ) <.4.-.i ` >.;._ 4.h.~             ",
"          z.D.z.9 :.B.z.s.} <._ N I w.I S A G S G B =.OXH M Y h.x.Y , 7 i *./ 3.3.!             ",
"          l.D.z.9 :.z.z.g.<.X.t M w.wX&X$.A B A B =.;XrX>.C Y k.h.*.4 M 7 i Y 4.<.U             ",
"          l.D.z.9 :.S.z.h.S.V.Y A &XtXtX3X~.2.w.~.5XtXiX%XA K g.h.;.6 : A ] f e.<.i             ",
"          z.D.z.3 :.z.w.h.z.0.t E yXtXtXtXtXqXeXrXrXeXrX5XE 6 E <.;.r : M c.6.;.<.f             ",
"          z.D.l.2 p _ >.V.>.7 , r.tXtXtX7XrXtXrXrXrXrXrXwX9.7 8 K &.r > B r./.) ;.i             ",
"        ! j.Z.l.5 o # < a y J ) -XtXaXwX|.tXtXtX8X6XtXtXrX%X .$.: i 6 M B >.=X~ <.u             ",
"        ! g.g.z.1 + @ X o 6 v.|.8XtXpX6X=XtXtXrX9X XtXtXiX4X'.;XM : B B Z r.4X~ ;.u             ",
"        ! g.z.g.5 o o @ $ Y 5X=X8XpXtX:X7XrXrXtXtX{.tXpXpX3X=XeX$.M D D D $X<X .<.u             ",
"        l s.z.g.1 + o + $ b.iX:X6XpXpX=X6XrXrXtXtX-XwXiXpX4X=XaXm.m D D k.qX`.| ;.p             ",
"        ! u.j.g.1 @ o O 5 ;XuX:X6XuXtX X9XrXrXtXeX{.qXtXpX<X1XaX%XN 2.&XeX9X6.;.-.q             ",
"        ! <.j.s.- + o o ; 1XwX1X}. X X_.qXeXwXrX9X!.'.|.*X-X=X8X>X`.eXpXwXE.! 3.-.q             ",
"        l <.h.u.- + o O x '.}._.=X9X9X`.1XrXwXwX{.=X9X9X<X5.).|.~.!.-X/.y./ _ u.-.q             ",
"        U u.g.<.= + O n 8XuX9X).eXrXuX0X}.wXwX6X|.rXwXeXeX`.4XiX5X7.r ) ;.%.| u.-.q             ",
"        f <.3.<.- + O a.eXrX2X|.6XwX8X8X`.qXrX>X*X<XqXqX<X'.*X<X<XE.# = q f / 1.%.q             ",
"              T < % % x !.`.E.p./.*X'.!.v p.E.5.v 7._.!.5.c j b b s @ O O * p i y               ",
"                                  x                                                             ",
"                                                                                                "
};
