/* XPM */
static char *_ba64cee18174876fd4f28df00159aedxz6Z5Pm3Hc7KFnlY[] = {
/* columns rows colors chars-per-pixel */
"32 31 105 2 ",
"   c #4E1C03",
".  c #521E04",
"X  c #562004",
"o  c #5C2406",
"O  c #5D2708",
"+  c #622706",
"@  c #622807",
"#  c #6A2B07",
"$  c #602708",
"%  c #642C09",
"&  c #692F0B",
"*  c #6D330C",
"=  c #72350D",
"-  c #75390E",
";  c #753C12",
":  c #7B3F12",
">  c #7C4114",
",  c #7F4719",
"<  c #824716",
"1  c #854A19",
"2  c #884E1B",
"3  c #8E531C",
"4  c #91521E",
"5  c #975C1E",
"6  c #995D1E",
"7  c #8B5220",
"8  c #915A23",
"9  c #9B5F20",
"0  c #9E6222",
"q  c #9E652B",
"w  c #9E682E",
"e  c #A16624",
"r  c #A46926",
"t  c #A2652C",
"y  c #A66C2A",
"u  c #A96E2B",
"i  c #A7702E",
"p  c #AB712E",
"a  c #A86F30",
"s  c #A67133",
"d  c #AC7432",
"f  c #AE7936",
"g  c #AF7B3A",
"h  c #B07632",
"j  c #B37A35",
"k  c #B37D3B",
"l  c #B97F38",
"z  c #B5813E",
"x  c #BA813B",
"c  c #B68342",
"v  c #B98544",
"b  c #BB8846",
"n  c #B68248",
"m  c #B98749",
"M  c #BA8649",
"N  c #BB8B48",
"B  c #BE8B48",
"V  c #BF8B48",
"C  c #BC8C4B",
"Z  c #BF8D4B",
"A  c #B9894C",
"S  c #BA8B4E",
"D  c #BD8D4C",
"F  c #BF8E4D",
"G  c #BE8F51",
"H  c #BE8F52",
"J  c #BF9051",
"K  c #BE9054",
"L  c #BF9458",
"P  c #C08C49",
"I  c #C18F4D",
"U  c #C08E4E",
"Y  c #C1904E",
"T  c #C3914F",
"R  c #C29252",
"E  c #C29353",
"W  c #C39353",
"Q  c #C49351",
"!  c #C39453",
"~  c #C29354",
"^  c #C29456",
"/  c #C29557",
"(  c #C49554",
")  c #C59554",
"_  c #C59656",
"`  c #C79857",
"'  c #C19559",
"]  c #C1955A",
"[  c #C2975C",
"{  c #C59858",
"}  c #C79A5B",
"|  c #C5995C",
" . c #C69A5F",
".. c #C89A59",
"X. c #CA9B5A",
"o. c #CA9D5F",
"O. c #C69D62",
"+. c #C79D63",
"@. c #CA9C61",
"#. c #CBA165",
"$. c #C9A066",
"%. c #CFA46A",
"&. c #CEA56D",
"*. c #D0A66C",
"=. c #D0AA73",
/* pixels */
"` ....` ` P V Q { ^ J U ^ ^ K K * O.~ ~ M H P W W ) T Q ! ! v Q ",
"e e 0 e e e 0 e 0 r p p j k c +.* $.c j d d y u y u u u u u r e ",
"5 6 5 6 6 5 5 e 0 0 0 y p i f S , ' g k f i 0 0 6 e 6 e e e 9 9 ",
"5 5 5 0 0 0 0 e r r y r y s d C 8 L s r r e 0 0 5 6 6 6 6 9 0 9 ",
"e e e r e e e 9 r r r y u s f ' w ' g f p u y r e r r e e e 9 e ",
"u p p p u u u u d r y y p d f K q $.z j d d p i u e e r r e r r ",
") ....T T P ) T W W F ) ' o.@.&.t &.@.^ ) V V J B U ! T Q P X.X.",
"o + % % % % % = & * = ; ; ; > > ; * - * % % O O + @ + o . . @ # ",
"Q Q W Q ~ W F V V C F ) P V W b C W K c C c c F F W ! ` ! ) W % ",
"r e e e 0 0 0 0 0 r r r r e e e e e r r r y r r y y r r y r V % ",
"p u u p u y u u d d j j d d j j j j c m V n n g j j j j d d { 7 ",
"y u r r y u y y r r d d a u r u d f g c g d f d y y p d u p K 3 ",
"r r y u u u r y u a t r q r u a s p d d s y s d d y r t 0 y L > ",
"9 e e r t u p d d d u u y u u d y y i s d d d d d d u u u y J % ",
"Q Q { ) { ^ M H ' C ~ ] K ' | | ' { | | L ' ~ H H ' ! H ^ ] { $ ",
"+ # = + % + o + o O O % = % o # @ + O X o . . O % % * : & = % & ",
"T T T P V v v x V U $ L [ | [ | | @.^ J z V C F V v B b j x b B ",
"p u y u p i h h k @.7 %.v z k k k j f f d d d d p i p p i u u r ",
"x l l h x l j l x #.t &.T T F U B v x k k j d d p d j d h x x x ",
"u p h p p p p j h | 3 @.g j k z z x k j d p p u y r e r r r u i ",
"r u u r r y i p j | 1 #.z z g f f f d p r u y u y y r r r u r r ",
"0 r 0 0 0 r i p p K % [ j j f f d p p y i s d p y r e r r r r e ",
"z N v P F F F W ^ M = ^ ` | L W ' ^ J { o...^ W V W F F T F x v ",
"o   X . X o   o o * * * ; - ; ; ; < 1 < 3 1 ; * * + % + + * o o ",
"V N z N N F C ~ V ^ J F M m m H K K K v n L > C C z g d z z C V ",
"r r r e r p d p d f p i y y d f f d d d g L , [ d 0 0 0 9 0 r r ",
"y u y u u y y s p y u y y p d d f d f d v +.3 [ f y 0 0 r 0 y y ",
"y y r y y u i f d d j h s d d d d d d d m =.s $.c p y r r r y y ",
"p p p p u p p p p h h h d j d d k j j j b =.q &.x h h h p d p p ",
"p p d i u r u u p p p i u y p d d d d d f $.1 O.x p p i p i p p ",
"x k z c j x V T V T ! U B k v j z c C C J [ > V P c z z b z x B "
};
