/* XPM */
static char *_18b3723ee5d48b5811d2fad1252969ctAOAVZdViXKiWaxW[] = {
/* columns rows colors chars-per-pixel */
"64 64 134 2 ",
"   c #250200",
".  c #2C0100",
"X  c #2B0800",
"o  c #340400",
"O  c #3A0500",
"+  c #350900",
"@  c #3B0B00",
"#  c #3C1100",
"$  c #3D1B01",
"%  c #430600",
"&  c #420C00",
"*  c #4A0C00",
"=  c #431200",
"-  c #4B1400",
";  c #471A00",
":  c #4C1C01",
">  c #4F1E08",
",  c #521E01",
"<  c #5B1E00",
"1  c #4E2104",
"2  c #4D230B",
"3  c #542203",
"4  c #5B2504",
"5  c #562800",
"6  c #5D2905",
"7  c #54250B",
"8  c #5B2609",
"9  c #55290D",
"0  c #5C2A0C",
"q  c #5F3006",
"w  c #4E2A11",
"e  c #552710",
"r  c #5A2710",
"t  c #552B12",
"y  c #5B2D12",
"u  c #5C2E19",
"i  c #5D3115",
"p  c #5D331A",
"a  c #622502",
"s  c #692701",
"d  c #632B05",
"f  c #6B2D04",
"g  c #61270B",
"h  c #632D0C",
"j  c #692E0B",
"k  c #712D03",
"l  c #653205",
"z  c #6D3204",
"x  c #65310E",
"c  c #6B320C",
"v  c #6E390E",
"b  c #723404",
"n  c #783400",
"m  c #743B07",
"M  c #7B3803",
"N  c #72350C",
"B  c #7A360B",
"V  c #74390D",
"C  c #7A3B0C",
"Z  c #622E12",
"A  c #6C2E10",
"S  c #612F19",
"D  c #643213",
"F  c #6B3413",
"G  c #663810",
"H  c #6D3915",
"J  c #63351B",
"K  c #6A361A",
"L  c #65391D",
"P  c #6B3A1C",
"I  c #733713",
"U  c #783712",
"Y  c #743A14",
"T  c #7A3D14",
"R  c #71351B",
"E  c #733C1B",
"W  c #793E19",
"Q  c #5F3520",
"!  c #623721",
"~  c #643A23",
"^  c #6B3C22",
"/  c #663E2A",
"(  c #713E21",
")  c #7B3F22",
"_  c #7C410C",
"`  c #6F431F",
"'  c #774617",
"]  c #7D4215",
"[  c #7F4816",
"{  c #75411C",
"}  c #7B421B",
"|  c #7A4A1C",
" . c #6E4125",
".. c #6C422A",
"X. c #734324",
"o. c #7B4322",
"O. c #774822",
"+. c #7B4A25",
"@. c #73452A",
"#. c #794729",
"$. c #7C4B2A",
"%. c #754B34",
"&. c #7D4E33",
"*. c #7C5139",
"=. c #823E0B",
"-. c #823D13",
";. c #893D11",
":. c #83420E",
">. c #8A450D",
",. c #824414",
"<. c #894513",
"1. c #8C4A16",
"2. c #81451B",
"3. c #854A1C",
"4. c #8B4B1A",
"5. c #924B15",
"6. c #974F18",
"7. c #95521E",
"8. c #9B531C",
"9. c #A0571C",
"0. c #844523",
"q. c #864C22",
"w. c #894D23",
"e. c #834E2B",
"r. c #894B2C",
"t. c #8C5124",
"y. c #86512F",
"u. c #8A522B",
"i. c #90552C",
"p. c #8C5633",
"a. c #925333",
"s. c #945C33",
"d. c #995E33",
"f. c #9A5B3B",
/* pixels */
"9.8.8.5.7.4.,.2.-.T W T -.-.T T _ ,.] ,.,.,.,.,.:.=.,.:.C =.,.* I E W Y F U c v N I I F E W E v c c c V V I Y c v v H H c c c F ",
">.k n n k f c z j f s s s f s s d z z b N V N z b z b b f b B @ , 4 3 8 4 d d 5 5 6 6 4 g 0 j x l j l f h s d s a d j d 5 3 5 5 ",
"8.M <.3.,.U } W W Y R W W W U I V V Y V V V v V N N V V N C } - S S Z D 0 5 : , 3 3 3 3 , , 3 h l x x j g d 4 4 4 8 5 5 3 3 8 : ",
"t._ <.T V c v F F j F F F F c H H H H F F c c x l c c c c v Y & 8 S K H J i 3 4 7 7 7 4 7 > > 0 y 0 D D D A S h 8 7 8 7 9 9 9 3 ",
"t._ T d d d x 4 4 3 3 4 < , , , , , 3 3 8 6 8 6 g h j h x F F @ 9 t y i 0 J J i D i i u r r 9 1 1 1 1 3 7 3 3 J J u u y i i t i ",
"[ f v j 4 5 x F D Z Z Z 0 3 3 - ; - : , 3 3 3 8 0 0 0 h x D K & r r r r 1 7 7 0 r y y r t 7 t i t 0 r 7 7 r 7 7 7 2 1 2 2 w 2 9 ",
"d.q.s.s.s.y.p.y.e.$.#.#.X.( P ^ ( P P ^ ^ ( ( P {  .H P E ( E - u i L ^ K ~ L H P ~ ! K L ~ ^ L L L J J J S S S u u u p ! Q p J ",
", % % O * - = - - & & & & @ O O @ @ @ @ & = & - - - & & & @ @ @ = O O @ o @ @ @ O O O o o O o o + @ @ # @ & @ & & @ + o + X . o ",
"2.d.i.3.} 2.2.' W E W E F D Z F K E ( ( P R K P E ( o.E Y E ( H F J K F F D K K K K D K H P F D K J K ( ^ K K S K J S D K J ; S ",
"< a f V b c I a 4 a 4 5 4 4 8 , , , 4 8 8 4 4 a 4 4 a 4 4 4 g h 6 6 8 4 , < 4 8 4 , , , 3 3 , 3 , , , 4 < < , , 8 8 8 > e 7 @ 8 ",
"C 2.V V U N d s d d 4 6 6 6 6 0 0 8 8 6 8 h h h 4 4 a g a g j F x h h g 8 g g S Z Z g g g j 6 x h 6 h h Z Z h 0 Z 8 0 0 i y @ 8 ",
"0.i.{ U T } c Y U Y F F D F D K D 6 8 8 6 Z Z K F A F K E H F x h j Z h g h Z g Z F x x D G x G D y g h Z Z j Z Z Z Z S D y # D ",
"{ o.} } H I { d 6 6 6 0 y 0 i 7 3 1 ; ; : 3 3 4 3 8 8 6 0 6 4 3 : 3 3 3 > , , > 0 h Z Z Z h 0 7 4 1 3 3 3 7 3 9 y 7 9 w 7 2 + t ",
"P $.O.E x s d 6 0 q y i i i i t t w 7 9 9 u i 7 r y y y D 0 7 0 6 9 D i y e e > > 7 7 7 0 7 3 1 1 1 1 1 1 1 3 u J t i u t 9 $ t ",
"P $.@.O.X.X.P H H J i p p p p p u u t u i u u t p J J J J J i i y i i i u u u ! ! u u p J J i p p p p p L p p t i t t w w w $ w ",
"O . o & @ O @ @ @ + o X X + X + # # # @ @ X o o + o o o o o o @ + + + # @ @ # + o o . o o @ + X + # # # @ @ + # # + # # + # X X ",
",.4.4.2.T T 2.} W W F F F c c F F x j F F I v c I I I V v j c & y G i i 0 y 0 h x c D j h d d x G D x x x c x F F v F F D F D Z ",
"5.=.n b b f f v v c F c c c c f c c l j j j f f f z f f f f c @ 7 9 4 3 5 8 , 5 4 4 a a d d j g h x c c c d d d d d d s a a g 4 ",
"5.C B ,.] U Y c x h 4 5 4 4 4 4 d j h s j j j h d d f d c c R @ y 9 7 3 4 9 3 7 3 3 3 4 5 d j 8 8 8 0 h 0 x h 6 6 4 8 8 8 8 8 h ",
"<.<.,.] l , 4 Z h h 6 6 8 4 4 4 g G D x D F D j x x c F Y W o.@ t 9 2 9 7 r 9 0 6 8 3 , , , , : , ; - : 3 0 0 G F G D D D F J r ",
"t.w.3.} d : 3 : : : : 3 8 8 6 J P X.^ H D D D 0 6 0 Z D D F P ; p Q p ! p ~ L L L L L D D 0 y 9 y e e r u D J i i y u t u u u J ",
"4.' Y W Y F H D D y 0 0 6 y y 9 u D y 9 0 0 0 0 h D D D F K P # e t t t 9 u e i i J J D y Z D u u u ! p i t 9 y t t e e e y y 7 ",
"u.} I W { W { $.#.O. .H J D Z D D J D D J F J 0 Z Z Z Z D D D ; u e t t 9 i y y y i D i Z D J J ! J J J i t t y 9 9 w e t t t t ",
"% % O O & % @ O O O O O O @ @ @ @ @ o o o o o o o O O o o o o . + + + + o @ @ O @ @ O o o O o O O o o . o + + + + + + o o + @ o ",
"V T 3.} w.u.W W o.} { H F D F K D D J D 0 D F E H H E E Y F h F L K P P H K D K F F F x F F F K K J Z y 0 G D J P J D J ^ ! @ D ",
"2.2.] V B ' T c c c F F F F F h 0 h D x h A H 0 6 6 g h h g 6 G x 6 d 8 6 h g 8 5 5 4 8 a 4 h h h 0 6 8 6 7 6 3 7 3 7 7 7 r O h ",
"q.,.T V z s d b j f f h h a 5 3 3 3 3 , - : , 6 6 4 6 h c F F c l 6 4 5 6 h l x j h x x F F F Z Z h j h 0 6 6 h x 9 Z 0 8 3 & 0 ",
"s.t.w.t.2.V V c c c F I F E H F K K D 8 3 , 5 3 4 3 4 3 5 4 6 d h h h x F H F F F x j x x x c j j A F x x j l x G h Z r e > @ 3 ",
"} H v V c d c a d s d 8 4 8 0 7 0 0 t 7 3 3 7 0 6 0 7 5 , , 3 3 3 8 6 l j h h D G Z Z j 0 h h Z h h h Z h x x 0 J D D i J S @ 0 ",
"+.+.e.+.Y c Y F F G h 8 1 3 7 2 w 9 9 7 t t y t y i i 0 y 0 y 0 6 0 y 0 i x D y 0 0 0 y 0 r 0 0 8 8 4 4 8 6 7 0 D r t u J u @ 9 ",
"L L { E H G 6 K F P H ~ ~ ^ ..~ ~ ~ Q Q ~ ~ ~ p p ! ! ! ~ ^ ..L J D J i J i i L L L L L ^ ^ K ( ^ ^ K P P P P L L i J p ! ~ 2 J ",
"- . o @ ; , & - = & @ @ @ @ @ # # + X + + + o + o o o o o o o # = # # - @ @ o @ @ @ @ @ @ @ @ O % O @ @ @ & # @ + . + o o @ o # ",
"_ <.<.:.,.,.,.2.W Y U R c v Y F j 4 4 6 g d d d j N U Y Y U H - ^ ^ X.h x x j x g 6 5 4 g g 0 6 0 6 8 4 6 h h h Z Z A F A A F K ",
"6.6.5.>.>.:.=.C U Y W W Y V Y W W I U I Y U N c N V V U C V V @ i D D 9 F F F j c l c F c h 6 y x H H H F D j h h j h h h h j Z ",
"<.<.:.n b z f < < < < < 4 4 5 a 8 g g h j d d c c l c c c c c + 9 1 3 : 4 5 5 h h h x G D 0 4 0 0 7 0 8 8 8 6 0 g 4 8 8 8 g h , ",
",.-.C b b b j c j g 8 4 8 6 0 0 0 Z D Z h 0 h 0 h g j l l c D + 2 1 9 1 y D F Z D h 0 0 0 i t 0 7 3 : : 3 3 7 8 7 8 8 8 0 0 9 r ",
"N U N c v c c F K Z r r 0 0 D 1 3 7 1 1 3 > 1 3 3 7 6 l 6 0 x # u t p e u y i y 0 9 7 7 9 y i 9 9 i i u 9 9 7 t r r y S S u r y ",
"Y W ' ] } } E F J K S S S S 0 7 2 7 2 7 1 2 3 r 7 0 J J J D L # w w t : : : : 3 > 3 1 1 1 2 2 7 7 9 9 9 9 9 2 7 7 8 9 u r r 7 : ",
"R W Y } } } W ^ ( ( ^ ^ ^ P J ~ ! L J L L J J D y 0 D D y Z L ; p p ^ P .. .@.P ~ ( ^ P L P ^  . . .L ^  ...@.K L J ! ^ ^ ! i ^ ",
"O O O O % % % % % % o o o o o @ + o + @ @ + o # @ o o + o @ @ o - + @ @ @ o o @ @ @ + . o o o o o + = = # @ @ @ @ o O O O o . o ",
"a j N T c T N R R R R K S g 9 Z i 0 i 0 y i G H D D D x 0 h D D G D h h D D D 0 D D D h D D x h h D F H K F D D K K K K Z S - Z ",
"o.0.w.w.,.] N f A R R K R P H 3 4 6 6 0 6 0 8 3 , : , 3 8 6 j F F F j 6 6 6 6 8 6 h 8 8 6 g 6 5 4 5 8 8 8 4 4 , 4 8 , 8 , , o 4 ",
") o.T U b b a a < a g g g 0 0 h y x x x x D D 6 0 d g g 6 x F j j s h h x x x 6 h j h d l x j F v j j j j x x F F K F ( K K - h ",
"e.e.} ] V T f s d g g g 0 8 8 3 3 : : : , , 3 j x F F h 6 g j j 4 < 4 F Y K 0 x D D G F F F F 8 4 , , 3 3 3 3 , , 3 , 0 , 3 o F ",
"#.#.{ Y c V d c A F S J i G i G G G G x x D x 4 h F K D F S F F c d j F K D y D i D D G F D G j j l D D F D F Z S S y J y y & D ",
"L ` { ' V V l d h Z Z r t 9 9 9 9 y i i 7 3 1 1 8 Z D D D F S j x F D 0 7 0 i y 7 7 0 9 9 0 0 0 7 0 0 Z D u y J J J y u e y @ Z ",
"~ ` X.+.{ } { X.( ( ^ ~ ~ p L p J L P L J J 0 i K ~ ^ ! ~ P S H E X.( P L ~ ..~ Q p L ~ P P ~ P P P ^  .^ ^ ~ ~ ~ ..! ~ Q ~ 2  .",
"# o @ & o & & @ O O o X + + X + + + o X o + + @ @ @ O O O o . & o o o O @ o . @ o . . o o o O O o o o @ o o o o + @ o + . @ . . ",
"s k U W R I A g Z S S D S Z y J D i i Z D D K 4 h Z D c F j 6 @ Z P K F A A g j A j A A A A A c F c j Z Z Z Z D K K D F F R c R ",
";.-.B k f s h 4 < 8 8 0 g h S , 3 , 3 5 5 4 5 a a a a f N T W O e 7 , , , < < a a a a a 4 a 4 a a 4 4 4 h F H j D j h j j f d a ",
"8.1.;.V c v v H F v G K H Y Y E I R Y W W W T B U C N B B b j O r S S S Z Z h 4 a h j j F F H ( E F F Z D Z y Z Z D h j j h d a ",
">.>.,._ _ m l l h 6 q q q 5 3 , < , , < < < < < a s k B -.C U @ y p J J K F Z H F A Z h h 0 6 8 8 h y h r 9 8 7 8 r r h h h h D ",
"4.4.4.3.3.v d 6 q 5 6 q 6 5 3 6 4 6 d h j l d c f s a a f b c ; u t t y 9 D D D h 3 3 8 0 0 4 , , 8 r y y r r e 7 9 y u Z S Z 0 ",
"<.] ] T ' x 5 6 5 3 5 4 0 q 0 6 0 G K H K K c x F F F H W W { @ w 7 7 e 7 9 8 0 9 0 0 K E X. .J J D r r t 7 7 3 7 7 7 7 3 7 7 , ",
"W T U I Y E A j 0 Z Z Z D D J p p ~ ~  .^ L L J L P L D y 3 ; ; p i K ~ J H D D D D G D D D D ( ^ P P K P P ~ ! K J K L J L ^ K ",
"% * * % * & * & - - - - = & @ # # + X + + + + + + + + + @ @ + . @ @ @ @ O @ @ = - : : = @ @ @ o @ @ O @ o o o @ o o O @ o @ & @ ",
"0.0.0.f.a.r.0.o.o.) ) ( E R P J i i J J J p y L ! K J L J L L H H P K F F K H F c F F c x x j j Z j h F D F F E F Z K D J D = F ",
"0.2.U T N N T N N j j j j I F 4 8 8 9 6 6 9 6 0 0 6 6 8 6 0 6 j l x g 6 5 5 4 3 4 4 6 d d d g a a 4 a a h d g 4 < , 6 3 3 , O 6 ",
"w.t.] ] C <.,.C C V m b m z N j N I b c j c U I I I U U W U T Y E F F F l h d G F F F F v v F c F c c F I F F F F F K Z 0 Z = h ",
"[ ,.m _ m C b z n m m m z z f f k f f s f k k f f z b f f f f j j F F j Z g g D D F D j j g h j h h g f h f j l j 8 6 , , 8 @ Z ",
"| ' l l d z 6 5 4 l z l l l l d a a a d d j z c c f d d 4 4 < 6 g g h h y 0 0 9 8 8 r h Z j Z R R K F Y R F R H G Z J p i Q - J ",
"` $.O.' v Y l l l 6 l l G G G x x 0 6 g g 6 6 i F F D x Z Z h g h g Z S D u u e r r y u S S K Z g 6 8 h 0 h g x 0 r i u u t + i ",
"/ %.*.*.@.&.X.$.#.@.@.@...@.@.....~ ~ p J p p p p Q L ! ~ Q ~ ^ K K ! ~ / ~ ! ~ ~ ~ ! ! K ! ~ ( ( ^ ^ ( ( ( ( ^ ^ ^ ../ Q ..2 ~ ",
"X         o . . o . . . . X               X X X X   X         o o . o . o . . . . . . . . o o o . . . o . o o o o . X   X #     "
};
