/* XPM */
static char *_19132fa1aa44aa1e25a07388352a539Oz3s1QFwUGb7oBSi[] = {
/* columns rows colors chars-per-pixel */
"57 80 220 2 ",
"   c None",
".  c #070000",
"X  c #0B0300",
"o  c #0D0902",
"O  c #120600",
"+  c #140B01",
"@  c #1B0C01",
"#  c #141200",
"$  c #1B1401",
"%  c #17130B",
"&  c #1B190D",
"*  c #1B1608",
"=  c #1B1D13",
"-  c #251602",
";  c #271D05",
":  c #2C1D05",
">  c #271F0B",
",  c #28180D",
"<  c #331D01",
"1  c #321F0A",
"2  c #231D14",
"3  c #211E1A",
"4  c #271613",
"5  c #1F2115",
"6  c #2C250C",
"7  c #292305",
"8  c #3B2C01",
"9  c #33260C",
"0  c #3C260C",
"q  c #3A2B0D",
"w  c #33290C",
"e  c #3B320E",
"r  c #242214",
"t  c #2C2512",
"y  c #24231B",
"u  c #2D261A",
"i  c #2E2A1C",
"p  c #2B2A18",
"a  c #332C15",
"s  c #3A2D13",
"d  c #32261B",
"f  c #342A1C",
"g  c #3D2C1B",
"h  c #302711",
"j  c #3A3215",
"k  c #3D341B",
"l  c #39381A",
"z  c #2D2922",
"x  c #292726",
"c  c #332D24",
"v  c #392D23",
"b  c #322B2A",
"n  c #303123",
"m  c #363328",
"M  c #3A332A",
"N  c #3A3225",
"B  c #393836",
"V  c #453608",
"C  c #412D17",
"Z  c #432F1B",
"A  c #423516",
"S  c #42351E",
"D  c #443C1A",
"F  c #4C3C1C",
"G  c #4C3B15",
"H  c #50310A",
"J  c #423523",
"K  c #413C22",
"L  c #493C22",
"P  c #483D2A",
"I  c #523B2D",
"U  c #4D421D",
"Y  c #55441D",
"T  c #59481B",
"R  c #674D1A",
"E  c #4B4322",
"W  c #4D4229",
"Q  c #454023",
"!  c #524324",
"~  c #564A25",
"^  c #5C4B26",
"/  c #51432A",
"(  c #57492B",
")  c #5E552C",
"_  c #574D30",
"`  c #5C4C33",
"'  c #594C3B",
"]  c #5C5235",
"[  c #645126",
"{  c #6A592F",
"}  c #62562A",
"|  c #7A5B2F",
" . c #614B34",
".. c #645633",
"X. c #6A5B32",
"o. c #685638",
"O. c #735B38",
"+. c #6C602E",
"@. c #6B6032",
"#. c #766236",
"$. c #74643D",
"%. c #7B683B",
"&. c #655741",
"*. c #7F5C40",
"=. c #6A6343",
"-. c #7C6B41",
";. c #746747",
":. c #7C7546",
">. c #7C7A54",
",. c #816D34",
"<. c #866C44",
"1. c #8A7345",
"2. c #8B7A45",
"3. c #867448",
"4. c #8A764A",
"5. c #8A7A4E",
"6. c #86784B",
"7. c #947C4B",
"8. c #947948",
"9. c #877858",
"0. c #927D53",
"q. c #7D815C",
"w. c #8E804F",
"e. c #9B884E",
"r. c #968454",
"t. c #95855C",
"y. c #9B8858",
"u. c #9E945F",
"i. c #8A825D",
"p. c #A08C4D",
"a. c #A38C53",
"s. c #A18E5F",
"d. c #A38755",
"f. c #B08453",
"g. c #A3935D",
"h. c #AA9B5F",
"j. c #AB9757",
"k. c #B39F59",
"l. c #AF984F",
"z. c #BDA747",
"x. c #BAA55D",
"c. c #9B8D60",
"v. c #9F9164",
"b. c #A08E60",
"n. c #A99463",
"m. c #A59964",
"M. c #AC9B62",
"N. c #AC966B",
"B. c #AD9A6A",
"V. c #A4996B",
"C. c #B39D64",
"Z. c #B39D6A",
"A. c #B99B72",
"S. c #AEA16C",
"D. c #B3A164",
"F. c #B6A16B",
"G. c #BBA469",
"H. c #BFAD6E",
"J. c #BCA867",
"K. c #B9A778",
"L. c #BDB07B",
"P. c #C39B56",
"I. c #C7A94D",
"U. c #C9AB4C",
"Y. c #C9A84B",
"T. c #CBB049",
"R. c #C6A754",
"E. c #C5AF51",
"W. c #CBAB5C",
"Q. c #C7A957",
"!. c #D4AD5A",
"~. c #CCB25C",
"^. c #CBB65A",
"/. c #D3B65E",
"(. c #D3BC5D",
"). c #D7B759",
"_. c #C5AC64",
"`. c #CBAC64",
"'. c #C3AC6B",
"]. c #C7A96D",
"[. c #D2AD62",
"{. c #D9AF63",
"}. c #C6B363",
"|. c #CCB464",
" X c #CDBA63",
".X c #C7B26A",
"XX c #CBB56C",
"oX c #C6BB6B",
"OX c #D2B462",
"+X c #D9B465",
"@X c #D3BB65",
"#X c #DBBB63",
"$X c #D2B46C",
"%X c #DAB76A",
"&X c #D3BB6C",
"*X c #DFBD6D",
"=X c #C8AC78",
"-X c #C4B474",
";X c #CDB372",
":X c #CEBB72",
">X c #CDB57C",
",X c #C9B67E",
"<X c #D3B574",
"1X c #DAB672",
"2X c #D4BB72",
"3X c #DBBB73",
"4X c #D5B47A",
"5X c #D5BC7A",
"6X c #D9BE7A",
"7X c #DCB479",
"8X c #E1B767",
"9X c #D9C46A",
"0X c #DAC474",
"qX c #D8C279",
"wX c #E6C369",
"eX c #E0C276",
"rX c #BFB882",
"tX c #CFB980",
"yX c #D3BD83",
"uX c #D7C281",
/* pixels */
"                                                                                                                  ",
"                                                                                                                  ",
"                                                                                                                  ",
"                                                                                                                  ",
"                                                                                                                  ",
"                                                                                                                  ",
"                                                                                                                  ",
"                                                                                                                  ",
"                                                                                                                  ",
"                                                                                                                  ",
"                                                                                                                  ",
"                                                                                                                  ",
"                                                                        - ; 6 6 9 :                               ",
"                                                                  $ 9 L X.<.5.r.4.-.Y @                           ",
"                                                              + Y #.#.n.L.5XqX3X5XtXC.#.e $                       ",
"                                                            $ 6.a.H.uXeX*X#X8XwX#X%X5XF.$.%.e                     ",
"                                                          O 6.Z.9X0X'.1.$.6.2.p.x.wX!.8XwXJ.h.^ X                 ",
"                                                          ..c.uX0Xd.G F w 6 6 G ,.`.1XOXOX3XtXG. .O               ",
"                                                        w y.qX9XA.0 0 O           [ C.-X&XOX%X1Xn.k               ",
"                                                        T g.:X@X .C @               A y.J.@X+X8XA.X.$             ",
"                                                      - %.:X8Xl.b 2                   L X.;XW.{.tXK >             ",
"                                                      s e.0X3X<.J 2                   m _ t.4XOX5Xo.a %           ",
"                                                      ^ j.@X7X<.a p                   B M o.>X+X2X<.S 3           ",
"                                                      } x.@X4XO.t n                   B g ..=X%X6X4.u =           ",
"                                                      X.j. X0X7.k z                   n l } :X+X0X1.u 3           ",
"                                                      ) e.5X|.}.$.r                   i a X.;XOX3XO.c y           ",
"                                                        $.=X|.9Xt.E                 y f f c.5X(.;XF u y           ",
"                                                        C ..XX(.}.2.;             y c M / K.2X(.Z.s f =           ",
"                                                      , 9 < a./.OXn.3.-         y b b N 4.5X$X*X0.a r =           ",
"                                                    + s q 1.].$X+X<Xb.%.s u n i a c g O.].+X$X4X` f r             ",
"                                                  # E / g.oXXX7X4X<X3Xk.Y ; 6 6 e ^ 0.H.&X X5Xy.v i 5             ",
"                                                # _ o.L.oX^.&Xf.R `.).).|.v.9.;.t.;X4X&X~.9X-XT v z y             ",
"                                              * ) +.<X*X!.2XV.k O ] L.qX X(.*X1X1XOX)./.0XK.o.f M z               ",
"                                            r =.>.-X<X`.2XF.5.N d P -.3.M.x.3X3X6X2X5X,Xv._ f c z =               ",
"                                        # t ;.9.:XoX|.5XA.r.q       - L X...w.M.M.M.9.' m u m z &                 ",
"                                      * w w t.uX$X|.:Xm.r.s             * h U ~ l K b b B x z &                   ",
"                                    * j A u.;X|.OX6XZ.5.s                   $ 7 p z z x x x                       ",
"                                  * k L s.2X!.!.5XN.0.s +                                                         ",
"                                % k L N.4XR.U.@XZ.! s                                                             ",
"                              o j L Z.$XW.R.&XD./ S X                                                             ",
"                            X j F M. XU.!.|.C.E A o                                                               ",
"                          O j K M..XY.Y.OXD.U A o                                                                 ",
"                        O A U u.$XQ.R.<XD.D e o                                                                   ",
"                      O S ! M.oXY.[.4XA.L s +                                                                     ",
"                    O L ( K.XX~.!.$XA.I 4 4                                                                       ",
"                  X A ^ K.;XW.R.}.Z.G C &.I                                                                       ",
"                . j U D.XX~.P.[.K.G 8 r.L.u.~                                                                     ",
"                c Q v.}.I.I.[.P.l e m.:X~.-XD.{                                                                   ",
"              4 $.d.!.T.z.|.N.J l q.#.p.|./.}.k.^ .                                                               ",
"            X ( <.$XR.R.W.p.8 / q.l - 7 1.:X:XK.W p                                                               ",
"            < 2.W.U.W.=X8.V X.i.N l d g O.y.B.U d &                                                               ",
"            T j.E.U.].<.H 2.m.7 = m     - } K S 2 o                                                               ",
"            [ H.]._.,.G p.XXC.{ 5 m       X u %                                                                   ",
"              :.2.| 1 B.`.z.`.=X=.] o                                                                             ",
"                _ s C 0.C._.Q.`.tX;.t                                                                             ",
"                      q 7.M._.Q.V.E h                                                                             ",
"                        1 4.g.l.J k X                                                                             ",
"                          : { D k #                                                                               ",
"                            O > X                                                                                 ",
"                                                                                                                  ",
"                                                                                                                  ",
"                                                                                                                  ",
"                                                                                                                  ",
"                                                                                                                  ",
"                                                                                                                  ",
"                                                                                                                  ",
"                                                                                                                  ",
"                                                                                                                  ",
"                                                                                                                  ",
"                                                                                                                  ",
"                                                                                                                  ",
"                                                                                                                  ",
"                                                                                                                  ",
"                                                                                                                  ",
"                                                                                                                  ",
"                                                                                                                  ",
"                                                                                                                  ",
"                                                                                                                  ",
"                                                                                                                  ",
"                                                                                                                  "
};
