/* XPM */
static char *_363593c5b604e42bce8a37b7d325f8eBa2gkjJo7UU8cWWy[] = {
/* columns rows colors chars-per-pixel */
"34 48 123 2 ",
"   c None",
".  c #19140C",
"X  c #1D1E11",
"o  c #221B0B",
"O  c #2B1B0C",
"+  c #28220B",
"@  c #33260F",
"#  c #252214",
"$  c #2A2112",
"%  c #2A251B",
"&  c #2D291C",
"*  c #372810",
"=  c #382F16",
"-  c #322D1E",
";  c #3B2C1B",
":  c #393114",
">  c #3A321C",
",  c #282620",
"<  c #2C2820",
"1  c #2F2A2D",
"2  c #312B22",
"3  c #382D22",
"4  c #3D3424",
"5  c #3D3821",
"6  c #37312B",
"7  c #3B362A",
"8  c #463718",
"9  c #453B1E",
"0  c #4A3B1F",
"q  c #443A23",
"w  c #4B3E24",
"e  c #463F2E",
"r  c #4B3E2D",
"t  c #48421E",
"y  c #4D4123",
"u  c #4E4A2B",
"i  c #554421",
"p  c #544B27",
"a  c #514329",
"s  c #544B2D",
"d  c #5A4D2B",
"f  c #5C532C",
"g  c #575133",
"h  c #5D5339",
"j  c #634F2B",
"k  c #605425",
"l  c #6C572E",
"z  c #655434",
"x  c #6D5B33",
"c  c #645439",
"v  c #615B3A",
"b  c #6C5E39",
"n  c #735C32",
"m  c #725C38",
"M  c #736436",
"N  c #74643D",
"B  c #7A643D",
"V  c #7B6B3A",
"C  c #655942",
"Z  c #746447",
"A  c #766B42",
"S  c #7E6D45",
"D  c #826437",
"F  c #846E42",
"G  c #866C4F",
"H  c #857343",
"J  c #887446",
"K  c #877941",
"L  c #857648",
"P  c #8B7648",
"I  c #86794E",
"U  c #937F43",
"Y  c #997F46",
"T  c #907D4B",
"R  c #9F8946",
"E  c #94844F",
"W  c #958055",
"Q  c #998553",
"!  c #9E8A54",
"~  c #96865C",
"^  c #9E8958",
"/  c #A78D4D",
"(  c #A48C55",
")  c #A98E53",
"_  c #A68E5F",
"`  c #A69655",
"'  c #AD9756",
"]  c #A3925A",
"[  c #AA945B",
"{  c #AE9C5D",
"}  c #B1975F",
"|  c #B29C5B",
" . c #BA9B5B",
".. c #BBA352",
"X. c #B3A15E",
"o. c #BBA15D",
"O. c #A59561",
"+. c #B29D63",
"@. c #B6A060",
"#. c #BAA464",
"$. c #BDAC62",
"%. c #B9A76B",
"&. c #CBAE56",
"*. c #C5A55B",
"=. c #C6AC5D",
"-. c #CAAC5C",
";. c #C7B157",
":. c #CDB35E",
">. c #C4A963",
",. c #CAAD64",
"<. c #C2AD6C",
"1. c #CAAC6C",
"2. c #C6B061",
"3. c #C9B365",
"4. c #C4B26A",
"5. c #CCB56C",
"6. c #CEB96E",
"7. c #D8B865",
"8. c #D2B26A",
"9. c #D6BA6B",
"0. c #DABA6D",
"q. c #CDB270",
"w. c #D2B870",
/* pixels */
"                                                                    ",
"                                                                    ",
"                                                                    ",
"                                                                    ",
"                                                                    ",
"                                                                    ",
"                                                                    ",
"                                          @ 9 y 0                   ",
"                                      i x Q +.#.+.J 8               ",
"                                    N X.<.+. .=.7.8.( V             ",
"                                  z %.<.n 0 9 k / 8.7.q.Q ;         ",
"                                  Q 9.m O         L #.7.1.v         ",
"                                i #.o.q             Z >.8.m o       ",
"                                V 3.( >             e _ 0.J %       ",
"                                K 3.} 9             5 ! 0.P %       ",
"                                M #.3.B           % 5 [ 9.B ,       ",
"                                ; m >.| p         2 c 1.3.a #       ",
"                                @ l >.8.! 0 % & - r ] 0.O.q X       ",
"                              q L $.,. .5./ g a N [ 5.5.m -         ",
"                            u Q 8.4.S 0 ] 3.,.1.8.9.4.I q <         ",
"                        o h O.5.q.^ w 3 a N T | +.~ C 7 ,           ",
"                      + y [ w.5.^ w         = t q 6 1 ,             ",
"                    $ d [ 3.5.W w                                   ",
"                  + d +.-.=.J >                                     ",
"                o d ' &.-.K :                                       ",
"              O d ` -.>.D :                                         ",
"            O c } :.1.G 3                                           ",
"          o d +.3.3.D j Z q                                         ",
"          s ` &.*.H f ` 4.! y                                       ",
"        a ) &...V g s f | <.b                                       ",
"        U &. .D M u 3 ; M A >                                       ",
"        ` ' D Y { d 7     # .                                       ",
"          d z +.-.+.h                                               ",
"              V } ( y                                               ",
"                f 0 o                                               ",
"                                                                    ",
"                                                                    ",
"                                                                    ",
"                                                                    ",
"                                                                    ",
"                                                                    ",
"                                                                    ",
"                                                                    ",
"                                                                    ",
"                                                                    ",
"                                                                    ",
"                                                                    ",
"                                                                    "
};
