/* XPM */
static char *_aa502d4f7484e85a97a5e99ef13663crlT3YHttG1HKSHFI[] = {
/* columns rows colors chars-per-pixel */
"30 40 170 2 ",
"   c None",
".  c #120F06",
"X  c #16140B",
"o  c #19170E",
"O  c #1E1D13",
"+  c #232119",
"@  c #192126",
"#  c #0E2B3B",
"$  c #102630",
"%  c #1D3135",
"&  c #17303B",
"*  c #1A343E",
"=  c #2D2D2E",
"-  c #312F24",
";  c #37372F",
":  c #273136",
">  c #2B353A",
",  c #21393F",
"<  c #3E3B32",
"1  c #423E35",
"2  c #38423F",
"3  c #45443C",
"4  c #48463F",
"5  c #0E3945",
"6  c #0B384F",
"7  c #123847",
"8  c #123649",
"9  c #15394A",
"0  c #1B3C4C",
"q  c #123C53",
"w  c #1A3D53",
"e  c #143F59",
"r  c #183E5A",
"t  c #223541",
"y  c #233940",
"u  c #2B3F47",
"i  c #213D4C",
"p  c #333C43",
"a  c #0F485A",
"s  c #174156",
"d  c #1B4157",
"f  c #15455F",
"g  c #1C445A",
"h  c #14495F",
"j  c #2E414A",
"k  c #294450",
"l  c #24455E",
"z  c #234B5E",
"x  c #2D4A5B",
"c  c #374A55",
"v  c #394F5E",
"b  c #0E4563",
"n  c #0A496E",
"m  c #144663",
"M  c #1F4461",
"N  c #174B67",
"B  c #1B4C67",
"V  c #164C69",
"C  c #1A4D6A",
"Z  c #19536D",
"A  c #194A70",
"S  c #145374",
"D  c #1B5273",
"F  c #15547A",
"G  c #1C5579",
"H  c #175A7F",
"J  c #1B5A7C",
"K  c #254B63",
"L  c #244F6C",
"P  c #304F65",
"I  c #215169",
"U  c #2A526B",
"Y  c #345262",
"T  c #285776",
"R  c #225877",
"E  c #21567A",
"W  c #245A7B",
"Q  c #2A5879",
"!  c #4A4A44",
"~  c #54544A",
"^  c #59564E",
"/  c #59594F",
"(  c #5C5B53",
")  c #605D57",
"_  c #64645B",
"`  c #6A685E",
"'  c #6C6B64",
"]  c #76766D",
"[  c #817F77",
"{  c #838379",
"}  c #0D5685",
"|  c #0E5A86",
" . c #0C5B8C",
".. c #135784",
"X. c #165C87",
"o. c #1B5B84",
"O. c #155D8A",
"+. c #1C5B8A",
"@. c #0F5E95",
"#. c #245E83",
"$. c #285C81",
"%. c #1A6185",
"&. c #16618D",
"*. c #1C648B",
"=. c #066196",
"-. c #0C639A",
";. c #0D6D9E",
":. c #156492",
">. c #1B6695",
",. c #176996",
"<. c #1C6996",
"1. c #13679B",
"2. c #1B659A",
"3. c #126C9E",
"4. c #1B6C9C",
"5. c #216085",
"6. c #2B6385",
"7. c #24648E",
"8. c #306482",
"9. c #246A96",
"0. c #206498",
"q. c #216D9C",
"w. c #366D92",
"e. c #0C65A3",
"r. c #076AA5",
"t. c #0C6CA6",
"y. c #056CAC",
"u. c #0A6DAC",
"i. c #1467A2",
"p. c #146DA5",
"a. c #1C6CA2",
"s. c #156EAD",
"d. c #0671AC",
"f. c #0C72AD",
"g. c #1471A4",
"h. c #1D71A3",
"j. c #1473AD",
"k. c #1B75AC",
"l. c #056DB3",
"z. c #096BB0",
"x. c #0571B3",
"c. c #0B72B2",
"v. c #0E79B4",
"b. c #0773B8",
"n. c #0C74B8",
"m. c #1275B2",
"M. c #1B75B4",
"N. c #1379B1",
"B. c #1D7AB4",
"V. c #1577B8",
"C. c #1976B8",
"Z. c #1678B9",
"A. c #216DA4",
"S. c #2572A5",
"D. c #2A74A7",
"F. c #2176AE",
"G. c #2475AA",
"H. c #2A77A8",
"J. c #257AAD",
"K. c #2277B5",
"L. c #2276B0",
"P. c #2179B1",
"I. c #267AB3",
"U. c #257DB2",
"Y. c #267EB6",
"T. c #2278B3",
"R. c #2F78B3",
"E. c #297BB5",
"W. c #257DBA",
"Q. c #297EB9",
/* pixels */
"                                                            ",
"                                                            ",
"                                                            ",
"                                                            ",
"                                                            ",
"                                                            ",
"                  % 0 f V C g 0 *                           ",
"            @ * S *.3.y.c.m.p.4.>.D q                       ",
"          i E 4.p.:.f.r. .F S F X.4.1.A 0                   ",
"      w Z g.B.W 0 9 %.} :.4.4.4.o.J W a.0.l                 ",
"      <.n.,.d > j K ..r.b.m.c.V.C.U.w.Q <.S.l               ",
"    S m.>.9     < E =.y.n.Z.m.f.m.T.Q.J.R &.A.K             ",
"  5 ;.g.0       K O.-.x.n.B.B.N.v.j.N.j.j.F :.S.L           ",
"  m t.R         V @.i.f.k.N.P.k.d.y.y.u.x.t.D A.7.          ",
"  N u.q       7 X.| t.v.v.c.c.c.f.u.u.y.y.x.&.o.D.U         ",
"  N ;.8       d ,...f.c.b.u.u.c.f.m.m.z.l.p.t.J S.7.        ",
"  s i.q       h 3...f.c.d.y.f.M.J.I.I.M.j.j.c.>.9.A.x       ",
"  # }  .6     f 3.+.j.d.t.d.j.T.K.W.Q.Y.B.k.j.a.6.H.Y       ",
"    8 :.O.V v P e.o.3.f.d.d.n.M.T.I.Y.Y.J.T.M.a.T G.x       ",
"      5 %.h.>.+.r...&.c.d.x.z.k.F.F.J.R.Y.Y.B.9.T q.u       ",
"        q J :.r.y.-.N i.l.r.p.k.N.j.k.K.J.E.V.o.6.W :       ",
"              n  .y...g -.z.V.m.j.s.c.m.B.J.*.K 6.j =       ",
"                b e.c.%.M B 5.2.p.s.p.a.>.I l $.Y ( !       ",
"                  C g.v.S.o.N r s 0 w w d L W c ( _ 4 -     ",
"                    m o.<.k.k.G.q.9.q.9.6.U t 1 _ 4 O O     ",
"                      $ & d C G G R U k y       ; O X o     ",
"                                                  o o o     ",
"                                                    X o     ",
"                                                    X X     ",
"                                                    X .     ",
"                                                    O .     ",
"                                                    O + 1   ",
"                                                    4 ( (   ",
"                                                  4 ! ! ~   ",
"                                                4 ! ' ] `   ",
"                                                  ^ [ { 3   ",
"                                                  ( ` _ /   ",
"                                                  3 ( _ ~   ",
"                                                    1 1     ",
"                                                            "
};
