/* XPM */
static char *d7f47ea63f77409fdd6d86d1518c5825gZ3chq8OOwtgNYKh[] = {
/* columns rows colors chars-per-pixel */
"42 56 217 2 ",
"   c None",
".  c #110E06",
"X  c #120F08",
"o  c #121107",
"O  c #16140B",
"+  c #19160D",
"@  c #18180E",
"#  c #1D1A11",
"$  c #1B1B1C",
"%  c #211F16",
"&  c #27251C",
"*  c #29261D",
"=  c #0D222A",
"-  c #0E2124",
";  c #152326",
":  c #14252C",
">  c #1E2A2A",
",  c #1D2327",
"<  c #0E2C3A",
"1  c #0D2937",
"2  c #132B35",
"3  c #1A2D33",
"4  c #162D3A",
"5  c #13303B",
"6  c #1A323D",
"7  c #173134",
"8  c #2D2A22",
"9  c #2C2D2D",
"0  c #372F2B",
"q  c #35332B",
"w  c #353427",
"e  c #252D32",
"r  c #242C39",
"t  c #293539",
"y  c #283639",
"u  c #3C3B32",
"i  c #373837",
"p  c #43433C",
"a  c #49483F",
"s  c #45443A",
"d  c #0E3546",
"f  c #143244",
"g  c #1B3442",
"h  c #12364D",
"j  c #133A4D",
"k  c #1D3A4C",
"l  c #1A3B44",
"z  c #133C56",
"x  c #1B3D53",
"c  c #133A57",
"v  c #223545",
"b  c #233A44",
"n  c #223B4C",
"m  c #2A3F4A",
"M  c #303F42",
"N  c #233E52",
"B  c #10404A",
"V  c #0E4257",
"C  c #164153",
"Z  c #1D4254",
"A  c #15435B",
"S  c #1C435C",
"D  c #1E485F",
"F  c #28424C",
"G  c #324245",
"H  c #32424F",
"J  c #264858",
"K  c #304655",
"L  c #0D4A69",
"P  c #0D4767",
"I  c #134562",
"U  c #1A4662",
"Y  c #144965",
"T  c #1E4C64",
"R  c #1B4C6B",
"E  c #16486C",
"W  c #1D516D",
"Q  c #16516E",
"!  c #0B4D76",
"~  c #144D73",
"^  c #134F7A",
"/  c #0B527C",
"(  c #145176",
")  c #1D5374",
"_  c #1D5977",
"`  c #15547C",
"'  c #1A557A",
"]  c #1D5B7C",
"[  c #13597C",
"{  c #254D63",
"}  c #284F68",
"|  c #354D62",
" . c #24536D",
".. c #295066",
"X. c #36546B",
"o. c #235574",
"O. c #295674",
"+. c #225A73",
"@. c #255A7E",
"#. c #2C5C7C",
"$. c #255677",
"%. c #325E7B",
"&. c #33637E",
"*. c #4B4A43",
"=. c #424741",
"-. c #524E46",
";. c #54544A",
":. c #58564C",
">. c #5D5D54",
",. c #5A5C59",
"<. c #665447",
"1. c #605D55",
"2. c #5C6057",
"3. c #66665E",
"4. c #65645A",
"5. c #6C6C63",
"6. c #616560",
"7. c #716D65",
"8. c #75756B",
"9. c #7C7C74",
"0. c #83837A",
"q. c #0B5482",
"w. c #0D5A86",
"e. c #0B5A8D",
"r. c #065288",
"t. c #155A82",
"y. c #1B5C84",
"u. c #155C8A",
"i. c #1B5D8A",
"p. c #185583",
"a. c #055F96",
"s. c #165E92",
"d. c #225B82",
"f. c #245680",
"g. c #15628F",
"h. c #1A638C",
"j. c #146387",
"k. c #0C6396",
"l. c #0B639C",
"z. c #0A6498",
"x. c #1B6493",
"c. c #1C6996",
"v. c #14679E",
"b. c #1A659A",
"n. c #166D9E",
"m. c #1A6A9B",
"M. c #166894",
"N. c #0C719F",
"B. c #266385",
"V. c #2A6183",
"C. c #24638C",
"Z. c #2C668D",
"A. c #2A698F",
"S. c #346789",
"D. c #256A96",
"F. c #2D6A92",
"G. c #236C9A",
"H. c #2A6E9B",
"J. c #2B6690",
"K. c #367499",
"L. c #277499",
"P. c #066BA6",
"I. c #0C6AA4",
"U. c #036CAC",
"Y. c #0B6DAC",
"T. c #136CA2",
"R. c #1B6DA2",
"E. c #116EAC",
"W. c #0B71A5",
"Q. c #0471AD",
"!. c #0C71AD",
"~. c #0D78AC",
"^. c #1274A3",
"/. c #1B73A5",
"(. c #1474AC",
"). c #1B75AC",
"_. c #1379AF",
"`. c #1D79AE",
"'. c #046CB3",
"]. c #0C6EB1",
"[. c #026EB8",
"{. c #096AB6",
"}. c #116FB2",
"|. c #0472B3",
" X c #0C73B3",
".X c #0473BA",
"XX c #0B74BB",
"oX c #0A7ABA",
"OX c #0879B6",
"+X c #1374B3",
"@X c #1B75B3",
"#X c #1579B3",
"$X c #1E7BB5",
"%X c #1674B9",
"&X c #1B76B9",
"*X c #1379BB",
"=X c #1C7AB9",
"-X c #226BA1",
";X c #2272A4",
":X c #2274AC",
">X c #2976AD",
",X c #237BAD",
"<X c #2B79AD",
"1X c #2D77A5",
"2X c #307AAC",
"3X c #2276B3",
"4X c #247BB3",
"5X c #297CB4",
"6X c #237BB9",
"7X c #2A7EB9",
"8X c #2877B9",
"9X c #347BB5",
"0X c #0F7EC0",
"qX c #2581B6",
"wX c #2880B8",
"eX c #8F8F85",
"rX c #908F87",
/* pixels */
"                                                                                    ",
"                                                                                    ",
"                                                                                    ",
"                                                                                    ",
"                                                                                    ",
"                                                                                    ",
"                                                                                    ",
"                                                                                    ",
"                            > 2 < < 5 2 : :                                         ",
"                      - 7 6 J Q ` t.h.d.) S C g 4                                   ",
"                  ; e A y.c.^.!.|..XXX+X+X)./.b.) h 4                               ",
"              , r T h. X*X!.|..X Xv.u.[ ( y.M.).).I.^ k 3                           ",
"            5 +.G.$X`.C.T ( n.z.q.! ` ' ' ~ P L ` D./.M. .v                         ",
"          T ] W.qX@Xo.e > f B./ e.n./.;X/.).H.Z.) W ] (.@Xf.n                       ",
"        @.)..X(.t.k y G G { ` k.|..X+X!. XXX%X@X4XK.X.o./.$XJ.v                     ",
"      A b..XE.$.4 $   p F ] e.P.U.XX*X X X X+X*X6XwX9XS. .h.$XJ.m                   ",
"    5 j.OX(. .<       i | y.a.Y.'. X&X&X(.~.~.).3X6X*X$XJ.U g.#XJ.N                 ",
"    V W.oX@.4         l @.q.k.U..X+X&XqXqX+XXX(.(._./.(. Xc.E b.=XD.J               ",
"  7 ( OXR.n           h x.r.T.Y. X)._.&X4X`. XQ.Q. XI.Y.|. Xi.U -X=Xo.y             ",
"  4 t.|.] >           I D.r.T.!.#X`._.~.).).W.U.U.U.[.U.P..X~.) $.3XH.F             ",
"  : j. XL :         5 [ h./ T.!.oXoX XY.!. X!.Q.Y.].Y.P.U.|.|.n.~ D.>X .            ",
"  2 t.!.V :         6 b.g.w.!.Q.!.XX].P.'.|.!.].}.+XE.'.'.W.I.Y.u.@.5XH.J           ",
"  4 [ #Xz ,         l T.s.u.!.Q. X.XY.I. X+X(.).3X3X@X}.!.).(.'.n._ ;X:X{           ",
"    I !./ 2         B N.u.y.(.|.!.Q.|.Q.~.$X,X5X5X4X5X3X(.@X(.Q./.d.D.6X%.          ",
"    f w.I.P         C W.x.d.(.|.Y.W.Q.Q.(.:X3X6X6XwX7XwX$X$X(.(.@Xd.Z.4XS.M         ",
"      j v.v.~       K l.R.p./.Y. X!.W.U.+X@X@X$X6X6XwX4X,X,X@X@X&Xd.O.6X#.M         ",
"      = A h.v.j. .X.| a.v.~ M.]. XP.Q..XXX+X).>X>X,X5X7X5X5X@X@X,X#.O.$XO.t         ",
"          j h.$XR.b.s.P.I.~ [ ~.|.I.U.|.E.@X`.:X3X,X1X9X7XwX4X#X).O.d.)...q         ",
"            A _ c.Y.].U.'.s.A x.XX'.I.I.T.;X_.#X+X@X:X3X,X2X8X*X/.R A.D.n           ",
"                A L / z.U.P.Q k b.{.[.U.%X)._.(.^.+X+X@X`.4X&X`.$.S K...e           ",
"                      L z.[.T.T j p.I.].%X+X(.}.}.]. X X@XqXL.+.x #.S.G q 9         ",
"                        ^ {.[.^._ N x o.J.-X/.+X%X+X(.).L.B.Z f @.S.K 2.,.i         ",
"                        c i.+X|.(.F. .z h h z A U D S z j f U S.%.H ,.5.2.=.w       ",
"                          z x.^.#X*X#X;XC.' { F j C c R O.S.S.( y <.5.2.p 8 &       ",
"                            j U @.c./.).@X=X6X$X`.4X5X1XF.} N e 0 *.3.*.% @ #       ",
"                              = 2 4 x R @.h.h.d.B.#.| F b 3       q u & O o O       ",
"                                      2 4 6 6 g g 6                   # O O O %     ",
"                                                                        O + + #     ",
"                                                                        O O + +     ",
"                                                                        O O + %     ",
"                                                                        # . o #     ",
"                                                                        & . . +     ",
"                                                                        8 X o +     ",
"                                                                        * . O *     ",
"                                                                        & % 8 =.    ",
"                                                                        p :.3.5.;.  ",
"                                                                        =.-.*.a a   ",
"                                                                      s *.*.*.4.4.  ",
"                                                                    *.*.3.9.0.7.>.  ",
"                                                                    q *.7.rXeXa u   ",
"                                                                      1.3.0.8.*.s   ",
"                                                                      -.3.:.:.5.;.  ",
"                                                                        -.3.7.4.    ",
"                                                                        q -.a u     ",
"                                                                                    ",
"                                                                                    "
};
