/* XPM */
static char *_b801cb77de74748a22b03a9dc499f1budf6pLuJioCqrYAK[] = {
/* columns rows colors chars-per-pixel */
"64 64 229 2 ",
"   c None",
".  c #0E0C04",
"X  c #070400",
"o  c #110E05",
"O  c #09130E",
"+  c #121107",
"@  c #15130A",
"#  c #18150D",
"$  c #19180E",
"%  c #0A1618",
"&  c #1D1B12",
"*  c #141819",
"=  c #201D15",
"-  c #25231B",
";  c #28251C",
":  c #081D27",
">  c #141D23",
",  c #071F37",
"<  c #201A26",
"1  c #0C2428",
"2  c #142324",
"3  c #14242A",
"4  c #1C242C",
"5  c #1B2929",
"6  c #0B2433",
"7  c #0D2B3B",
"8  c #072737",
"9  c #122A34",
"0  c #1B2C32",
"q  c #172B38",
"w  c #14323C",
"e  c #1C323A",
"r  c #1D3535",
"t  c #08323C",
"y  c #2C2C23",
"u  c #262827",
"i  c #312D26",
"p  c #343227",
"a  c #35342C",
"s  c #39352E",
"d  c #222D36",
"f  c #243235",
"g  c #29343D",
"h  c #263539",
"j  c #3B3A33",
"k  c #353838",
"l  c #473F37",
"z  c #603C24",
"x  c #424037",
"c  c #44423A",
"v  c #49473E",
"b  c #052B46",
"n  c #0B3649",
"m  c #133344",
"M  c #1B3442",
"N  c #113549",
"B  c #133A4C",
"V  c #1A3B4C",
"C  c #1C3945",
"Z  c #063A57",
"A  c #143B52",
"S  c #1B3D5C",
"D  c #173B53",
"F  c #2A3B43",
"G  c #223C4A",
"H  c #243644",
"J  c #253D53",
"K  c #343E41",
"L  c #013963",
"P  c #0F3F63",
"I  c #153F61",
"U  c #0A415D",
"Y  c #1B455B",
"T  c #1F4A5D",
"R  c #164458",
"E  c #184048",
"W  c #384143",
"Q  c #284554",
"!  c #314B58",
"~  c #094568",
"^  c #1C4B64",
"/  c #1C4C6A",
"(  c #174767",
")  c #1D526B",
"_  c #024472",
"`  c #054B78",
"'  c #164D72",
"]  c #0C527C",
"[  c #0D5579",
"{  c #1A5373",
"}  c #18567B",
"|  c #254963",
" . c #28526B",
".. c #225574",
"X. c #255A7A",
"o. c #295B79",
"O. c #345D77",
"+. c #325266",
"@. c #28617E",
"#. c #3A637A",
"$. c #4C4C44",
"%. c #454842",
"&. c #514E46",
"*. c #55544B",
"=. c #5D5C53",
"-. c #565955",
";. c #47555F",
":. c #586159",
">. c #64655C",
",. c #636459",
"<. c #706A5E",
"1. c #6D6C64",
"2. c #656A68",
"3. c #74746B",
"4. c #7A796F",
"5. c #7A7972",
"6. c #706D64",
"7. c #555658",
"8. c #81766D",
"9. c #85857C",
"0. c #044B81",
"q. c #055789",
"w. c #185986",
"e. c #275D86",
"r. c #196489",
"t. c #0C669C",
"y. c #0B6699",
"u. c #1B6B9B",
"i. c #176899",
"p. c #1E719D",
"a. c #0A6A92",
"s. c #23648D",
"d. c #2B658A",
"f. c #2C6A8B",
"g. c #276586",
"h. c #366B8B",
"j. c #236593",
"k. c #246A94",
"l. c #2D6C94",
"z. c #226D9B",
"x. c #2A6A96",
"c. c #356D95",
"v. c #25749E",
"b. c #2C739E",
"n. c #2A789C",
"m. c #36759A",
"M. c #2B738C",
"N. c #0C66A5",
"B. c #026BA6",
"V. c #0C6CA4",
"C. c #036CAC",
"Z. c #0B6DAB",
"A. c #0266A5",
"S. c #146EA5",
"D. c #1A6DA4",
"F. c #126CAA",
"G. c #1A6DAC",
"H. c #0371AC",
"J. c #0C73AC",
"K. c #0975A9",
"L. c #1473A4",
"P. c #1D72A3",
"I. c #1373AC",
"U. c #1C74AC",
"Y. c #1E7AAC",
"T. c #137AAB",
"R. c #026DB3",
"E. c #0A6EB2",
"W. c #016DBB",
"Q. c #0969B6",
"!. c #156EB3",
"~. c #0273B3",
"^. c #0B73B3",
"/. c #037CB4",
"(. c #0E7AB2",
"). c #0273BC",
"_. c #0C75BA",
"`. c #047CBB",
"'. c #0B79BB",
"]. c #1373B2",
"[. c #1B74B3",
"{. c #147AB4",
"}. c #1B7AB3",
"|. c #1275BB",
" X c #1B75BA",
".X c #137ABC",
"XX c #1B7BBA",
"oX c #256DA2",
"OX c #2474A3",
"+X c #2B74A3",
"@X c #2579A4",
"#X c #2B79A3",
"$X c #2376AB",
"%X c #2B75AC",
"&X c #247AAC",
"*X c #2B7AAC",
"=X c #3475A4",
"-X c #347AA4",
";X c #3B7AA4",
":X c #367AAB",
">X c #2375B4",
",X c #2A76B4",
"<X c #247CB3",
"1X c #2B7CB4",
"2X c #237DBA",
"3X c #297DBC",
"4X c #2377B9",
"5X c #347AB4",
"6X c #477495",
"7X c #447DA5",
"8X c #0275C2",
"9X c #047AC3",
"0X c #0975C4",
"qX c #187BC1",
"wX c #006FC2",
"eX c #297BC4",
"rX c #1B81B6",
"tX c #1481AF",
"yX c #2482B5",
"uX c #2781BA",
"iX c #3583B4",
"pX c #3E83AC",
"aX c #79828B",
"sX c #4288B9",
"dX c #1681C2",
"fX c #2D84C1",
"gX c #94948A",
"hX c #C3C3BB",
"jX c #D1D1C7",
/* pixels */
"                                      u u 9 9 7 7 m m w 9 9 3 2 >                                                               ",
"                                % 2 0 0 V T ) } w.s.f.f.o.| R m C r 0 3                                                         ",
"                            @ > n B  .g.k.p.Z.Z.C.^.^.].U.U.+XOXs.{ Y D 9                                                       ",
"                        * 4 e a y.&XT.I.~.~.R.).8X8X9X9X'.'.'.'.'..X$X} V D 9                                                   ",
"                    # u 4 ( u.T.8X9X~.B.'.).).~.&Xj.X...^ ^ ..d.p.P.rX'.0XN.D C u                                               ",
"                  1 R +.=X1XI.L.*Xj.s.z.y.J.L.y._ L Z L ~ Z Z Z U ' s.OXP.F.OX{ ( M                                             ",
"              % C E M.rX0X0XfXn.Q 9 : n n.v._ L [ r.-Xb.b.-X#Xk.) U b U o.v.{.|.D.| J >                                         ",
"            7 ....p.K.`.dX3Xg.6 O y 5 7 h.` ` i.I.S.P.OXD.Z.F.4Xm.-Xf...U T r.XXqX,X/ Q 3                                       ",
"          6 e.+X|.R.H.&Xl.V M k %.:.1 #.{ 0.D.C.R.~.].I.^._._._.[.].}.iX6X+.M ..,XqXuXc.q d                                     ",
"          | x.|.wX).&X .* 4 =   -.H T f._ D.B.W.8X_.|.^.E.R.E.{.|.qX_.uXiX7X6XJ ( z..X2Xc.F d                                   ",
"        n ) G.).R.@X^ D %       c 2 #.w.0.J.B.C.^.'..X'.].!.J.(.J.|. X<X4XfXiXsXT B k.dXrXm.F d                                 ",
"      1 } P.~.^.#XR m %         k h 6X0.q.V.C.C.^.]. XXX XI.J.I.(.U.$X$X3XqX'.2Xm.| n u.^.[.c.M q                               ",
"      n r./.`.<X .V O           g +.c._ a.t.C.).~.].[.3X}.}.K.^.'.Y.Y.U.}.}.U.J.^.+X/ n D.|.[.+X .6                             ",
"    2 n L.~.'.l.> %           3 m X.D.` i.S.R.)._.[.[.XXyXyXY.'.8XZ.K.(.(.u.u.I.9XR.OX^ ( %XXX.Xg.Q                             ",
"    9 ) {.~.$XQ 4             9 8 x.y.0.D.Z.~.^.U.$XT.{.<X5X&XJ.^.H.H.~.~.Z.S.Z.~.W.^.k.n  .*X0X:XV f                           ",
"    w } ~.^.d.M %             9 Z =Xq.0.D.Z.J.}.P.&X(.^.].%X$XI.B.H.C.B.C.R.W.B.V.C.).'.g.b d.>X2Xh.Q                           ",
"    3 r.).J.) 2               9 ] +X[ ` L.V.].{.].{.].J.I.J.I.].B.C.C.Z.C.R.W.A.t.B.9X).OX/ I =XXX-XG h                         ",
"    2 k.).^.U 2               e t.v._ ] L.Z.^.^.tX`.!.F.J.~.).E.K.Z.C.J.!.Z.N.C.B.C.~.H.Z.OXL e.2X5Xg.E                         ",
"    3 r.H.J.Z 5               M ].@X~ r.I.H.^.^.8X).Q.N.J.~.~.E.^.H.J.].].F.N.C.~.~.V.t.J.V.w.A 1X3X:X/                         ",
"    w g.J.L.b 5               V ].+X_ i.H.~.K.J.~._.E.B.Z.Q.E.K.^.U.[.[.XX[.^.W.~.].OXD.A.].x.B oX2XuX/ G                       ",
"    6 ' rXT.b u               R 9X$XL j.F.R.Z._.).).K.t.V.'..XG.tX@X,X1XY.Y.[.G.I.L.U.].W.W.L.w.X.&XqXd.Q                       ",
"    > A ^.H.' 6             1 R /.oXP j.T.~.^.Z.J.~.~.C.H.(.}.,X@X1X1X1XyX1X,X4XI.I.U.].~.H.@Xj./ $X4X:X|                       ",
"      A w.).S.U 1           9 R /.OX' e.U.~.`.V.i.V.~.C.K.L.U.,X,X4X4XuX3X1X1X3X}.}.U.T.K.Z.Y.+X^ b.}.sX! W                     ",
"      1 7 D.E.q.~           F ~ /.U.} w.Y.^.~.Z.S.S.K.K.K.Y.D.,X4XXXXX2X3X3XuXyX&X1XU.U.I.U.G.>XJ c.T.iX+.W                     ",
"        9 R [.|.[ ( 7       ;.M ).[.w.' OXI.Z.^./.K.K.N.^. X[.4X}.<X}.<X2XrXuXrX@X*X&X[.[. X X Xg d.XX1X| k                     ",
"        O C ^ U.U.i.} R Q ;.aXd W.Z.s.~ u.I.E.^.H.H.H.R.E.0X!.].&X$X%X,X1X1XuX1X1X1X<X X X4X>X$Xf d..X1XQ k                     ",
"          O m B i.{.{.n./ ( S S R.N.j.L r.L.R.J.V.B.~.8X).'.].].$X%X%X%X#X*X5X5X3XyXyX}. X{.OXx.k d.qX@XE a                     ",
"              9 N OX{.(.[.4XG.D.H.A.z.~ ~ @X~.).J.V.B.~.C.S.$XT.U.>X>X}.Y.%X,X5X<XyXiX1XXXJ.P.x.H x.XXj.F p                     ",
"                7 ^ { n.Y..X).C.B.R.Z.e.b X. X8XwXN.N.t.i.oXOXU.tX{.^.^.U.$X,X4XyX#X:X,X.X_.Y.w.D :X1X( g                       ",
"                    N R ' q.y.F.A.R.W.u.Y n d.!.W.W.C.N.N.G.U.Y./.(.J.I.].[.[.}.&X@X5XeX|.'.k.D { :Xm.7 k                       ",
"                        m A U ` q.C.C.C.f.E 6 e.!.W.W.W.W..X].T.U.U.L.S.F.].|.|.Y.yX<X]. X@X| q s.m.+.5 a                       ",
"                                ~ r.C.W.Z.f.w 9 { t.^.W.E.|.].^.G.[.F.I.^.^.^.].].}.yX@XM.| m ! ;X#.F k u u                     ",
"                                7 ` Q.wXW.t.M.R b V ..c.-X-XG.!.!.|.|.E.W.^.^.].U.$X-XO.w 7 ( =Xh.C $.=.%.k &                   ",
"                                  S w.Q.W.).T.v.O.H 3 m Q e.j.z.L.}.[.[.U.P.oXoXx.g.Q 6 , | ;XoXG W 3.3.2.W a                   ",
"                                  , ( e.XX~.tXH.#Xc.o.B 8 b b b n A R ( T D D N 8 8 : S c.m.#.M c 3.2.:.2.v p                   ",
"                                    6 { u.tXH./..X'.{.#Xh. .J h y - # $ & * < u e ! h.:X1Xr.r z 3.<.:.:.x i i                   ",
"                                      7 ' X.+X>X|.|._._..XXX}.<X@XP.t.V.^.^..XXXeXiX7X .q * i =.6.6.>.c ; & & &                 ",
"                                        8 N B ..d.b.*X$XU.[.}. XU.Y.<X<XiXiX-XpXh.| m G g i l l *.4.&.& + @ @ -                 ",
"                                          % 1 9 1 w Y ..e.k.#X*X&X%X+Xc.h.#.Q h G h 0         ; x a i @ $ . . =                 ",
"                                                2 5 3 9 n w N m b N N A V e h f u               y u - @ # + $ =                 ",
"                                                        3 5 f h h F g d                             & . & & o # &               ",
"                                                                                                      @ o # $ # -               ",
"                                                                                                      # + @ & @ &               ",
"                                                                                                        @ # = o &               ",
"                                                                                                        @ o & # -               ",
"                                                                                                        & o + # -               ",
"                                                                                                        = X + o &               ",
"                                                                                                        y X o o $               ",
"                                                                                                        p X @ o &               ",
"                                                                                                        i X + + ;               ",
"                                                                                                        ; o o # j               ",
"                                                                                                        ; + = ; v j             ",
"                                                                                                      a p %.$.>.3.*.            ",
"                                                                                                      $.*.1.2.4.5.$.            ",
"                                                                                                      $.a $.&.j y x             ",
"                                                                                                    $.v c j ; $.,.,.            ",
"                                                                                                  &.l p 5.=.5.:.9.,.            ",
"                                                                                                $.$.-.&.9.>.hX=.3.:.            ",
"                                                                                                  s ; 1.4.1.jX*.=.v             ",
"                                                                                                    &.3.=.gXjXj y y             ",
"                                                                                                    =.1.6.>.gXx 1.&.            ",
"                                                                                                    &.&.5.l j >.4.&.            ",
"                                                                                                      v 6.6.,.4.1.$.            ",
"                                                                                                      a x 3.4.,.*.p             ",
};
