/* XPM */
static char *e238585e35f740e181eab99a1e7cf3a2LxDdWKsaNeBsn4C5[] = {
/* columns rows colors chars-per-pixel */
"37 54 176 2 ",
"   c None",
".  c #1D0C06",
"X  c #161008",
"o  c #19130C",
"O  c #1D1910",
"+  c #24140A",
"@  c #2B160B",
"#  c #2C180E",
"$  c #321A0D",
"%  c #3C1B0E",
"&  c #381609",
"*  c #251C11",
"=  c #311C11",
"-  c #3B1E11",
";  c #252015",
":  c #2C251C",
">  c #2F2A1F",
",  c #3E2719",
"<  c #3D2B1D",
"1  c #3A2416",
"2  c #2D2720",
"3  c #272A26",
"4  c #2E2A22",
"5  c #312A21",
"6  c #3F3025",
"7  c #37312B",
"8  c #3D362D",
"9  c #3E382E",
"0  c #3F3931",
"q  c #4C1F0E",
"w  c #431E0E",
"e  c #411F11",
"r  c #4F210F",
"t  c #432213",
"y  c #4D2313",
"u  c #4A2817",
"i  c #422718",
"p  c #4B2719",
"a  c #432A1B",
"s  c #4B2C1B",
"d  c #552715",
"f  c #5A2814",
"g  c #562D1B",
"h  c #52301F",
"j  c #5C311E",
"k  c #63250E",
"l  c #6A240C",
"z  c #772B0E",
"x  c #7A2D0F",
"c  c #642B14",
"v  c #6B2D15",
"b  c #6F2F18",
"n  c #612E1A",
"m  c #732D12",
"M  c #63311D",
"N  c #6B321C",
"B  c #743117",
"V  c #7A3217",
"C  c #73331B",
"Z  c #7B351C",
"A  c #483428",
"S  c #4F3524",
"D  c #553322",
"F  c #5A3524",
"G  c #5B3B2B",
"H  c #563B2B",
"J  c #433C32",
"K  c #573C30",
"L  c #5C3F30",
"P  c #663520",
"I  c #6F3B26",
"U  c #623C2C",
"Y  c #6C3C29",
"T  c #713720",
"R  c #723A23",
"E  c #7B3C24",
"W  c #703F2C",
"Q  c #3D413A",
"!  c #4A443A",
"~  c #4F493F",
"^  c #5B4233",
"/  c #54493D",
"(  c #5D493B",
")  c #64402E",
"_  c #6C412E",
"`  c #604131",
"'  c #6B4633",
"]  c #64493B",
"[  c #6C4C3C",
"{  c #794430",
"}  c #704F3E",
"|  c #784C38",
" . c #714431",
".. c #4D4840",
"X. c #534C41",
"o. c #5C4E42",
"O. c #4F524A",
"+. c #5B554B",
"@. c #5B5B52",
"#. c #6D4F41",
"$. c #655245",
"%. c #6B5343",
"&. c #68564A",
"*. c #60594E",
"=. c #6D5C4E",
"-. c #785241",
";. c #755E4F",
":. c #795F4F",
">. c #635D54",
",. c #695D50",
"<. c #785F50",
"1. c #676155",
"2. c #6A6259",
"3. c #6F695D",
"4. c #766254",
"5. c #74675B",
"6. c #736A5D",
"7. c #7B695A",
"8. c #7C6556",
"9. c #756E63",
"0. c #727167",
"q. c #7A7266",
"w. c #747469",
"e. c #7C766A",
"r. c #7D796D",
"t. c #80361B",
"y. c #82391E",
"u. c #843C22",
"i. c #826757",
"p. c #827567",
"a. c #8A7667",
"s. c #827A6E",
"d. c #917C6D",
"f. c #847D71",
"g. c #878074",
"h. c #8A8377",
"j. c #8D867A",
"k. c #8E897D",
"l. c #908476",
"z. c #918A7D",
"x. c #988C7E",
"c. c #8E8D80",
"v. c #958E82",
"b. c #969185",
"n. c #999285",
"m. c #9C9689",
"M. c #9F9A8D",
"N. c #A19283",
"B. c #A29B8E",
"V. c #A19D90",
"C. c #A6A194",
"Z. c #AAA396",
"A. c #ACA699",
"S. c #AEA99C",
"D. c #B2AB9D",
"F. c #B4AEA1",
"G. c #B7B2A5",
"H. c #BBB4A6",
"J. c #BBB6A9",
"K. c #BFB9AB",
"L. c #C2BCAD",
"P. c #C3BFB2",
"I. c #C6C1B4",
"U. c #C9C4B6",
"Y. c #CBC4B5",
"T. c #CFC8B7",
"R. c #CCC7BA",
"E. c #CEC7B8",
"W. c #CDC8BB",
"Q. c #CEC9BA",
"!. c #D0CBBC",
"~. c #D0CCBF",
"^. c #D1CBBC",
"/. c #D4D0BF",
"(. c #D3CEC1",
"). c #D8D3C4",
/* pixels */
"                                                                          ",
"                                                                          ",
"                                                                          ",
"                                                                          ",
"                                                                          ",
"                                                                          ",
"                                                                          ",
"                                                                          ",
"                                                                          ",
"                                                                          ",
"                                                                          ",
"                                                                          ",
"                        s                   % e                           ",
"                      < F a                 p -                           ",
"                      a 4.S               - K K #                         ",
"                      s N.%.1             t p.#.$                         ",
"                      D m.7.u t u u i i $ p j.#.%                         ",
"                      j _ j ` ' C C C j G v T j -                         ",
"                      M Z %.F.D.) ' P p.G.%.m V t                         ",
"                    , { ' C.G.K.=.l.%.A.G.B.j V d                         ",
"                    S E 7.M.O.w.e.M.3.0.@.Z.=.C c                         ",
"                    j I M.k.3 @.v.A.r.1.Q V.v.M v #                       ",
"                    M } P.F.w.M.M.G.v.S.c.K.G.K C %                       ",
"                  u _ a.~.Q.U.I.G.I.G.R.U.R.I.$.B y                       ",
"                  F E d.~.^.R.Y.F.F.P.R.W.W.R.&.B c                       ",
"                  P Z i.R.R.L.A.W Y 8.K.V.W.F.U v r #                     ",
"                  , N W Z.^.C.Z.{ b <.A.V.U.>.e q *                       ",
"                    p d ] Z.G.M.v.<.A.v.V.7.g -                           ",
"                    p Z b Y :.p.k.V.k.9.[ C t.f                           ",
"                    M u.u.u.Z T ' -.| T u.y.z v                           ",
"                    T T n u.u.y.t.t.y.y.u.N F b e                         ",
"                  1 T K o.n u.y.u.u.y.y.C ( z.M y           O             ",
"                  s M f.J.o.h Z u.u.Z N G M.J.G y           o ! ~         ",
"                  i ^ H.Q.K.s./ G G ] 5.Z.Q.I.#.y           . A j.!       ",
"                  = 5.Q.Q.(.(.U.G.J.I.Q.(.(.R.4.y             % e.b.:     ",
"                  ; b.~.(.~.I.(.(.(.(.I.W.(.(.p.t             y ( J.X.    ",
"              s s 4 S.Q.~.I.C.(.(.(.).S.P.(.(.n.= w v y     # k D D.r.X   ",
"            < C n J I.^.(.K.Z.(.(.(.).Z.L.(.^.S.5 K b c +   w z h Z.n.O   ",
"            h R %.9.Q.^.(.G.S.(.^.^.).A.H.(.^.L.! A.;.k + w l z s A.B.;   ",
"            h a.J.j.R.^.(.S.J.(.^.^.^.V.H.^.T.Y.>.K.A.g % m x l A H.m.;   ",
"            ( I.Y.j.Y.^.^.A.L.^.^.^.^.B.L.^.T.Y.e.H.R.$.& z z q q.T.s.;   ",
"          * p.^.Y.v.Y.^.^.B.L.^.^.T.^.B.L.T.T.Y.e.H.^.p.+ k r ,.L.I.+.    ",
"          : B.T.Y.m.Y.^.^.v.L.T.^.^.Q.B.H.Y.Y.Y.q.K.Q.n.; %.j.L.T.b.>     ",
"          8 Z.Y.Q.v.M.m.B.e.L.T.^.T.T.z.s.z.h.h.>.K.K.n...L.^.I.b.9       ",
"          *.j.n.l.h.A.H.D.6.m.T.T.^.D.s.D.L.L.D.*.q.n.h.+.b.k.+.>         ",
"          G.T.Y.z.Z.^.T.T.Z.6.Y.T.Q.n.A.T.Y.Y.T.z.3.Y.Y.v.2               ",
"        e.Z.K.D.j.x.D.L.D.D.6.Y.T.Q.z.Z.Z.P.L.A.B.>.Z.D.f.9               ",
"        9.f.k.s.3.9.s.Z.j.g.2.A.A.A.e.l.x.B.A.j.e.*.q.9./ 5               ",
"            X.! 8 2 7 ..0 5           X.+.>.>.J                           ",
"                                                                          ",
"                                                                          ",
"                                                                          ",
"                                                                          ",
"                                                                          "
};
