/* XPM */
static char *f8d122ce895e438f8d9f6ecbefed3c5aggZ0iW8eTjOYxMGD[] = {
/* columns rows colors chars-per-pixel */
"48 63 170 2 ",
"   c None",
".  c #060603",
"X  c #080702",
"o  c #070804",
"O  c #0B0A05",
"+  c #0E0E09",
"@  c #110D07",
"#  c #100F09",
"$  c #1A0D08",
"%  c #0F100A",
"&  c #121007",
"*  c #14130C",
"=  c #1C180F",
"-  c #161511",
";  c #181611",
":  c #1B1A14",
">  c #2C0B08",
",  c #3D0E0A",
"<  c #221C13",
"1  c #221F18",
"2  c #2A1D15",
"3  c #272116",
"4  c #24221C",
"5  c #2A231C",
"6  c #37211A",
"7  c #2D2B24",
"8  c #3D2821",
"9  c #332B21",
"0  c #36332C",
"q  c #3B372D",
"w  c #373631",
"e  c #3B3932",
"r  c #530F0E",
"t  c #411411",
"y  c #4C1612",
"u  c #441914",
"i  c #4B1914",
"p  c #431F19",
"a  c #541614",
"s  c #5A1413",
"d  c #5A1817",
"f  c #740F12",
"g  c #7F0F12",
"h  c #631515",
"j  c #6C1415",
"k  c #611817",
"l  c #631918",
"z  c #751416",
"x  c #751619",
"c  c #7B1419",
"v  c #7E1213",
"b  c #423E35",
"n  c #6E2726",
"m  c #762123",
"M  c #673532",
"N  c #45413A",
"B  c #4D453B",
"V  c #4D493E",
"C  c #74403D",
"Z  c #4D4A42",
"A  c #504C45",
"S  c #5C4A42",
"D  c #555147",
"F  c #56534B",
"G  c #59554C",
"H  c #5F584D",
"J  c #5C5B54",
"K  c #654E49",
"L  c #605A4F",
"P  c #635D54",
"I  c #6A5E57",
"U  c #6A645B",
"Y  c #6E695F",
"T  c #66635C",
"R  c #74655A",
"E  c #78685E",
"W  c #6E6B63",
"Q  c #736E65",
"!  c #7D6F65",
"~  c #716F69",
"^  c #767167",
"/  c #7F7166",
"(  c #757169",
")  c #7A756C",
"_  c #7E7A6F",
"`  c #7C7971",
"'  c #8A0E14",
"]  c #821216",
"[  c #891017",
"{  c #87141A",
"}  c #8B1319",
"|  c #84181C",
" . c #931017",
".. c #92131C",
"X. c #981218",
"o. c #951B1F",
"O. c #981E23",
"+. c #961A22",
"@. c #952124",
"#. c #982226",
"$. c #982429",
"%. c #963236",
"&. c #9F3134",
"*. c #9D3A3B",
"=. c #A33C3E",
"-. c #975552",
";. c #A54F4F",
":. c #A45554",
">. c #A75A55",
",. c #89766B",
"<. c #86736D",
"1. c #9B756F",
"2. c #827C73",
"3. c #8D7E75",
"4. c #AE6C69",
"5. c #B16765",
"6. c #B16B68",
"7. c #A4746F",
"8. c #B77B75",
"9. c #868178",
"0. c #8B867C",
"q. c #8D887E",
"w. c #958277",
"e. c #998075",
"r. c #9A857D",
"t. c #B5827E",
"y. c #938E85",
"u. c #988E84",
"i. c #928F88",
"p. c #959087",
"a. c #96938B",
"s. c #9B968C",
"d. c #9F9A90",
"f. c #B48681",
"g. c #B58E88",
"h. c #B78B84",
"j. c #A2988D",
"k. c #BD938C",
"l. c #B5918A",
"z. c #A39D93",
"x. c #A89F95",
"c. c #BA9B94",
"v. c #A5A096",
"b. c #A6A299",
"n. c #ABA69C",
"m. c #ADA99E",
"M. c #B9A49C",
"N. c #AEAAA1",
"B. c #B3AEA3",
"V. c #B9ACA2",
"C. c #B6B1A5",
"Z. c #BAB2A7",
"A. c #B6B2A8",
"S. c #BAB5AB",
"D. c #BDB9AF",
"F. c #BEBBB1",
"G. c #C09E97",
"H. c #C2AEA4",
"J. c #C3B5AB",
"K. c #C0BAAF",
"L. c #C2BDB3",
"P. c #C5C1B6",
"I. c #C9C1B6",
"U. c #C6C2B8",
"Y. c #C8C3B9",
"T. c #C8C3BA",
"R. c #C9C5BA",
"E. c #CBC6BC",
"W. c #CCC6BD",
"Q. c #CFCABF",
/* pixels */
"                                                                                                ",
"                                                                                                ",
"                                                                                                ",
"                                                                                                ",
"                                                                                                ",
"                                                                                                ",
"                                                                                                ",
"                                                                                                ",
"                                                                                                ",
"                                                                                                ",
"                                                                                                ",
"                                                                                                ",
"                                                                                                ",
"                                                                    5   3                       ",
"                                                                  0 V D D                       ",
"                                                                  0.z.s.m.T                     ",
"                                        N U Y               5 q ) Q U j.^ ) 5                   ",
"                                          E w.Y             b 2.P._ q.z.q.z.N                   ",
"                            D P           R e.<.P           _ ,.Z.I.P.R.Q.S.^                   ",
"                            V / Y       = U m.K.z.          s.3.C.Y q v.I.w.Q                   ",
"                            B ,.y.b * * & N K.Q.E.p.      U D.v.b & @ L S.j._                   ",
"                              R ^ 4 & * * N x.Q.E.L.)     ^ Z.P = = $ 6 j.P.^                   ",
"                              q.p.0 e 9 V >.G.I.Y.E.n.    2.L.u.,.,.V B v.S.T                   ",
"                              N.M.-.l.s.7.X.6.W.Y.Y.P.)   0.Y.I.I.J.v.n.I.v.                    ",
"                              N.8. .5.Q.f.+.k.W.U.U.Y.s.Z p.Y.P.P.P.P.I.I.q.                    ",
"                              r.*.O.G.L.;.=.J.W.L.U.U.N.G B.U.L.P.P.P.P.K.Y                     ",
"                              n #.h.S.1.O.8.W.L.Y.U.U.N.9.P.L.P.F.P.P.P.v.                      ",
"                            i g >.I.x.x =.H.L.L.L.U.L.i.n.U.L.L.P.F.P.P._                       ",
"                            z j r.T.g...6.L.L.T.L.L.N.y.F.P.F.L.L.P.F.m.                        ",
"                          j ] u Q M.*.$.V.L.L.L.U.L.0.B.P.F.L.F.L.L.P.9.                        ",
"                        d } k     M } >.L.L.L.F.L.z.i.L.L.L.L.F.F.L.B.L                         ",
"                      i c c       x +.g.L.L.L.L.A.2.S.L.L.L.F.L.F.L.q.                          ",
"                      j { a     h } =.Z.L.L.L.F.a.N.L.L.L.J.F.L.D.a.Z                           ",
"                  2 i { x     i ' } 4.L.J.L.F.F.F.F.F.L.F.L.F.0.Z 1 -                           ",
"                  u z { d     a ' O.c.K.L.F.F.F.F.F.F.D.F.D.S.P * O *                           ",
"                u x ] g     , x ' *.J.D.F.L.F.F.F.D.D.D.J.S.S.A.q.0                             ",
"                  c { z     s ] [ %.V.L.S.v.i.N.F.D.D.A.A.D.D.A.b./                             ",
"                  l ] k     u f { f <.b.F 4 * Z x.D.N.F b F D b 5 :                             ",
"                  i l p     5 , r > 4 7 O + + 0 s.D.i.+ o X X X O O                             ",
"              * - 5 8 6     ; @ $ O O + + + O A A.D.x.Z - o O O O @                             ",
"            : % % 4 K C T * % % + O O + + + ; 0.S.Z.Z.B.0.7 X O O                               ",
"            * % % % I f.~ o O + o O O + O . e B.Z.Z.C.C.Z.y.7 X O                               ",
"              * % % 4 ` W : : 4 N J W A : : ` S.A.A.C.B.C.C.) # @                               ",
"              - % * + e a.a.a.b.A.A.A.A.a.i.A.S.A.C.C.C.B.B.n.0                                 ",
"              : % % % % J N.F.F.S.S.S.A.S.A.n.0.d.C.B.B.B.B.z.B                                 ",
"                % % O o % w ~ i.i.` ` J T W 0 * V Z v.C.m.9.b                                   ",
"                  % % o O O O - - o O . . . . . . - ) ( N ;                                     ",
"                  4 % O O O O o o . . . . . . . . . O o X                                       ",
"                      & + O O O O O O . . . . . . . . O                                         ",
"                        * + O O . . . . . . . O O O @                                           ",
"                            - + O O o O . O O O @                                               ",
"                                                                                                ",
"                                                                                                ",
"                                                                                                ",
"                                                                                                ",
"                                                                                                ",
"                                                                                                ",
"                                                                                                ",
"                                                                                                ",
"                                                                                                ",
"                                                                                                ",
"                                                                                                ",
"                                                                                                "
};
