/* XPM */
static char *f6b1b9756ac84693c22a02ea1f9024abev3hu3FSLPBgbYF1[] = {
/* columns rows colors chars-per-pixel */
"48 63 180 2 ",
"   c None",
".  c #0A0905",
"X  c #150F09",
"o  c #271C14",
"O  c #39291E",
"+  c #0F142C",
"@  c #141622",
"#  c #11172F",
"$  c #0E1633",
"%  c #0C163B",
"&  c #0E193B",
"*  c #0E1836",
"=  c #131A33",
"-  c #131B3B",
";  c #191E3B",
":  c #332B2D",
">  c #252D3B",
",  c #28313E",
"<  c #4B3527",
"1  c #5D412E",
"2  c #6A422F",
"3  c #6D4E3A",
"4  c #654935",
"5  c #734F3A",
"6  c #74523C",
"7  c #7C563E",
"8  c #0A1643",
"9  c #0D1944",
"0  c #0B1A4B",
"q  c #0A1648",
"w  c #0A1C54",
"e  c #06175B",
"r  c #061B5C",
"t  c #091D5B",
"y  c #1B2046",
"u  c #0D215E",
"i  c #0B2052",
"p  c #13255B",
"a  c #1B2558",
"s  c #242646",
"d  c #2B3645",
"f  c #2D3B4E",
"g  c #27374C",
"h  c #313D4C",
"j  c #323B47",
"k  c #293A51",
"l  c #283557",
"z  c #041C63",
"x  c #041560",
"c  c #052164",
"v  c #032269",
"b  c #132862",
"n  c #423E60",
"m  c #3F4149",
"M  c #2D405A",
"N  c #304055",
"B  c #334358",
"V  c #2E476A",
"C  c #354965",
"Z  c #394D67",
"A  c #3C526D",
"S  c #26497D",
"D  c #2B4C7C",
"F  c #2F4A71",
"G  c #324D77",
"H  c #2F517F",
"J  c #365176",
"K  c #395273",
"L  c #34537D",
"P  c #3A567D",
"I  c #3E597D",
"U  c #454143",
"Y  c #484358",
"T  c #5A5751",
"R  c #69574A",
"E  c #785740",
"W  c #7D5A44",
"Q  c #745741",
"!  c #6F675A",
"~  c #66635B",
"^  c #79615B",
"/  c #474965",
"(  c #5A4E63",
")  c #585269",
"_  c #405677",
"`  c #42597A",
"'  c #4B5D7A",
"]  c #515D75",
"[  c #675968",
"{  c #735D62",
"}  c #59657D",
"|  c #5D6174",
" . c #786163",
".. c #777062",
"X. c #7E7769",
"o. c #6B6974",
"O. c #855D45",
"+. c #895F46",
"@. c #89624B",
"#. c #8D6147",
"$. c #94674C",
"%. c #95694E",
"&. c #8B6752",
"*. c #966B50",
"=. c #9C735A",
"-. c #A77457",
";. c #AE7C5D",
":. c #A6775C",
">. c #B37E5E",
",. c #816760",
"<. c #836868",
"1. c #856866",
"2. c #84756C",
"3. c #92786F",
"4. c #9D7A6E",
"5. c #977467",
"6. c #8B7673",
"7. c #867F70",
"8. c #877673",
"9. c #927B74",
"0. c #AF7F65",
"q. c #A37C6B",
"w. c #B37F60",
"e. c #B2805F",
"r. c #8B8475",
"t. c #918B7C",
"y. c #AF8167",
"u. c #A7806F",
"i. c #AD836D",
"p. c #B68363",
"a. c #BB8363",
"s. c #B3856C",
"d. c #BA876A",
"f. c #BE896B",
"g. c #AB8471",
"h. c #BC8C72",
"j. c #C48C6B",
"k. c #CA8E6B",
"l. c #C68A67",
"z. c #C7906E",
"x. c #CC916D",
"c. c #D0946F",
"v. c #C79375",
"b. c #CD9672",
"n. c #CB9472",
"m. c #CE9976",
"M. c #C7977A",
"N. c #C4997E",
"B. c #CB9878",
"V. c #D19571",
"C. c #D49872",
"Z. c #DB9D78",
"A. c #E09E77",
"S. c #2D4C80",
"D. c #2F5180",
"F. c #345482",
"G. c #3D5B83",
"H. c #3A5781",
"J. c #425F85",
"K. c #446186",
"L. c #46638A",
"P. c #4E698B",
"I. c #4C6585",
"U. c #637086",
"Y. c #9A9283",
"T. c #8F9498",
"R. c #A49D8E",
"E. c #BB9E87",
"W. c #ABA495",
"Q. c #B3AC9D",
"!. c #BBB2A3",
"~. c #B5B2A9",
"^. c #BFB9A9",
"/. c #C6B19D",
"(. c #C6B6A4",
"). c #C5BDAD",
"_. c #C9BDAB",
"`. c #C8B5A2",
"'. c #C7C0B0",
"]. c #C9C2B2",
/* pixels */
"                                                                                                ",
"                                                                                                ",
"                                                                                                ",
"                                = @                                                             ",
"                                0 % $ @ $                                                       ",
"                              $ r t i % i =                                                     ",
"                              % r r u c c i 9 & =                                               ",
"                              & r u c c c c c z r w -                                           ",
"                              * u r z c c z c v v z r -                                         ",
"                              0 r r r z r r z v v v z r +                                       ",
"                            - 0 p u e t p r r z v v z x 0                                       ",
"                            = : Y l ( 5.[ r e z v v z z r +                                     ",
"                              1 :.d.b.b.<.t e e z z z z r %                                     ",
"                              < W :.z.z.q.a e t e z z z z 9                                     ",
"                              o < 3 W @.$.s y { n x z z z 0                                     ",
"                              . o @.f.l.5.a { C.5.b x z x 0                                     ",
"                              X 2 p.n.b.1.Y z.C.4.p z z x 8                                     ",
"                              O ;.x.x.b.d.y.z.b.^ u r z x %                                     ",
"                            4 6 l.z.b.m.m.x.z.e.^ b u r t #                                     ",
"                              @.e.z.b.b.m.b.f.e.d./ p r q                                       ",
"                                %.x.x.b.x.m.m.b.n.f.) t $                                       ",
"                                4 e.x.b.b.m.m.b.n.C.5.;                                         ",
"                                  1 %.a.b.b.b.b.z.p.Q                                           ",
"                                        $.j.j.l.k.;.                                            ",
"                                        E j.z.v.k.p.                                            ",
"                                        W N./._.(.E.R                                           ",
"                                        Y._.'.'.).).t.                                          ",
"                                      ..^.'.).).).'.!.!                                         ",
"                                      R.'.).).'.'.'.].Y.                                        ",
"                                    X.).).).).).'.'.].Q.                                        ",
"                                    R.'.).^.).).].'.'.!.                                        ",
"                                    Q.'.).'.).).].'.'.!.                                        ",
"                                    Q.'.).).).].].).].Q.                                        ",
"                                    Q.].).(.(.(.(._.).Q.                                        ",
"                                    W.].).M.z.M.z./.].Q.                                        ",
"                                    R.]._.v.k.z.z.(.].W.                                        ",
"                                    Y.]._.n.k.n.M.).].R.                                        ",
"                                    r.]._.v.x.x.v.).].Y.                                        ",
"                                    X.)._.n.k.k.v._._.9.                                        ",
"                                    ~ ~.(.B.c.k.E.!.T.T                                         ",
"                                    h I.U.h.c.k.9.P.P d                                         ",
"                                    k L | j.c.k.2.D L h                                         ",
"                                    k ' s.k.V.c.3.L P d                                         ",
"                                    g ' f.x.V.V.9.D P ,                                         ",
"                                    d P q.k.c.j.8.S.F                                           ",
"                                    , P } 6.6.o.` G g                                           ",
"                                      K K.K.D F.G.J                                             ",
"                                      C J.G.F.F.G.G.k                                           ",
"                                      M G.G.H.D G.J.J                                           ",
"                                      k I G.H.F.F.G.G.C                                         ",
"                                      d J P G.G.D.F.G.G.C                                       ",
"                                      > J P J G.G.S S.G.G.K h                                   ",
"                                        K J.D P J.H.S.F.G.G.K R                                 ",
"                                        A L.F.G.P H.F.F.F.H.} j.p.                              ",
"                                        Z L.F.P.J.V G F.G.H.6.Z.s.                              ",
"                                        B L.F.P.J.f h Z J.o.v.V.O.                              ",
"                                        f J.S.J.G.f     U p.A.a.                                ",
"                                        d _ G _ ] m       a.Z.=.                                ",
"                                        =.g.q.s.w.Q     3 l.w.                                  ",
"                                    $.a.V.C.C.C.V.E     %.a.                                    ",
"                                #.w.l.k.x.j.p.a.-.      O.W                                     ",
"                                W +.6 @.&.                                                      ",
"                                                                                                "
};
