/* XPM */
static char *_62b0e3b05f44d6ffb237d1b9a18fe09oonZ07luX9EQVEU9[] = {
/* columns rows colors chars-per-pixel */
"48 63 198 2 ",
"   c None",
".  c #1A140B",
"X  c #1B1B1D",
"o  c #251D17",
"O  c #392A1D",
"+  c #0E1229",
"@  c #111226",
"#  c #151527",
"$  c #090E3B",
"%  c #0A113B",
"&  c #0A1033",
"*  c #151A32",
"=  c #131630",
"-  c #1D2129",
";  c #1B2232",
":  c #1D263D",
">  c #23222A",
",  c #2A2C34",
"<  c #242B3A",
"1  c #222739",
"2  c #2B313C",
"3  c #2D3137",
"4  c #36383B",
"5  c #34313A",
"6  c #412F1F",
"7  c #4C3321",
"8  c #403122",
"9  c #543A27",
"0  c #533E2B",
"q  c #6A432C",
"w  c #6B4B34",
"e  c #694934",
"r  c #704E35",
"t  c #735137",
"y  c #7A5137",
"u  c #7A563D",
"i  c #09144E",
"p  c #091248",
"a  c #111D44",
"s  c #151D4C",
"d  c #071256",
"f  c #081252",
"g  c #0B1A54",
"h  c #061459",
"j  c #081559",
"k  c #07195E",
"l  c #091C5C",
"z  c #171D51",
"x  c #192746",
"c  c #0C225D",
"v  c #192D57",
"b  c #11265B",
"n  c #152A5D",
"m  c #192857",
"M  c #2C3848",
"N  c #343B45",
"B  c #232E5C",
"V  c #2D335B",
"C  c #071C61",
"Z  c #091F62",
"A  c #072164",
"S  c #0A2464",
"D  c #0D2964",
"F  c #092669",
"G  c #122D63",
"H  c #173063",
"J  c #2E3A62",
"K  c #2D3761",
"L  c #3A3C60",
"P  c #3A424C",
"I  c #35445A",
"U  c #3B4756",
"Y  c #1E437E",
"T  c #394D68",
"R  c #3E536E",
"E  c #2B4A77",
"W  c #234579",
"Q  c #26487E",
"!  c #2C4E7D",
"~  c #3D5574",
"^  c #32517E",
"/  c #3E5A7E",
"(  c #3C577A",
")  c #2E4769",
"_  c #464141",
"`  c #5D5241",
"'  c #424D5A",
"]  c #5E535D",
"[  c #564644",
"{  c #665B4B",
"}  c #6A5F4D",
"|  c #605545",
" . c #7E5A40",
".. c #68575B",
"X. c #765C57",
"o. c #766B59",
"O. c #574B60",
"+. c #42546D",
"@. c #4B5464",
"#. c #5A5263",
"$. c #425774",
"%. c #445A76",
"&. c #445D7C",
"*. c #485E7B",
"=. c #49607D",
"-. c #5B677E",
";. c #7D7362",
":. c #82563C",
">. c #855C41",
",. c #8E5F42",
"<. c #8C6246",
"1. c #8D6448",
"2. c #866046",
"3. c #946546",
"4. c #94694C",
"5. c #986B4D",
"6. c #996747",
"7. c #866352",
"8. c #9C6E51",
"9. c #916A52",
"0. c #A26D4C",
"q. c #AC7554",
"w. c #AE7957",
"e. c #A87859",
"r. c #B37B57",
"t. c #B57D5A",
"y. c #B97F5A",
"u. c #866B64",
"i. c #877D6A",
"p. c #867768",
"a. c #887674",
"s. c #9A7C71",
"d. c #99786E",
"f. c #A27A65",
"g. c #A07F70",
"h. c #B3805F",
"j. c #BB815C",
"k. c #96846F",
"l. c #958B78",
"z. c #9E947F",
"x. c #AE8569",
"c. c #B88566",
"v. c #AC8C72",
"b. c #BD8D72",
"n. c #A8917C",
"m. c #C18661",
"M. c #C58A64",
"N. c #CB8D65",
"B. c #C38D6C",
"V. c #CB8F68",
"C. c #D08F67",
"Z. c #CE936C",
"A. c #CF956E",
"S. c #CD916A",
"D. c #C7906D",
"F. c #D1956E",
"G. c #D3946C",
"H. c #DA976E",
"J. c #DD996E",
"K. c #D39167",
"L. c #C08F70",
"P. c #C79674",
"I. c #DC9D74",
"U. c #D59871",
"Y. c #2D4E81",
"T. c #335381",
"R. c #3D5B82",
"E. c #3A5782",
"W. c #425E82",
"Q. c #466183",
"!. c #4B6485",
"~. c #4E6888",
"^. c #4F6886",
"/. c #536987",
"(. c #526A88",
"). c #5D6E84",
"_. c #617084",
"`. c #707A86",
"'. c #989387",
"]. c #898E93",
"[. c #A69C88",
"{. c #ABA18D",
"}. c #B7A58E",
"|. c #AFA591",
" X c #A7A39A",
".X c #B8AE9A",
"XX c #B3A995",
"oX c #AFABA0",
"OX c #BFB5A1",
"+X c #C9AB90",
"@X c #C8B69D",
"#X c #C5B39B",
"$X c #C0B7A3",
"%X c #C4BAA5",
"&X c #C9BBA4",
"*X c #C7BDA8",
"=X c #C9BFA9",
"-X c #CBC0AB",
/* pixels */
"                                                                                                ",
"                                                                                                ",
"                                                                                                ",
"                        o                                                                       ",
"                        x 3 3 - x <                                                             ",
"                      : H v v x b m > # * * +                                                   ",
"                      x G H G G D S m b S S l b a +                                             ",
"                      x D D G G D D S S D D F F S g =                                           ",
"                      ; G D G D D S c c C F F Z C C i @                                         ",
"                      X x D D D D c l j C S F C C k j %                                         ",
"                        * b b D S B L c c S F S A C C f =                                       ",
"                        : H J c v d.g.G l l S C S C C k p                                       ",
"                        a 5 ] V d.U.b.K l l Z j S C Z C i                                       ",
"                          8 f.b.U.U.U.#.K g z B k C C Z j &                                     ",
"                            4.h.S.B.c.9.[ 1 7.f.B j l C l %                                     ",
"                            e 1. .t u 4...L B.S...f j j j %                                     ",
"                            o O 2.c.S.F.7.O.B.F.X.i f h h p                                     ",
"                            . 7 e.Z.Z.Z.c.k.S.V.7.z f h d $                                     ",
"                            . q M.Z.Z.S.Z.S.N.m.8.#.k j d $                                     ",
"                            . t F.S.V.Z.Z.S.V.m.m.c.#.m m @                                     ",
"                            0 2.V.Z.F.F.A.A.Z.S.S.U.x.u.0                                       ",
"                              5.j.V.F.A.A.A.Z.S.S.S.V.w.0                                       ",
"                                2.D.F.A.F.Z.C.N.S.V.M.4.                                        ",
"                                9 4.M.A.S.C.N.V.M.m.V.9.                                        ",
"                                    e 1.q.w.y.M.M.M.S.e.O                                       ",
"                                            t M.P.+X@X#Xl.{                                     ",
"                                              x.@X=X%X*X*X|.|                                   ",
"                                            ` |.=X=X%X%X%X%X{.}                                 ",
"                                            z.%X*X%X*X%X$X%X%X'.                                ",
"                                          i.$X*X*X*X*X*X%X%X&X.X{                               ",
"                                        { .X&X-X*X$X*X%X%X*X*X%Xp.                              ",
"                                        o.OX-X-X%X*X%X*X$X%X%X*Xl.                              ",
"                                          v.@X=X=X&X%X%X&X%X%X%X[.                              ",
"                                        >.m.P.@X-X%X%X*X%X%X$X%XXX                              ",
"                                      y j.K.V.B.}.%X%X%X%X$X%X$X.X}                             ",
"                                    r r.N.K.V.9.n.%X%X$X$X$X%X$X%Xo.                            ",
"                                  w t.N.N.B.>.k.=X&X%X%X%X$X%X$X%Xp.                            ",
"                                t q.Z.N.M.3.  k.=X=X%X%X%X%X*X%X%Xp.                            ",
"                            >.8.y.N.N.N.6.      |.=X*X%X*X%X%X%X$Xp.                            ",
"                          u j.Z.Z.V.N.6.        i.%X=X=X%X%X%X%X'.N                             ",
"                          r j.F.Z.N.q.            .X-X-X-XOX X`.~ 2                             ",
"                          <.y.V.Z.N.:.            l.OXXX]._.=.E E x                             ",
"                        e :.<.r.M.6.              ' ).&.W / Q.! / M                             ",
"                        7 e r u >.          N U $.&.&.! ! !.=.! ~ 1                             ",
"                                        4 ' %.!.!.!.R.! Q.Q./ ! I                               ",
"                                      P +.!.^.(.^.Q.! / &.Q.Q.) ;                               ",
"                                    U =.!./.(.(.Q.T.R.Q.Q.Q.R M                                 ",
"                                  P =.(./.(.(.W.E.Q.!.Q.=.T ,                                   ",
"                                  T !.(.(.~.E.W.(.(.!.%.U                                       ",
"                                  $.!.(.Q.Y.R.!.!.$.I 4                                         ",
"                                  R !.~.Q Y.W.W.%.2                                             ",
"                                  U Q.Q.W Q (.(.%.                                              ",
"                                  < ~ ( ^ W !.(.!.N                                             ",
"                                    M ( W.Y.T.~.!.+.                                            ",
"                                      I W.W.Y.R.!.&.U                                           ",
"                                      ; T W.T.T.!.!.@.                                          ",
"                                        < T R.T./.a.e.                                          ",
"                                          X.a.s.B.H.K.r                                         ",
"                                    y <.y.H.H.J.J.H.y.q                                         ",
"                                w q.C.K.J.J.H.N.q.3.                                            ",
"                                  y ,.6.0.q.6.                                                  ",
"                                                                                                ",
"                                                                                                "
};
