/* XPM */
static char *a2be183792da4c7ba643866f76aec867Lakza9Fms1AGnGgw[] = {
/* columns rows colors chars-per-pixel */
"48 63 205 2 ",
"   c None",
".  c #0D0C07",
"X  c #0E0D09",
"o  c #110F0A",
"O  c #120E07",
"+  c #14110B",
"@  c #19150D",
"#  c #1D180F",
"$  c #1E1910",
"%  c #161715",
"&  c #221D14",
"*  c #211F1A",
"=  c #2B2419",
"-  c #23201B",
";  c #32281E",
":  c #1D1F21",
">  c #1D1F33",
",  c #1E2031",
"<  c #262429",
"1  c #382D21",
"2  c #3F3D37",
"3  c #28303F",
"4  c #45403B",
"5  c #544033",
"6  c #6D503E",
"7  c #664F3E",
"8  c #1C254D",
"9  c #1E2345",
"0  c #15215A",
"q  c #1B2658",
"w  c #21294D",
"e  c #2C2E42",
"r  c #2C374A",
"t  c #323B4E",
"y  c #3B3641",
"u  c #343E52",
"i  c #263151",
"p  c #111F60",
"a  c #031E75",
"s  c #021F7A",
"d  c #1A2964",
"f  c #13266B",
"g  c #0C2375",
"h  c #04237D",
"j  c #0B267B",
"k  c #0D2A7D",
"l  c #072177",
"z  c #112775",
"x  c #152C79",
"c  c #1B327D",
"v  c #0F246B",
"b  c #283B7D",
"n  c #313E7E",
"m  c #263165",
"M  c #2F415D",
"N  c #37435B",
"B  c #3A4C6C",
"V  c #364662",
"C  c #394F75",
"Z  c #3E5274",
"A  c #3D547B",
"S  c #2E4465",
"D  c #544C44",
"F  c #6E4F41",
"G  c #695245",
"H  c #7A5B4C",
"J  c #765D51",
"K  c #635A54",
"L  c #7F614F",
"P  c #7B6052",
"I  c #44587C",
"U  c #445576",
"Y  c #444C71",
"T  c #6C6A64",
"R  c #7D7C78",
"E  c #716974",
"W  c #815F4F",
"Q  c #836555",
"!  c #8C6D5E",
"~  c #816658",
"^  c #966E5B",
"/  c #8F715F",
"(  c #95715E",
")  c #876C63",
"_  c #8D7668",
"`  c #97776A",
"'  c #8D736F",
"]  c #A17D6A",
"[  c #A77D68",
"{  c #97867D",
"}  c #A9816C",
"|  c #A98677",
" . c #B48672",
".. c #B38B76",
"X. c #BC8D76",
"o. c #B38E7B",
"O. c #BF957E",
"+. c #C5947C",
"@. c #042683",
"#. c #092683",
"$. c #062986",
"%. c #0A2983",
"&. c #022789",
"*. c #012A8C",
"=. c #022D8E",
"-. c #042A8A",
";. c #082C8B",
":. c #022E90",
">. c #033091",
",. c #172D80",
"<. c #303E84",
"1. c #3C5784",
"2. c #3B5989",
"3. c #2A569E",
"4. c #365D9C",
"5. c #3A5E98",
"6. c #2E5AA7",
"7. c #325DA5",
"8. c #355EA9",
"9. c #3561A6",
"0. c #3C64A4",
"q. c #3561AA",
"w. c #3B65AB",
"e. c #3E68AB",
"r. c #425D8D",
"t. c #485984",
"y. c #425F92",
"u. c #474E85",
"i. c #49618A",
"p. c #456397",
"a. c #45669D",
"s. c #496799",
"d. c #486699",
"f. c #5C6C94",
"g. c #6C6584",
"h. c #6D7080",
"j. c #71708C",
"k. c #4469A4",
"l. c #4B6DA5",
"z. c #446CAD",
"x. c #496FAC",
"c. c #4C71AD",
"v. c #4F70A7",
"b. c #5473AB",
"n. c #5673A7",
"m. c #456EB1",
"M. c #4C73B2",
"N. c #4771B4",
"B. c #5176B2",
"V. c #5379B5",
"C. c #5B7CB4",
"Z. c #5179B8",
"A. c #887989",
"S. c #937D86",
"D. c #5C81BA",
"F. c #5D81B7",
"G. c #748FBC",
"H. c #8D8C87",
"J. c #888783",
"K. c #998385",
"L. c #9C9B97",
"P. c #8F9195",
"I. c #A88C8A",
"U. c #B99588",
"Y. c #A5999A",
"T. c #A0A09D",
"R. c #A8A8A5",
"E. c #B2B1AD",
"W. c #BDBDBA",
"Q. c #B4B3B0",
"!. c #B2AFAB",
"~. c #C69A83",
"^. c #CB9A82",
"/. c #CA9A86",
"(. c #D29C83",
"). c #CEA08D",
"_. c #D5A28A",
"`. c #DAA58C",
"'. c #DCA98E",
"]. c #D8A287",
"[. c #CDA595",
"{. c #DCAB93",
"}. c #D9AB95",
"|. c #DFB09A",
" X c #E3AA8E",
".X c #E0A68B",
"XX c #E3AD93",
"oX c #E4B095",
"OX c #DAB9A7",
"+X c #C0BFBC",
"@X c #CFB7A9",
"#X c #C2C2BF",
"$X c #D8C8BE",
"%X c #869DC2",
"&X c #C5C5C2",
"*X c #C9C8C6",
"=X c #CDCDCB",
"-X c #D8CDC5",
";X c #CFD0CD",
":X c #D5D2CC",
">X c #D6D6D4",
",X c #D7D8D4",
"<X c #D8D9D6",
"1X c #DADAD9",
"2X c #D8D5D2",
/* pixels */
"                                                                                                ",
"                                                        <                                       ",
"                                              e   w w w 0 <                                     ",
"                                            d d w x g z %.8                                     ",
"                                      q w d %.k #.&.#.;.;.z >                                   ",
"                                      z k ;.;.$.#.$.#.&.:.j >                                   ",
"                                    d %.$.-.;.$.;.#.$.$.-.v                                     ",
"                                  q k $.$.-.;.;.;.-.$.$.-.#.d                                   ",
"                                q k $.;.$.$.=.$.$.$.@.@.&.&.j 9                                 ",
"                                f k ;.$.$.$.$.$.#.#.@.@.&.*.#.0                                 ",
"                              8 k h =.$.$.$.-.$.&.$.-.-.&.*.$.p                                 ",
"                              q h $.h k $.=.>.>.*.*.=.-.*.*.$.p                                 ",
"                              0 j h h $.$.=.=.=.:.=.:.&.&.*.&.p                                 ",
"                              p l l k $.$.=.=.=.-.*.*.:.*.&.$.a y                               ",
"                              m l l h $.@.=.-.*.=.*.&.:.&.&.&.,.'                               ",
"                            Q E k j h h h @.&.&.*.*.*.*.$.&.@.<.U.                              ",
"                            L U.G.x l h h h @.&.&.&.-.&.&.&.s u.o.                              ",
"                              ~.+.S a l h h s @.h @.@.&.&.@.c h./                               ",
"                              / O.S.z a h h h @.h @.@.@.@.j E ~                                 ",
"                                  ` g.n a s h h h h h h a <.)                                   ",
"                                    ..I.c h h h h h a j b Y                                     ",
"                                      } S.t.c l a ,.x C E                                       ",
"                                        W ).E l <.S.' D                                         ",
"                                        ' _.U.j.[.XX+.= @ & $                                   ",
"                              Y.E.W.*X;X$X'.{.{.XXoX^.; @ @ + @ #                               ",
"                            #X,X1X1X1X1XOX`.'.'.{.XX+.; + @ @ @ @ &                             ",
"                          R.<X,X,X,X,X1X$X|.}._.`.{.@X4 O @ # # $ $                             ",
"                          *XW.>X>X,X,X>X,X,X-X$X-X:X,XT O O # # # + &                           ",
"                        R.1XR.*X1X>X>X>X>X,X,X,X,X<X<XT O O @ @ @ + &                           ",
"                        *X1XQ.W.>X>X>X>X:X>X,X>X,X<X;XD @ + + + @ @ $                           ",
"                      T.1X1XW.E.>X>X>X>X>X>X,X,X<X<XH.& + + O # $ @ #                           ",
"                      &X1X1X&XR.2X>X>X>X2X,X,X<X#XR - X + + + & # @ @                           ",
"                    R ;X1X<X;XL.>X>X>X>X>X>X&XJ.2 + X X @ O @ - @ + # =                         ",
"                      H.W.>X1XL.;X>X>X>X>XR.2 % X + + % + O @ # + + $                           ",
"                        D { E.L.=X>X,X,X#X2 X X X o + + + + @ = 7 H                             ",
"                        P +.| K #X1X,X1XH.o X X o + o X + + &  .'.X.                            ",
"                        _ XX~.5 W.<X<X,XT X X o o X X X X + 1 +. XX.                            ",
"                        ] XX|   Q.1X,X,XT X o X X . . X X X = X.XXX.                            ",
"                        ..XX/   P.,X1X1XR.: X X X . . % % : < (  X+.                            ",
"                        U.{.Q   A G.G.%X%Xi.r r M S C 2.y.5.M 6 (.].Q                           ",
"                      ~ _.{.Q   2.7.7.q.w.M.c.N.M.w.8.8.6.q.Z   +. X+.!                         ",
"                    J /.{.oX` 3 4.3.7.q.q.m.m.e.M.q.M.Z.z.q.A   +. XoX~.                        ",
"                    ! {.oX{.o.t 4.7.N.D.N.N.N.N.M.w.D.D.M.m.A F +.].oX/.                        ",
"                    ) {.}.O.| t 4.3.m.M.e.M.N.m.M.q.Z.D.m.M.Z F [ +.oX^.                        ",
"                    J _.}.` J t 5.3.9.w.9.9.4.4.9.w.e.e.N.B.B   5 ] `. .                        ",
"                      ) | K     1.e.7.w.M.M.2.1.m.M.M.m.B.l.u       (                           ",
"                                2.e.z.c.Z.Z.I t.x.x.c.c.c.l.u                                   ",
"                                2.z.c.V.V.V.U U c.c.B.V.B.s.u                                   ",
"                                2.k.B.V.V.c.U U c.B.C.F.B.a.N                                   ",
"                                1.k.c.M.M.l.N U x.B.F.C.V.a.u                                   ",
"                                Z k.k.c.c.p.  Z k.c.F.C.V.s.t                                   ",
"                                  p.0.k.n.E   B k.n.C.C.V.s.                                    ",
"                                Q S.f.f.Y.`   V a.x.C.C.C.s.                                    ",
"                                ^ `.[._. X[   N a.c.b.C.C.p.                                    ",
"                                  X.^.(.+.W     p.l.b.b.v.r.                                    ",
"                                    H Q         p.n.b.n.l.r.                                    ",
"                                                y.v.v.l.k.t.                                    ",
"                                                2.y.y.y.y.B                                     ",
"                                                ' K.K.I.|                                       ",
"                                                 ..X X X(.W                                     ",
"                                                6 ^ [  .^                                       ",
"                                                                                                ",
"                                                                                                "
};
