/* XPM */
static char *e3feb3262511434afb9deb3d3d929a5aUXj6RKVNFpPtueKu[] = {
/* columns rows colors chars-per-pixel */
"48 63 211 2 ",
"   c None",
".  c #060604",
"X  c #090906",
"o  c #0C0D09",
"O  c #070805",
"+  c #11110C",
"@  c #0C0F11",
"#  c #0E1216",
"$  c #161613",
"%  c #1C1A16",
"&  c #120E0A",
"*  c #251B14",
"=  c #27211D",
"-  c #0F1520",
";  c #131B26",
":  c #162337",
">  c #282825",
",  c #31312E",
"<  c #3E3D3A",
"1  c #353532",
"2  c #312921",
"3  c #562E1F",
"4  c #4A352A",
"5  c #523D33",
"6  c #5B3F32",
"7  c #4B362B",
"8  c #42423E",
"9  c #5B4437",
"0  c #65493A",
"q  c #6B4D3E",
"w  c #65463A",
"e  c #704E3E",
"r  c #1C2B46",
"t  c #1C2B5B",
"y  c #14275C",
"u  c #242E48",
"i  c #23324D",
"p  c #29324F",
"a  c #2A365A",
"s  c #25395B",
"d  c #2A3856",
"f  c #313750",
"g  c #1A2F6A",
"h  c #0B2C7D",
"j  c #0E2B73",
"k  c #132F75",
"l  c #1C3374",
"z  c #15327D",
"x  c #1B367D",
"c  c #1D387D",
"v  c #243463",
"b  c #2B3962",
"n  c #26386A",
"m  c #233A69",
"M  c #203F70",
"N  c #2D4264",
"B  c #2C436C",
"V  c #25406F",
"C  c #304569",
"Z  c #29497B",
"A  c #294776",
"S  c #334C72",
"D  c #374C79",
"F  c #38527A",
"G  c #544946",
"H  c #4C4C52",
"J  c #6F5042",
"K  c #7A5545",
"L  c #765948",
"P  c #796154",
"I  c #63625D",
"U  c #515475",
"Y  c #57607E",
"T  c #6B6967",
"R  c #7A6869",
"E  c #75736D",
"W  c #7D6B72",
"Q  c #874F3B",
"!  c #825D4C",
"~  c #805947",
"^  c #84614F",
"/  c #88624F",
"(  c #856454",
")  c #8B6553",
"_  c #8C6956",
"`  c #8C6C5B",
"'  c #846858",
"]  c #936C59",
"[  c #9B6E5B",
"{  c #946954",
"}  c #92705D",
"|  c #9E735D",
" . c #A66E58",
".. c #A1755D",
"X. c #937362",
"o. c #997563",
"O. c #9B7A69",
"+. c #817F78",
"@. c #867D74",
"#. c #947A76",
"$. c #8A6F63",
"%. c #A47A65",
"&. c #AC7C65",
"*. c #A47D6A",
"=. c #AA7B65",
"-. c #B17B63",
";. c #85847E",
":. c #90847B",
">. c #AC816B",
",. c #A4816E",
"<. c #B5836C",
"1. c #B9856D",
"2. c #AB8674",
"3. c #A68574",
"4. c #BB8A72",
"5. c #B48B7B",
"6. c #BB8E79",
"7. c #B58872",
"8. c #BB927C",
"9. c #C28D74",
"0. c #C98F75",
"q. c #C5937B",
"w. c #CC957B",
"e. c #CF997F",
"r. c #C79076",
"t. c #D0967B",
"y. c #D59A7E",
"u. c #0E3283",
"i. c #143584",
"p. c #193782",
"a. c #1C3A83",
"s. c #173A89",
"d. c #1A3B8A",
"f. c #163887",
"g. c #0C2D80",
"h. c #203B83",
"j. c #244B8C",
"k. c #274885",
"l. c #314684",
"z. c #2B528D",
"x. c #2E5185",
"c. c #375587",
"v. c #275296",
"b. c #2C5492",
"n. c #2E5895",
"m. c #2E5699",
"M. c #315692",
"N. c #335A96",
"B. c #345D99",
"V. c #385F9A",
"C. c #3C5D93",
"Z. c #204A94",
"A. c #3B629C",
"S. c #37609C",
"D. c #3D65A0",
"F. c #495985",
"G. c #565D86",
"H. c #42669A",
"J. c #49618E",
"K. c #656F90",
"L. c #6B6989",
"P. c #446AA2",
"I. c #496FA6",
"U. c #4B70A6",
"Y. c #867889",
"T. c #788594",
"R. c #8B8A85",
"E. c #92928C",
"W. c #9C9B95",
"Q. c #999792",
"!. c #9B8489",
"~. c #BD9583",
"^. c #A59B96",
"/. c #AC8980",
"(. c #A3A39D",
"). c #ABAAA5",
"_. c #AEAEA9",
"`. c #A7A7A2",
"'. c #AFB0AC",
"]. c #BBBCB6",
"[. c #BEBEB9",
"{. c #B6B6B1",
"}. c #B3B3AE",
"|. c #C49681",
" X c #CE9D84",
".X c #C49A88",
"XX c #D39D83",
"oX c #D89F84",
"OX c #D4A086",
"+X c #DAA186",
"@X c #D4A38A",
"#X c #DAA68B",
"$X c #DDAA8F",
"%X c #CFAE9B",
"&X c #DEAC92",
"*X c #D3A792",
"=X c #DFB096",
"-X c #E0AF94",
";X c #E4B296",
":X c #D1BEB1",
">X c #CEB8AB",
",X c #C1C2BC",
"<X c #CFC5BB",
"1X c #D1C2B6",
"2X c #B4BCC1",
"3X c #CBCAC4",
"4X c #CDCEC9",
"5X c #C6C7C2",
"6X c #CFD0CA",
"7X c #D1D2CD",
"8X c #D1CFC8",
/* pixels */
"                                                                                                ",
"                                                                                                ",
"                                        b f   n n                                               ",
"                                      v h.b n a.h.a a                                           ",
"                                    a h.d.h.s.s.d.p.x a p                                       ",
"                                    n s.d.d.s.s.i.i.i.z l i                                     ",
"                                  n x f.d.d.s.f.i.i.u.i.i.g p                                   ",
"                                v p.f.f.s.f.p.f.i.i.z z i.i.k p                                 ",
"                              p h s.s.u.i.k.p.z l.k.p.h.M i.i.g                                 ",
"                              t u.u.u.g.F.K.U Y.^.G.L.Y.Y.p.g.l                                 ",
"                              y g.g.h U .X@X*X;X-X*X&X*XXXh.h k                                 ",
"                              y h a.D #.5.$X-X-X-X|.*.2.|.G.h j                                 ",
"                              g h U *.2.,. X=X&X*X2.o.$.X.$.g l G                               ",
"                              H t R L 7 L } 8.~.O.` 2 4 *.5.a W 5.                              ",
"                            P O.b #.J % ^ _ _ ,.' >.4 K |..XU <.|.                              ",
"                            ^ 7.T ~.| 3 1.} &.$Xo.1.Q -.-X&XX.q.6.                              ",
"                              7.o.oX|. .w.^ | #X,.%.r.e.OX8.} OX}                               ",
"                              ' ' ` *.%.X.} | OXe.,.>.>.%.} O.o.                                ",
"                                w ( 4.q.|.@XOXXX1.4.OXOX+X|                                     ",
"                                    &.oX@Xw.=...>.t.#X#X6.0                                     ",
"                                    J >.OXXXq.OX#X#XOX4.L                                       ",
"                                        _  X@XOXOXOX1.9                                         ",
"                                        5  X@XOXOX#X8.;.;.;.E                                   ",
"                              + o + o o 5 OX@X@XOX#X*X<X8X4X3X,X'.T                             ",
"                            o o O o + o 0  X@X XOX@X*X<X6X6X4X4X3XE.                            ",
"                          + X o + + o O G %X@X X@X*X%X<X4X4X4X3XW._.                            ",
"                          o X o o o o o ;.6X1X>X1X1X3X4X4X4X4X,XW.[.                            ",
"                        + o X o o o o + W.6XE.I R.4X4X4X4X4X4X{.`.3X;.                          ",
"                        o O O o o o O o R.].> O > }.6X6X4X4X4X`._.7XE.                          ",
"                        o o O o o o O O 8 (., o < [.6X6X4X4X6XW.[.7X).                          ",
"                      o O O O o + o O O o H ;.R.].6X6X6X6X6X4XQ.5X7X[.                          ",
"                      O . . O O o o O O O O % < T E.].6X6X6X,XQ.4X7X:XI                         ",
"                      X O . . X o X . . O X . . . o 1 `.6X7X{.`.5X(.T                           ",
"                        & $ X . X X O O O X $ < > X . < 5X7X(.@.,._                             ",
"                        4 ../ = . . X . O O E 6X`.> O $ _.6X:.1.oX4.                            ",
"                        4 9.y.5 . . O . X . T {.E.% O $ '.3XP w.+X4.                            ",
"                        7 0.9.4 O . . . . . # > $ O . 1 5X].G 1.+X9.                            ",
"                        e t.&.  o O . . O O O O O O O T 2XT.  ..oXq.                            ",
"                        ) t.[   : ; # # @ @ O @ # ; : F A.x.: / oXw.J                           ",
"                        =.w.!   Z j.s.k.A M A Z h.z.M.d.j.M.r q t.t.<.0                         ",
"                      ] w.e.) : Z d.v.n.m.Z.S.S.v.S.D.A.m.M.i   9.oXoX*.                        ",
"                    e 0.w.w.%.: d.b.n.B.D.v.D.D.v.A.I.U.P.C.r q 9.w.oX1.                        ",
"                    K t.1.-.{ i z.v.b.S.S.B.D.S.v.A.I.I.P.A.    [ -.+X<.                        ",
"                    ~ t.&.! 6 s z.b.b.S.D.v.j.j.v.S.P.H.H.c.    7 [ 9.!                         ",
"                      { K     B M.b.n.A.P.I.S A S.S.A.A.P.F         q                           ",
"                              S M.M.S.S.P.U.N s n.n.S.A.H.S                                     ",
"                              S S.M.S.A.P.P.d i M.n.N.A.A.N                                     ",
"                              S A.S.N.A.H.A.d   x.N.A.A.V.i                                     ",
"                              C S.B.N.A.A.M.u   D N.V.S.c.                                      ",
"                              N B.B.B.B.A.c.    $.K.F.J.W                                       ",
"                              s N.B.M.M.B.x.    =.|./.5.9.w                                     ",
"                              p M.N.n.M.V.F   K 9. XXXw.w.!                                     ",
"                                z.M.z.M.N.D   J ] ] ] ) (                                       ",
"                                x.M.b.b.N.S                                                     ",
"                                Z b.b.M.N.B                                                     ",
"                                n b.z.M.N.B                                                     ",
"                                m z.M.M.V.C                                                     ",
"                                f Y F.F.F.f                                                     ",
"                                ) q.8.6.2.5                                                     ",
"                              w 1.y.y.y.t.[                                                     ",
"                              ) r.1.<.1.<.[                                                     ",
"                                q     6                                                         ",
"                                                                                                "
};
