/* XPM */
static char *_82b6fa04cfc4d8cca67f56d8c9997a7ONcwHfjsm7LwCzYY[] = {
/* columns rows colors chars-per-pixel */
"48 64 222 2 ",
"   c None",
".  c #020301",
"X  c #0A0502",
"o  c #040903",
"O  c #0A0C04",
"+  c #0C0C0A",
"@  c #07080C",
"#  c #120E0C",
"$  c #140900",
"%  c #0C120B",
"&  c #051006",
"*  c #12120D",
"=  c #040917",
"-  c #141211",
";  c #1C1714",
":  c #100E11",
">  c #261708",
",  c #371703",
"<  c #231A15",
"1  c #2B241C",
"2  c #33280C",
"3  c #152338",
"4  c #122029",
"5  c #2C2A25",
"6  c #322721",
"7  c #35342E",
"8  c #3D3B3A",
"9  c #472A11",
"0  c #504330",
"q  c #674B39",
"w  c #76583B",
"e  c #605331",
"r  c #0C0D46",
"t  c #131851",
"y  c #1D2B44",
"u  c #1F324D",
"i  c #3A375A",
"p  c #262C54",
"a  c #0A1B6D",
"s  c #06196A",
"d  c #061D72",
"f  c #0B1C72",
"g  c #061A7B",
"h  c #06216D",
"j  c #142569",
"k  c #082075",
"l  c #16267C",
"z  c #252A63",
"x  c #25307C",
"c  c #2B4777",
"v  c #3C4F78",
"b  c #3B527C",
"n  c #444341",
"m  c #534D4C",
"M  c #494659",
"N  c #5C5454",
"B  c #544956",
"V  c #675244",
"C  c #745647",
"Z  c #6C5455",
"A  c #785E58",
"S  c #614F56",
"D  c #786059",
"F  c #4D5576",
"G  c #465679",
"H  c #545A78",
"J  c #4E4C6B",
"K  c #725867",
"L  c #56657B",
"P  c #796568",
"I  c #75726F",
"U  c #796A74",
"Y  c #767772",
"T  c #6B6768",
"R  c #865B52",
"E  c #876349",
"W  c #87675A",
"Q  c #9A6756",
"!  c #8C725A",
"~  c #99755B",
"^  c #A1644F",
"/  c #A0765C",
"(  c #A16351",
")  c #896D63",
"_  c #88756B",
"`  c #987767",
"'  c #9A7C73",
"]  c #A27C69",
"[  c #918775",
"{  c #A9856B",
"}  c #A98879",
"|  c #B5937B",
" . c #BA947A",
".. c #BA8C72",
"X. c #C59776",
"o. c #071F81",
"O. c #062381",
"+. c #393E86",
"@. c #283381",
"#. c #274482",
"$. c #314D84",
"%. c #3D5585",
"&. c #3E5B8A",
"*. c #365688",
"=. c #355594",
"-. c #3C5B93",
";. c #3A589A",
":. c #2A4B92",
">. c #3F608D",
",. c #39669D",
"<. c #3D65A0",
"1. c #43458A",
"2. c #415C8C",
"3. c #475A86",
"4. c #555689",
"5. c #415E90",
"6. c #445C9A",
"7. c #43618E",
"8. c #4C648E",
"9. c #5A6685",
"0. c #436293",
"q. c #4C6493",
"w. c #44659C",
"e. c #4B669A",
"r. c #4D6A9C",
"t. c #4C6B97",
"y. c #536595",
"u. c #536C95",
"i. c #546B9A",
"p. c #586B97",
"a. c #5A7398",
"s. c #4C739E",
"d. c #666A8B",
"f. c #7B7483",
"g. c #767587",
"h. c #677899",
"j. c #737999",
"k. c #6F6C8D",
"l. c #4463A2",
"z. c #4B6BA3",
"x. c #4A68A8",
"c. c #536DA8",
"v. c #5572A3",
"b. c #4767B0",
"n. c #667BAB",
"m. c #867786",
"M. c #8D7E93",
"N. c #768B9E",
"B. c #768BAB",
"V. c #999395",
"C. c #8B8B97",
"Z. c #BD9B83",
"A. c #B39589",
"S. c #BA9987",
"D. c #AA9394",
"F. c #A8928F",
"G. c #A1A39D",
"H. c #BCA599",
"J. c #BCA08A",
"K. c #8594AC",
"L. c #8798B7",
"P. c #999EBC",
"I. c #A398A0",
"U. c #94A0B0",
"Y. c #ABA5AA",
"T. c #B6A9A8",
"R. c #BAB3AD",
"E. c #B2A3B6",
"W. c #B6B8B7",
"Q. c #C39B84",
"!. c #C69C87",
"~. c #C4A184",
"^. c #C4A38C",
"/. c #CCA48B",
"(. c #CBA487",
"). c #D3A58B",
"_. c #C3A594",
"`. c #CAA294",
"'. c #C2AB9C",
"]. c #C4A599",
"[. c #D4AB94",
"{. c #D6AB9A",
"}. c #C9B69E",
"|. c #D4B49C",
" X c #C4ACA2",
".X c #CCACA2",
"XX c #C4B1A5",
"oX c #C3B5AA",
"OX c #C9B6AB",
"+X c #D1B4A3",
"@X c #C5BBB4",
"#X c #CBBCB3",
"$X c #C8B8B9",
"%X c #D3AFA0",
"&X c #BBC1BB",
"*X c #C2C39D",
"=X c #C6C2BC",
"-X c #CAC3BC",
";X c #CFC1B6",
":X c #D5C3B9",
">X c #AA9CC0",
",X c #91A4C5",
"<X c #B3B8CA",
"1X c #B2B7C8",
"2X c #AEB2CB",
"3X c #C0BCC1",
"4X c #B6C4CD",
"5X c #BDC7D4",
"6X c #C5C5C3",
"7X c #CCC7C2",
"8X c #CBCBC5",
"9X c #CCCCCA",
"0X c #C5CBCD",
"qX c #D2CECB",
"wX c #D4C8C5",
"eX c #CDD2CB",
"rX c #D6D1CA",
"tX c #C7CBD1",
"yX c #D5D4D4",
"uX c #DEE0DB",
"iX c #D6E3EB",
"pX c #FCF7FE",
/* pixels */
"                                                                                                ",
"                                                                                                ",
"                                                                                                ",
"                                          a a                                                   ",
"                                    f d a a a a f                                               ",
"                                  d d a a a a a f f                                             ",
"                                  d f f a a a a f f l                                           ",
"                                d d d g f a a s f l l                                           ",
"                              d d d s g g o.g s s g @.@.                                        ",
"                              h d g g s g g g s s s @.+.1.                                      ",
"                            j h g o.f t r z +.r r J 1.4.4.                                      ",
"                            j j s s k.m.P E.E.F..X$X>Xj.d.                                      ",
"                            z p r J D.{.{.{.[.X.] (.oXM.k.                                      ",
"                            i M K ' R !.[.[.[./ E w ) U U                                       ",
"                            J S _ e ! ~ ~.|.W C 2 2 V K P                                       ",
"                            B m 0 o N [ e C K F.> 2 q D P                                       ",
"                            S Z R , `  .~ /.E /.9 R C ) )                                       ",
"                            Z A R R |.{ ~ |.w ~. .!.] _ _                                       ",
"                              D ) } Q q { |.} E ] ] [ '                                         ",
"                              A W ] ] Q. .^./. ...} } }                                         ",
"                                R ` { /.Q.Q.!.[.!.S.A.                                          ",
"                                  ) ] ^.(.).).[._._.                                            ",
"                                  C ! | (.X.~.Q.'.'. X                                          ",
"                                  0 V Z.(.).)._.#X#X#X@X                                        ",
"                            6 6 6 1 $ S.!.[.).`..XyXwX$X=X                                      ",
"                        ; < < < ; ; < } `./.`.`. XwXqX9X8X8X                                    ",
"                        - - - # % % # F.'._.H.R.:XrXqX9X8X9X9X                                  ",
"                      - * * # # % . 7 wX8XT.;XrXrX8X8X9XeX9X9X                                  ",
"                      * + + + + % o 8 uXY . 8 =XeX8X8X8XqXeX9X9X                                ",
"                    * % + # + + % O + 8Xn . o R.rXqXqX9X9X8X8X8X                                ",
"                    ; * + O % + # # X m V.0 N.rX8X0X9XqX9X8X9X8X                                ",
"                    . % O O + O + # + . 5 Y V.8XyX0XtXtX6X6X6X6X                                ",
"                  - . & & @ = = # O O X X . o 1 G.yXtXeX4X=X=X6X                                ",
"                    5 O o X * @ - + O + . + . o - W.eXeX-X=X=X=X                                ",
"                    -X_ 0 > O O : & & o i Y.I @ . I yX:X#X@X@X@X                                ",
"                    #XJ.J.{ $ & : : o . P pX6X# X N yX8XH.XX@X*X                                ",
"                    :XZ...^.2 o # + O O ; T n O X m eX8XoXoXoXoX                                ",
"                    OXQ.X.|.7 @ # X o O o . % & . C.iX4X-X@XXXXX                                ",
"                    OXZ.| ;XM = X . . o & o o & 4 B.B.L W.H. X'.                                ",
"                    '.|  .@Xj.c i u y 3 3 y u u G b c b U.;X]._.].                              ",
"                      Q `   a.=.4.6.c.&.q.c.5.5.e.x.;.#.P.wX .!.^._.                            ",
"                    ] Q `   u.:.c.l.l.=.l.c.=.6.x.c.b.#.j.I.A.X.S._.'.                          ",
"                  Q   ^ !   y.;.v.,.,.=.w.;.#.-.i.w.l.6.j.C.V.A.A.]. X X                        ",
"                    ( ^ W   8.;.a.s.s.*.-.-.=.*.0.7.q.p.j.C.V.D.H.OXXXXX                        ",
"                  Q Q       3.p.a.r.v.0.6.;.-.>.2.r.u.h.K.$XOXH.T.#XOXoX                        ",
"                            8.i.w.x.z.w.h.n.;.>.0.e.u.a.L.  @X$XT.R.oXoX                        ",
"                            3.i.w.c.l.w.B.B.$.0.0.t.u.a.  4X=X3XY.T.R.                          ",
"                            y.i.w.l.l.,.N.,Xc 0.7.8.u.p.    &X                                  ",
"                            t.i.w.,.,.,.B.,Xb >.>.&.0.u.                                        ",
"                            p.i.i.r.r.3.>X2Xv >.>.>.8.8.                                        ",
"                            h.u.i.p.t.H E.2Xv >.>.>.7.8.                                        ",
"                            j.t.r.e.e.G 2X<XG -.&.&.>.7.                                        ",
"                            B.e.r.x.l.G <X1XG &.&.2.&.2.                                        ",
"                            K.i.r.z.w.8.5X1XG 2.&.&.&.%.                                        ",
"                            L.e.e.e.e.9.0X<XG %.&.%.%.%.                                        ",
"                            y.i.q.6.6.9.tX<X2.2.3.*.%.%.                                        ",
"                          1Xp.y.8.6.3.9.5X4XG 3.G $.b %.                                        ",
"                          W.9.d.4.G 9.g.0X5Xf.F F H F G                                         ",
"                          R.k.g.f.} U T.:X+XZ.H H H F F                                         ",
"                            k.g.f.m.g.A.].{.X.H H H F F                                         ",
"                          oXJ.g.f.m.S.S..X+XJ.H `.S.Z.S.                                        ",
"                            XX+X       X                                                        ",
"                                                                                                ",
"                                *X}.   X                                                        "
};
