/* XPM */
static char *_3e79db7ba0c49e2ba7a6fdb94081e24MnHsTQGJr3ScV3AU[] = {
/* columns rows colors chars-per-pixel */
"48 63 162 2 ",
"   c None",
".  c #070704",
"X  c #080703",
"o  c #070804",
"O  c #0A0A05",
"+  c #0E0D08",
"@  c #120F07",
"#  c #110F09",
"$  c #15120D",
"%  c #1A150F",
"&  c #1E190F",
"*  c #161817",
"=  c #201912",
"-  c #292017",
";  c #2F231B",
":  c #32261D",
">  c #1C1B25",
",  c #0C173F",
"<  c #191C30",
"1  c #131834",
"2  c #221E24",
"3  c #202832",
"4  c #41281B",
"5  c #423226",
"6  c #5F4635",
"7  c #7B4E39",
"8  c #69513F",
"9  c #0E1A4A",
"0  c #09164D",
"q  c #161D45",
"w  c #131D4C",
"e  c #0D1C52",
"r  c #0B1D5A",
"t  c #06145A",
"y  c #121D56",
"u  c #1F2C40",
"i  c #19204E",
"p  c #122055",
"a  c #222E40",
"s  c #2D394F",
"d  c #273245",
"f  c #343747",
"g  c #2E3B54",
"h  c #0B1D64",
"j  c #021669",
"k  c #041B6D",
"l  c #0A1E6C",
"z  c #031366",
"x  c #111F62",
"c  c #041D74",
"v  c #021F78",
"b  c #0F2162",
"n  c #0E236D",
"m  c #052175",
"M  c #082072",
"N  c #022179",
"B  c #1B2B72",
"V  c #292F63",
"C  c #233267",
"Z  c #202D74",
"A  c #2E3771",
"S  c #373E74",
"D  c #2B436F",
"F  c #324364",
"G  c #374868",
"H  c #3A4D6D",
"J  c #34476C",
"K  c #2B4170",
"L  c #3F4171",
"P  c #3C4F72",
"I  c #3D5174",
"U  c #3C557C",
"Y  c #674F48",
"T  c #725443",
"R  c #7F5D4A",
"E  c #695654",
"W  c #7E614F",
"Q  c #4B466A",
"!  c #5A5069",
"~  c #474574",
"^  c #40577B",
"/  c #5E5473",
"(  c #615678",
")  c #6B5B73",
"_  c #7E686A",
"`  c #7C6A7E",
"'  c #80604C",
"]  c #986A4D",
"[  c #846251",
"{  c #8A6652",
"}  c #8D6955",
"|  c #906652",
" . c #916A56",
".. c #956D59",
"X. c #996F58",
"o. c #97705D",
"O. c #9B725C",
"+. c #967668",
"@. c #9C7565",
"#. c #89737D",
"$. c #97787C",
"%. c #9F7E7F",
"&. c #90767B",
"*. c #A17763",
"=. c #A47964",
"-. c #AD7D64",
";. c #A97F68",
":. c #A07F7B",
">. c #AB826B",
",. c #B18065",
"<. c #B3846C",
"1. c #A7867C",
"2. c #B18770",
"3. c #B78972",
"4. c #BE8C73",
"5. c #B28A7F",
"6. c #C48C6C",
"7. c #C18F76",
"8. c #C49278",
"9. c #CD957A",
"0. c #CE997E",
"q. c #C89377",
"w. c #D29A7E",
"e. c #3F5883",
"r. c #385587",
"t. c #264891",
"y. c #3B5C95",
"u. c #3E5F99",
"i. c #355691",
"p. c #3F6099",
"a. c #415B83",
"s. c #485D80",
"d. c #425E8C",
"f. c #4C618C",
"g. c #57698E",
"h. c #446295",
"j. c #446499",
"k. c #4A6A9C",
"l. c #4B6492",
"z. c #516E9E",
"x. c #566A91",
"c. c #54719F",
"v. c #7C7787",
"b. c #4D6BA0",
"n. c #8B7E86",
"m. c #958285",
"M. c #9E8684",
"N. c #9B8488",
"B. c #AC8C85",
"V. c #B28D84",
"C. c #B59184",
"Z. c #C19684",
"A. c #CD9A81",
"S. c #D49E83",
"D. c #D49D81",
"F. c #D29D81",
"G. c #D6A185",
"H. c #D4A185",
"J. c #D8A286",
"K. c #DBA286",
"L. c #D7A388",
"P. c #DAA489",
/* pixels */
"                                                                                                ",
"                                                                                                ",
"                                                                                                ",
"                                                  2 2 > q i                                     ",
"                                                < p w y y x                                     ",
"                                              1 r M l l l l q                                   ",
"                                      w r h h h M M c M l l q                                   ",
"                                    e k c c c c m M N N l l w                                   ",
"                                  9 c v c c v v m v c c c c w                                   ",
"                                  h c v c v N c v Z k l l l x                                   ",
"                                y c v v v N N c Z n.) Z l C p q                                 ",
"                                e m v v v N c j ~ S.K.V.` #.                                    ",
"                                r c c v N c c j / J.P.K.G.<.                                    ",
"                                r c c v c k j l &.D.G.w.<.{                                     ",
"                                r c c c k S ! w E O.O.O.W 5 &                                   ",
"                                e k j c k 1.F.Q ) F.0.w.=.4 @                                   ",
"                                0 M k j x @.K.5.$.G.J.J.8.7 ;                                   ",
"                                , k k j V ] w.J.H.J.L.J.G.<.W 8                                 ",
"                                  t z k K ,.,.H.G.G.J.H.w.9.o.                                  ",
"                                  0 n A #.0.7.w.F.w.J.G.6.O.6                                   ",
"                                    Q &.A.F.w.H.G.w.S.K.w.O.                                    ",
"                                    Y 8.A.0.w.w.D.G.w.w.<.8                                     ",
"                                      R 7.0.0.9.w.w.7.X.                                        ",
"                                        3.0.9.9.0. .6                                           ",
"                                        >.} T W >.W                                             ",
"                                        ; @ X O - 5                                             ",
"                                      O . X o o O +                                             ",
"                                    + . X X o O + O +                                           ",
"                                    O . O O o O + O O +                                         ",
"                                    O O o O O O O O O O                                         ",
"                                    . X o o o o O o O O                                         ",
"                                    O X o O o o O O O O                                         ",
"                                    O X X O O O O O O O                                         ",
"                                    O X O $ $ % $ O O +                                         ",
"                                    + . : @.=.-.[ + O +                                         ",
"                                    + o : 7.F.0...O O $                                         ",
"                                    $ . & <.0.w.{ O O $                                         ",
"                                    + X $ =.w.9.| # + $                                         ",
"                                    + . + o.w.9. .# O $                                         ",
"                                    3 u 3 +.w.9.@.* *                                           ",
"                                    D i.h.M.w.0.1.^ U d                                         ",
"                                    K t.h.C.H.H.A.m.l.g                                         ",
"                                    H y.f.C.J.J.G.C.f.g                                         ",
"                                    H p.f.Z.w.G.w.V.f.s                                         ",
"                                    s i.f.B.w.w.w.m.e.                                          ",
"                                      F h.g.v.m.m.x.e.                                          ",
"                                        f.p.p.y.h.j.e.                                          ",
"                                        e.j.p.y.j.j.I                                           ",
"                                        a.k.j.y.k.h.G                                           ",
"                                        ^ k.p.u.k.h.g                                           ",
"                                        I k.p.p.k.h.g                                           ",
"                                        P z.j.p.j.d.                                            ",
"                                        P c.k.j.j.a.                                            ",
"                                        P z.b.j.j.P                                             ",
"                                        P z.b.j.h.J                                             ",
"                                        I b.j.j.h.F                                             ",
"                                        I k.u.h.d.g                                             ",
"                                        J h.y.h.s.f                                             ",
"                                        E B.N.B.V.*.                                            ",
"                                        ..K.J.J.J.J.8.@.                                        ",
"                                        ' 7.4.<.3.A.A.8.<.[                                     ",
"                                                                                                ",
"                                                                                                "
};
