/* XPM */
static char *_0f8c2e8a27e4b0997a6eed1cd1ec6c1uz0XBbjWdRiyRyWs[] = {
/* columns rows colors chars-per-pixel */
"48 63 201 2 ",
"   c None",
".  c #0D0B05",
"X  c #0E0E08",
"o  c #130E05",
"O  c #100F0A",
"+  c #161006",
"@  c #191206",
"#  c #131109",
"$  c #1D160B",
"%  c #1E180D",
"&  c #1A1811",
"*  c #231A0C",
"=  c #201608",
"-  c #221D14",
";  c #291F15",
":  c #2B251B",
">  c #3A2B1B",
",  c #312B1F",
"<  c #312F29",
"1  c #2A2B3C",
"2  c #302F38",
"3  c #383731",
"4  c #2A333D",
"5  c #44413A",
"6  c #76543D",
"7  c #6A4C36",
"8  c #1B275C",
"9  c #2A2E4B",
"0  c #242845",
"q  c #2D3745",
"w  c #363E4A",
"e  c #222B53",
"r  c #202C5F",
"t  c #273258",
"y  c #091F6C",
"u  c #041E73",
"i  c #09226F",
"p  c #1C2C63",
"a  c #192A6D",
"s  c #15276D",
"d  c #052175",
"f  c #0B2473",
"g  c #03257D",
"h  c #0A267C",
"j  c #03287F",
"k  c #0B2A7D",
"l  c #102673",
"z  c #152A74",
"x  c #122B7A",
"c  c #0F317F",
"v  c #19337C",
"b  c #212E61",
"n  c #233161",
"m  c #253A74",
"M  c #364254",
"N  c #3C4555",
"B  c #3A485D",
"V  c #3F516B",
"C  c #334276",
"Z  c #3B5377",
"A  c #5C5654",
"S  c #534E49",
"D  c #785B49",
"F  c #6B5B57",
"G  c #6E645D",
"H  c #44516E",
"J  c #50596E",
"K  c #514F75",
"L  c #445878",
"P  c #5B5A77",
"I  c #434972",
"U  c #625D76",
"Y  c #5E6679",
"T  c #6B6962",
"R  c #76697D",
"E  c #79747B",
"W  c #815E48",
"Q  c #86614A",
"!  c #88644E",
"~  c #846552",
"^  c #8D6A55",
"/  c #876A59",
"(  c #926B53",
")  c #916E5C",
"_  c #9C745E",
"`  c #9D7257",
"'  c #91694F",
"]  c #A2755B",
"[  c #A3755A",
"{  c #867E77",
"}  c #927667",
"|  c #A47B66",
" . c #AB7D62",
".. c #A67E69",
"X. c #84827C",
"o. c #BC8769",
"O. c #B28974",
"+. c #BC8D74",
"@. c #B28974",
"#. c #CC9575",
"$. c #C5967E",
"%. c #CC997D",
"&. c #D49B7B",
"*. c #DA9E7B",
"=. c #D49876",
"-. c #C28B6C",
";. c #DCA17F",
":. c #032781",
">. c #082780",
",. c #042A84",
"<. c #092982",
"1. c #0D2982",
"2. c #092A84",
"3. c #092C86",
"4. c #0D2B84",
"5. c #022E8A",
"6. c #052E89",
"7. c #012C88",
"8. c #0A2E8A",
"9. c #102C82",
"0. c #02328D",
"q. c #02318A",
"w. c #3D5A8A",
"e. c #244F99",
"r. c #2A569C",
"t. c #2D5A9E",
"y. c #3C5D91",
"u. c #345B9C",
"i. c #345897",
"p. c #394B81",
"a. c #3B609B",
"s. c #2B5AA4",
"d. c #275AA7",
"f. c #325DA2",
"g. c #355FA5",
"h. c #3A64A4",
"j. c #3964A6",
"k. c #495887",
"l. c #565983",
"z. c #45638D",
"x. c #49699A",
"c. c #56719B",
"v. c #7F6E83",
"b. c #747D98",
"n. c #6C788E",
"m. c #456BA4",
"M. c #4B6EA2",
"N. c #446DAA",
"B. c #4166A3",
"V. c #4C73AB",
"C. c #4E73A7",
"Z. c #5373A5",
"A. c #5276AB",
"S. c #5379AE",
"D. c #5C7BAC",
"F. c #5876A6",
"G. c #4E76B1",
"H. c #557CB3",
"J. c #597EB3",
"K. c #967E87",
"L. c #5C82B5",
"P. c #798CA7",
"I. c #898984",
"U. c #978A86",
"Y. c #9C9B95",
"T. c #9F9F99",
"R. c #979791",
"E. c #958F91",
"W. c #A88B87",
"Q. c #A49A95",
"!. c #BC9381",
"~. c #A5A29B",
"^. c #94A7BF",
"/. c #ACACA6",
"(. c #B2B2AC",
"). c #B9B9B4",
"_. c #CE9D87",
"`. c #C59985",
"'. c #D29F87",
"]. c #DCA385",
"[. c #DAA58B",
"{. c #D9A489",
"}. c #D0A290",
"|. c #E1A684",
" X c #E1A88A",
".X c #E4AE94",
"XX c #D6BEAF",
"oX c #C2C2BD",
"OX c #D6C3B7",
"+X c #9CADC2",
"@X c #A7B4C5",
"#X c #C5C5C1",
"$X c #CACAC5",
"%X c #CDCECA",
"&X c #D7CBC2",
"*X c #CFD1CD",
"=X c #D3D3CE",
"-X c #D5D6D1",
";X c #D6D8D3",
":X c #D8D8D3",
">X c #D8D7D1",
/* pixels */
"                                                                                                ",
"                                                                                                ",
"                                                                                                ",
"                                                                                                ",
"                                                    2                                           ",
"                                              2   e p   9 1                                     ",
"                                            n r e x x e a e                                     ",
"                                    9 t   n x x x 1.x z 8.a                                     ",
"                                    a z p 4.1.1.1.1.2.4.8.x 0                                   ",
"                                  b 1.1.4.1.1.<.2.<.3.2.8.k 0                                   ",
"                                t x 2.>.2.2.<.<.<.<.2.2.8.z                                     ",
"                              9 a 9.1.<.2.2.<.<.<.<.,.2.2.k 0                                   ",
"                            9 a 1.<.2.2.,.2.,.<.>.<.<.,.<.h s 0                                 ",
"                            p 4.<.2.6.6.5.2.,.,.>.g >.>.g <.h 8                                 ",
"                          9 c 3.2.5.0.0.5.5.5.6.,.g >.<.<.<.<.l 0                               ",
"                          r 9.3.7.5.5.5.5.5.5.6.,.<.>.2.<.<.<.h 8                               ",
"                          b k 3.6.5.0.0.5.5.5.7.,.g >.,.,.3.,.k 8                               ",
"                          b k 3.6.0.0.5.5.5.5.5.,.<.:.,.,.,.,.<.8                               ",
"                          t j ,.,.0.0.q.5.5.5.5.,.:.:.:.,.>.j h r                               ",
"                        ~ Y k >.,.q.,.,.,.5.5.5.,.>.:.,.,.j g f K )                             ",
"                        | K.h >.,.,.g j ,.q.5.,.:.:.:.:.>.j f i R  .                            ",
"                        ..`.p.g g g j g j ,.,.,.:.g g g j j y s W...                            ",
"                        ) .XU.1.d g j j g g :.:.:.:.:.:.g h i I $.^                             ",
"                          +.}.k.k g j j g g g g :.5.:.g g u C !.o.                              ",
"                          D | +.k.g :.g u :.7.5.5.5.:.g d y U |                                 ",
"                              ~ R d g g :.u 7.5.7.:.g y i P G                                   ",
"                                A m 9.g u u :.:.:.g d d C /                                     ",
"                                  A H C <.u u g u x P n                                         ",
"                                      S m u u k x v./ : <                                       ",
"                                  X.I.W.v.m l.K.W.[._ $ @ $ $ % * -                             ",
"                          I.~.(.oX%X=XOX_.W.[. X X X+.; o + + + @ @ =                           ",
"                        R.$X>X>X>X:X=XOX[.[.[.[.[.[...& + + + + o @ @                           ",
"                      I.=X-X-X-X-X-X-X=XOXOXOXOXOXOX~.* X + + + @ + + $                         ",
"                    T oX>X-X=X-X-X=X=X=X-X-X-X=X=X>X/.- o o + + @ + @ @                         ",
"                    T.>XoXoX-X-X=X-X=X*X=X-X=X=X=X>XY.* o o + + @ @ @ @                         ",
"                  T #X;X/.T.>X*X=X=X=X-X-X*X=X=X=X=XT X o o o + @ @ @ @                         ",
"                  R.-X;X).R.;X-X-X=X*X*X-X*X=X*X>X/.: X + + o + + + @ @ =                       ",
"                  (.;X-XoXI.*X-X*X=X-X=X-X-X-X-X/.5 X X o o o . + o o @ *                       ",
"                  I.*X-X$XI.%X-X*X-X=X*X-X=X).X., # # X . o o . . o @ @ =                       ",
"                    R.-X-XI.#X-X=X=X-X-X#XX.< O X # # . o . . . o o @ o @ :                     ",
"                    G ~.>XT.).;X=X=X-XOXA # . . # O O . . . . . @ o @ > >                       ",
"                    ) @.Q./.(.;X-X=X-XP.& X X X X . o . . o . o @ > Q o.                        ",
"                    D '.$.{ T.;X=X-X$XS . X . . . o o o o . o = 6 -.*.#.D                       ",
"                      O..X!.U.-X-X-XoX3 . X . . . o o o o . o -  .*.*.#.W                       ",
"                      / {._.{ %X-X-XoX3 . . . . . . O O o o o $ ' =.*.=.!                       ",
"                        ) _ A #X=X:X=XS . . . . . X o o o o o     -.*.=.^                       ",
"                              ).:X:X:XY.& . . . . o . . O & *     [ *.&.(                       ",
"                              P.^.+X@X+Xn.4 q 9 w B B V L L L w   ! =.&.(                       ",
"                              m.N.N.G.G.L.S.V.j.A.Z.V.V.B.B.B.N   6 #.*.o.D                     ",
"                            B h.d.j.j.j.j.L.j.e.C.f.s.f.B.u.i.B   Q =.].]. .                    ",
"                            M u.s.L.G.H.j.H.V.e.V.t.V.D.D.Z.i.w   [ -.&.|. .                    ",
"                              a.d.G.L.L.V.L.N.e.C.t.V.D.D.F.w.w    .[ =.;. .                    ",
"                              a.s.d.V.G.V.H.V.r.A.s.u.A.Z.a.z.N     ' ;.=.(                     ",
"                              Z h.s.r.j.G.H.N.u.M.m.f.u.r.u.y.M     7 [ `                       ",
"                              H V.h.a.s.j.h.y.k.u.u.u.u.i.i.w.                                  ",
"                                C.G.V.C.S.C.L   M.M.Z.F.F.x.H                                   ",
"                                z.S.S.S.H.x.    z.Z.Z.F.Z.z.                                    ",
"                                E Z.C.A.F.Y     J x.M.M.c.E                                     ",
"                                `.U.P.n.Q.@.    @.E.b.b.W.$.                                    ",
"                                $.].].].|.+.    #.].{.].|.%./                                   ",
"                                ^ | .. ._ ~     W _ ] | ] !                                     ",
"                                                                                                ",
"                                                                                                "
};
