/* XPM */
static char *_3d24b715e8b4e5da8b6650b0ca430f8gQm76rL1o7W3cgcC[] = {
/* columns rows colors chars-per-pixel */
"48 63 196 2 ",
"   c None",
".  c #080703",
"X  c #070805",
"o  c #0B0A06",
"O  c #080905",
"+  c #110E07",
"@  c #110F08",
"#  c #141109",
"$  c #1D180E",
"%  c #18140C",
"&  c #1E1B11",
"*  c #141411",
"=  c #231E16",
"-  c #262217",
";  c #25231C",
":  c #2B251B",
">  c #2E281D",
",  c #191F26",
"<  c #1B232D",
"1  c #252B3B",
"2  c #3B3A35",
"3  c #403023",
"4  c #674D3E",
"5  c #1E2446",
"6  c #1C295D",
"7  c #1F2655",
"8  c #222C5B",
"9  c #222A52",
"0  c #27314E",
"q  c #061F74",
"w  c #051F79",
"e  c #081F71",
"r  c #1A2966",
"t  c #0C2576",
"y  c #06237C",
"u  c #0A257A",
"i  c #0A267A",
"p  c #142A71",
"a  c #13297C",
"s  c #172A76",
"d  c #28397C",
"f  c #3A3E70",
"g  c #2D415F",
"h  c #36445A",
"j  c #384255",
"k  c #2E4468",
"l  c #3B4B67",
"z  c #3E506B",
"x  c #394A7B",
"c  c #534E57",
"v  c #58565A",
"b  c #494842",
"n  c #6A4F40",
"m  c #6E5242",
"M  c #755848",
"N  c #7F624F",
"B  c #766358",
"V  c #45536F",
"C  c #454B79",
"Z  c #43567A",
"A  c #42597E",
"S  c #415371",
"D  c #404C67",
"F  c #695F78",
"G  c #746967",
"H  c #796A7B",
"J  c #78766F",
"K  c #825D4E",
"L  c #82624E",
"P  c #846352",
"I  c #8C6B56",
"U  c #886958",
"Y  c #926B5A",
"T  c #9A715E",
"R  c #876D65",
"E  c #926E61",
"W  c #9A7765",
"Q  c #8B767E",
"!  c #8F7265",
"~  c #A37B65",
"^  c #AB7E6A",
"/  c #818079",
"(  c #A9826C",
")  c #B2866F",
"_  c #AD8676",
"`  c #B48671",
"'  c #BB8B73",
"]  c #B98E79",
"[  c #B48974",
"{  c #BD917B",
"}  c #BF9076",
"|  c #C08F75",
" . c #C3937D",
".. c #CD997D",
"X. c #CD967D",
"o. c #052684",
"O. c #0A2783",
"+. c #062984",
"@. c #0C2985",
"#. c #032789",
"$. c #052B8D",
"%. c #052C8E",
"&. c #04298A",
"*. c #092989",
"=. c #092D8E",
"-. c #0B2B8B",
";. c #122A80",
":. c #032D91",
">. c #092E90",
",. c #3A5583",
"<. c #37588E",
"1. c #2A5294",
"2. c #2F599C",
"3. c #28549A",
"4. c #335D9D",
"5. c #3E5F97",
"6. c #3D4780",
"7. c #3D619C",
"8. c #345EA2",
"9. c #3661A3",
"0. c #3C65A4",
"q. c #3E68A5",
"w. c #455B82",
"e. c #455987",
"r. c #5A5A85",
"t. c #49638E",
"y. c #466494",
"u. c #4A6697",
"i. c #4A6798",
"p. c #4C6A9C",
"a. c #45689B",
"s. c #546993",
"d. c #717D8F",
"f. c #60789F",
"g. c #676284",
"h. c #4167A2",
"j. c #456AA3",
"k. c #4A6DA3",
"l. c #466CA9",
"z. c #486FA8",
"x. c #4E70A6",
"c. c #4C71AA",
"v. c #5271A7",
"b. c #5375AB",
"n. c #5578AE",
"m. c #5978AF",
"M. c #597BB1",
"N. c #577AB2",
"B. c #857886",
"V. c #9A7F80",
"C. c #8F8E86",
"Z. c #9B8686",
"A. c #95948E",
"S. c #9B918A",
"D. c #9B9A95",
"F. c #999893",
"G. c #A98A87",
"H. c #B38E83",
"J. c #AE9280",
"K. c #B6948A",
"L. c #A09F9B",
"P. c #A3A29E",
"I. c #8096B9",
"U. c #92A3BE",
"Y. c #A9A9A4",
"T. c #AFAEAB",
"R. c #B3B2AE",
"E. c #BAB9B5",
"W. c #BEBEB9",
"Q. c #B7B7B3",
"!. c #CD9C84",
"~. c #C69B8B",
"^. c #D49D83",
"/. c #D89E83",
"(. c #D3A085",
"). c #DAA185",
"_. c #DBA68C",
"`. c #DDA98E",
"'. c #DBAC93",
"]. c #E1AA8D",
"[. c #E1A788",
"{. c #E2AD91",
"}. c #D6BCAC",
"|. c #D7B8A7",
" X c #C2C2BE",
".X c #D5C3B7",
"XX c #9FADC2",
"oX c #A3B0C4",
"OX c #BFC0C0",
"+X c #CECECB",
"@X c #C7C7C3",
"#X c #D6CCC3",
"$X c #CFD0CB",
"%X c #D2D2CE",
"&X c #D4D4D1",
"*X c #D7D8D4",
/* pixels */
"                                                                                                ",
"                                                                                                ",
"                                                8 r 0 6 8                                       ",
"                                            8 8 ;.;.6 ;.s                                       ",
"                                      8 9 p ;.;.-.@.*.=.@.5                                     ",
"                                    9 a a ;.-.;.@.*.>.>.;.5                                     ",
"                                    r O.-.-.;.@.@.@.>.%.u 1                                     ",
"                                  7 a O.*.=.>.*.@.*.*.O.;.p                                     ",
"                                6 a @.@.*.%.%.&.*.*.#.%.#.*.s                                   ",
"                                p O.@.*.&.>.%.#.o.#.:.:.:.*.;.8                                 ",
"                              9 a O.&.&.%.%.%.#.o.#.:.:.:.%.O.p                                 ",
"                              6 O.O.+.&.&.%.&.+.#.>.$.$.:.:.*.p                                 ",
"                              r O.O.i &.*.*.&.+.#.#.&.&.&.:.&.u                                 ",
"                              r a &.O.y *.&.+.+.#.#.&.#.&.&.o.u                                 ",
"                              f i +.y +.+.u o.o.#.o.#.#.#.#.O.u F                               ",
"                            ~ F u i +.y +.u o.o.o.#.#.#.#.o.y y B.W                             ",
"                            ~ G.d y y y y y o.o.o.o.o.o.o.w y u B.I                             ",
"                              (.r.y y y y y y o.o.o.o.o.o.w u d R                               ",
"                              ~ Q e.t y u y u y o.o.o.y w e x G                                 ",
"                                Y H.x t u y w w y y w w t r D                                   ",
"                                  Y _ g.u y w w q y t s H c                                     ",
"                                    P W Z ;.u w t x s H W                                       ",
"                                        U K.d e C ~.Q M                                         ",
"                                    C.F.K.`.Z.B.~.{.{ > & - > ;                                 ",
"                            F.R. X X$X&X.X`.].].'.{.{ = @ @ # # $                               ",
"                          F.%X&X*X*X&X&X|.`.`.].`.].{ : @ @ # @ # -                             ",
"                          W.%X%X*X%X&X&X.X`...[.`.'.H.; @ @ o o @ $                             ",
"                        D.$XY.$X%X%X%X%X&X.X.X|.}.#XE.: + # # # + # :                           ",
"                        E.%XP.%X%X%X%X%X$X&X&X&X&X*XR.- @ @ # # # + &                           ",
"                      F.$X%XP. X%X%X%X%X&X$X$X&X&X&XJ # + o # # @ @ $                           ",
"                      R.&X&XP. X%X%X%X$X$X&X%X&X&XF.- o o o @ # # @ # -                         ",
"                      @X&X*XY.E.&X%X%X%X%X&X&X@X/ ; + o o o + + @ # # $                         ",
"                    D.&X&X&XT.R.&X+X%X%X%X%XY.b * o O o o o + + + + + $                         ",
"                      Y.@X&XQ.T.&X%X%X%X%XA.; o O o O o o o + + o # =                           ",
"                        B S.D.Y.&X%X%X%XOX2 X O o o o O O o + + 3 U                             ",
"                        M ~.~ A.%X%X%X&XY.* X O @ o o O O o $ P ..!.                            ",
"                        I _.!.Z.%X%X%X&XA.o X X O o o o o o : X.]...                            ",
"                        ~ _.) G $X%X%X&XD.@ . . o o o o o O = ' ].^.                            ",
"                        ) _.~ v OX$X&X&XOX2 . . O . . @ o *   ~ `.(.L                           ",
"                         ._.I   v.I.XXXXoXd.1 , , < 1 0 V A j P ).).I                           ",
"                      U !.!.n f 7.0.q.z.c.b.l.a.a.a.k.j.l.k.S 4 ..[.`                           ",
"                    ! { _.~.  g 4.2.9.9.l.c.q.q.l.j.h.j.j.j.A   | ].`.W                         ",
"                    ] _.^. .4 k 2.9.l.c.l.c.9.0.c.0.c.n.c.j.A   ' (.{.}                         ",
"                    ] _.` ( 4 g 3.9.l.c.l.b.8.0.c.q.c.b.z.h.A 4 ( ` {. .                        ",
"                    [ _.( P     1.3.9.8.l.b.q.q.k.l.k.b.0.j.Z   4 ' _.~                         ",
"                    B _ !       <.2.3.q.0.8.3.3.2.q.j.7.4.v.V     M Y                           ",
"                                5.q.l.l.l.l.k k 0.k.b.h.j.k.l                                   ",
"                                5.l.c.n.b.l.h l j.j.x.x.v.p.j                                   ",
"                                p.M.M.M.N.k.h l j.v.v.b.b.s.                                    ",
"                                i.M.M.M.n.p.0 l j.v.v.b.m.t.                                    ",
"                                y.c.n.m.n.x.    y.x.x.v.x.e.                                    ",
"                                y.b.m.m.n.s.    A k.x.x.k.D                                     ",
"                                y.b.m.n.b.t.    c s.k.k.s.c                                     ",
"                                <.c.n.b.b.e.    T G.B.B.] P                                     ",
"                                ,.x.b.b.v.w.    ^ [./././.Y                                     ",
"                                ,.j.x.c.x.A     M ~ ' | ~ n                                     ",
"                                ,.7.h.j.x.Z                                                     ",
"                                x 7.7.7.j.Z                                                     ",
"                                D y.7.7.s.V                                                     ",
"                                Y H.Z.G.K.E                                                     ",
"                                Y X././.^.T                                                     ",
"                                  K Y Y K                                                       ",
"                                                                                                "
};
