/* XPM */
static char *a4e51a1cf1f64886d84cd3cc05ca48b2BlQOr3At0BgB84zx[] = {
/* columns rows colors chars-per-pixel */
"39 64 212 2 ",
"   c None",
".  c #070604",
"X  c #090704",
"o  c #0A0906",
"O  c #0D0B09",
"+  c #110F0C",
"@  c #150C07",
"#  c #12100D",
"$  c #161311",
"%  c #231C17",
"&  c #29160F",
"*  c #25221F",
"=  c #34261D",
"-  c #131228",
";  c #0C133A",
":  c #0E1435",
">  c #191A3D",
",  c #0A0D35",
"<  c #1B283A",
"1  c #2C2A27",
"2  c #392E27",
"3  c #24293E",
"4  c #353330",
"5  c #411B10",
"6  c #4B271B",
"7  c #46352B",
"8  c #593729",
"9  c #453E3A",
"0  c #4F2C22",
"q  c #66382B",
"w  c #54443C",
"e  c #67493A",
"r  c #764939",
"t  c #7C4C3D",
"y  c #040B4C",
"u  c #050A43",
"i  c #0A1646",
"p  c #111B42",
"a  c #020B54",
"s  c #010E59",
"d  c #000750",
"f  c #041356",
"g  c #0B1456",
"h  c #02135D",
"j  c #0A1B59",
"k  c #111D5B",
"l  c #18294A",
"z  c #172257",
"x  c #282946",
"c  c #24324C",
"v  c #273245",
"b  c #23275A",
"n  c #2C3D58",
"m  c #3F365D",
"M  c #021563",
"N  c #041A65",
"B  c #041D6C",
"V  c #0A1D62",
"C  c #07216D",
"Z  c #052171",
"A  c #102568",
"S  c #3E3C64",
"D  c #2D3265",
"F  c #47385D",
"G  c #32435E",
"H  c #2C4469",
"J  c #354968",
"K  c #2C4973",
"L  c #224372",
"P  c #354F75",
"I  c #334E7A",
"U  c #38537B",
"Y  c #524D4A",
"T  c #494553",
"R  c #56514E",
"E  c #654946",
"W  c #6F5444",
"Q  c #745544",
"!  c #7C5D4C",
"~  c #7A5747",
"^  c #665A58",
"/  c #775854",
"(  c #6B4B52",
")  c #69635F",
"_  c #75625C",
"`  c #4B4968",
"'  c #455472",
"]  c #6A5A6F",
"[  c #6E6966",
"{  c #7B7673",
"}  c #726673",
"|  c #854B3B",
" . c #8E523F",
".. c #8C5B4A",
"X. c #875646",
"o. c #925B4A",
"O. c #9C5E4D",
"+. c #9A5844",
"@. c #A55E4B",
"#. c #86604E",
"$. c #9E614D",
"%. c #886655",
"&. c #956453",
"*. c #9D6453",
"=. c #9B715C",
"-. c #A6614E",
";. c #AC6451",
":. c #A76B56",
">. c #B36B55",
",. c #B86F58",
"<. c #B6725C",
"1. c #BB725D",
"2. c #B06B56",
"3. c #856663",
"4. c #9A7563",
"5. c #837876",
"6. c #977D75",
"7. c #AC7460",
"8. c #A37A65",
"9. c #A6796A",
"0. c #BB7A64",
"q. c #B67561",
"w. c #C5735D",
"e. c #C37B64",
"r. c #CC7A63",
"t. c #C47660",
"y. c #D17C65",
"u. c #8C827F",
"i. c #AC8169",
"p. c #BA836C",
"a. c #B6866B",
"s. c #B78974",
"d. c #AF8671",
"f. c #C4846C",
"g. c #CA856C",
"h. c #D4856B",
"j. c #D68A6F",
"k. c #DA886C",
"l. c #C48C76",
"z. c #CE8A73",
"x. c #CF8F78",
"c. c #D28C72",
"v. c #DB8D72",
"b. c #D08771",
"n. c #C39176",
"m. c #CD9A7E",
"M. c #C9957A",
"N. c #D59176",
"B. c #D39179",
"V. c #DC9176",
"C. c #E29275",
"Z. c #183D82",
"A. c #1B4487",
"S. c #244A86",
"D. c #254B8A",
"F. c #254A85",
"G. c #2A508C",
"H. c #3A5683",
"J. c #36598E",
"K. c #3B5B8B",
"L. c #3B5986",
"P. c #2A5393",
"I. c #355A92",
"U. c #3B5E94",
"Y. c #325995",
"T. c #314F83",
"R. c #3D6196",
"E. c #3D649A",
"W. c #47628E",
"Q. c #426396",
"!. c #42669A",
"~. c #456A9E",
"^. c #4A6B9D",
"/. c #496493",
"(. c #667696",
"). c #466CA1",
"_. c #496EA1",
"`. c #4B70A3",
"'. c #8B8381",
"]. c #9C8482",
"[. c #9B8F8D",
"{. c #938987",
"}. c #99918E",
"|. c #9E9D98",
" X c #AC8D83",
".X c #A69A99",
"XX c #BA9483",
"oX c #ACA09E",
"OX c #B1A6A5",
"+X c #BAADAD",
"@X c #B5AAA8",
"#X c #B6B0AD",
"$X c #BDB3B2",
"%X c #BFBEBA",
"&X c #A9A1A0",
"*X c #CA9981",
"=X c #D29A82",
"-X c #D7A185",
";X c #D9A588",
":X c #CCA49A",
">X c #C6ADAA",
",X c #C2B6B5",
"<X c #CAB9B4",
"1X c #C6BBB9",
"2X c #CABEBC",
"3X c #C6B9B5",
"4X c #CCC0BF",
"5X c #C3C0BB",
"6X c #CEC3C1",
"7X c #C7C1C0",
"8X c #D3C8C6",
"9X c #D2C7C5",
/* pixels */
"                                                                              ",
"                                                                              ",
"                                                                              ",
"                                      i p                                     ",
"                              > p   i h g : ;                                 ",
"                              j j p C C M a g i -                             ",
"                            j C C N B M h h s h i ;                           ",
"                            j C B B B B M h M s s y                           ",
"                          p Z Z B B M B M M M s s i                           ",
"                        z C Z B B M B M M s s s s y u                         ",
"                      l Z B B Z Z B M M M s s s a a a u                       ",
"                      j B B B B B C M D ] k s b F g s a                       ",
"                      g B B N N ` (.3.s.e.} 3.9.9.b a d -                     ",
"                      j N N M S 9.*Xy.=X=Xe.q.e.e.F d d -                     ",
"                    ; M V V b 3.0.=X=Xv.y.*.+.O.;.( y d ,                     ",
"                    ; g V ` ( %.7.y.v.=Xy.7.X.| ( Q > u -                     ",
"                    : g > R 7 2 X.X.<.g.$. .= @ 8 O.x > |                     ",
"                    _ T b %.= & :.7.r ..t ,.0 @ X.q.x E t.q                   ",
"                    s._ S 4.8 6 f.1.$.k.$.w.q 5 ;.r./ o.1.q                   ",
"                    d.%.4.l. .| k.:.$.v.$.w.@.+.w.w.+.:.-.                    ",
"                    4.8.#.l.f.f.N. .>.C.>. .-.;.@.| | -.q                     ",
"                    e 4.W ! %.&.#.$.,.k.k.>.-.-.;.>.|                         ",
"                        e =.p.p.f.k.k.g.>.,.y.w.r.@.                          ",
"                          e 7.c.c.k.f.w.h.k.y.y.-.                            ",
"                              *.g.k.v.C.k.k.w.+.                              ",
"                                #.h.h.k.h.h.X.                                ",
"                              O ~ N.v.v.j.h.7._ ^ R w                         ",
"                      + O O O O #.c.c.V.j.h.z.>X>XOX&X}.5.Y                   ",
"                  O O . . o O O &.N.j.c.v.h.g.>X1X,X,X+X,Xu.                  ",
"                  # . . . O O . w M.N.v.N.N.:X<X2X1X1X,X+X.X                  ",
"                  O o . o o o o R %X5X5X5X<X4X<X,X1X1X,Xu.OX]                 ",
"                O o . o o o o o [ %Xu.R u.4X4X4X2X4X1X+X].+X5.                ",
"                . O o o . o O o ) #X1 . 2 ,X6X6X6X6X4XoX[.1X{.                ",
"                O . O O . . O o 1 |.Y 1 ) 2X6X6X2X2X4X}..X$X.X                ",
"              # o o O O . O O O . 9 '.{.#X6X4X6X2X2X2X{.+X,X@X^               ",
"              + O . . O o O O O . . O 1 9 { 5X6X6X6X,X{.1X1X$X^               ",
"                o . o o . . o . . o o . . o ^ 4X8X8X@X.X1XOXu.                ",
"                  w = # . o O . . . # 4 * O # }.8X8X[.6.6.~                   ",
"                  a.n.e O . O O o . Y %X{.$ . ) 9X6X3.;.e.:.                  ",
"                  s.;X! O . O O . o 9 |.{ + . ^ 6X5XW 1.v.<.                  ",
"                  n.m.Q + o . O O o o $ + o X ) 7X&X7 :.V.0.                  ",
"                e m.M.w # o . . o . o o o o # } (.'   o.c.0.q                 ",
"                W m.s.  G L c c < < < < l l H S.F.I   r z.l.e                 ",
"                i.;Xi.  K Y.P.Y.E.G.Y.E.G.S.I.G.Z.T.v   0.c.X.                ",
"              =.-X;Xi.  K P.E.).E.P.Y.E.S.S.J.I.D.S.c   <.b.0.r               ",
"              s.;XM.i.  L E._._.`.R.Y.E.S.G.I.J.U.D.l q :.0.g.&.              ",
"              a.;Xa.%.2 I `.).E.).P.S.L A.D.I.J.J.K.c 8 X.0.g...              ",
"              ! s.=.    P `.).).E.E.K c I.R.R.J.U.J.c   0 :.7.e               ",
"                        P `.).)._._.J 3 Q.!.!.R.Q.K.v                         ",
"                        J E.E._.`.^.n   K.!.^.^.^.K.3                         ",
"                        G R.E.^._.Q.    K.E.~.`.^.L.3                         ",
"                          K.E.~.`.'     U !.!.^.`.L.                          ",
"                          U E.E.^.J     U U.Q.^.~.P                           ",
"                          T W.!.(._     U U.Q.!.Q.J                           ",
"                          8. X[.XX8.    H U.Q.Q.Q.G                           ",
"                          s.m.m.M.M.#.  H U.Q.Q.K.n                           ",
"                          ! ! _ W %.    J U./.Q.K.v                           ",
"                                        J Q.^./.U                             ",
"                                        G /././.'                             ",
"                                        / ].u. Xi.                            ",
"                                        s.m.m.*Xn.Q                           ",
"                                      Q i.i.9.8.4.Q                           ",
"                                                                              ",
"                                                                              "
};
