/* XPM */
static char *_5e6007544c44860bc9204f75d8aa0d8UYdaXk3auRu3Vmem[] = {
/* columns rows colors chars-per-pixel */
"64 64 203 2 ",
"   c None",
".  c #050504",
"X  c #080705",
"o  c #090906",
"O  c #0C0C09",
"+  c #070806",
"@  c #100F0B",
"#  c #12110C",
"$  c #0C0F11",
"%  c #0D1116",
"&  c #191610",
"*  c #1A1A17",
"=  c #161715",
"-  c #251D17",
";  c #2E221A",
":  c #121B29",
">  c #1D2B3F",
",  c #2A2A29",
"<  c #36312B",
"1  c #333333",
"2  c #442A1E",
"3  c #593729",
"4  c #503E33",
"5  c #422D24",
"6  c #5C483C",
"7  c #664A3C",
"8  c #1D224A",
"9  c #1B2758",
"0  c #292F48",
"q  c #2A344B",
"w  c #2E3B53",
"e  c #273859",
"r  c #2C314F",
"t  c #0D2569",
"y  c #152967",
"u  c #1E326F",
"i  c #0C297B",
"p  c #072177",
"a  c #142A74",
"s  c #122D7C",
"d  c #182A74",
"f  c #1B3274",
"g  c #13307E",
"h  c #1D337D",
"j  c #243266",
"k  c #363E69",
"l  c #213670",
"z  c #28387C",
"x  c #2E405F",
"c  c #31425D",
"v  c #2E4160",
"b  c #324564",
"n  c #35496C",
"m  c #35486A",
"M  c #3C516F",
"N  c #344C72",
"B  c #364A78",
"V  c #37527C",
"C  c #474743",
"Z  c #53534E",
"A  c #5A5A55",
"S  c #504D48",
"D  c #674E41",
"F  c #735444",
"G  c #745A4B",
"H  c #7C5B4A",
"J  c #7A5747",
"K  c #65565A",
"L  c #755F50",
"P  c #7B6253",
"I  c #6E665F",
"U  c #484861",
"Y  c #4D4F79",
"T  c #6B5E64",
"R  c #6B6A65",
"E  c #646460",
"W  c #7A6869",
"Q  c #74726C",
"!  c #7C7C76",
"~  c #7F7F7A",
"^  c #736874",
"/  c #875D4C",
"(  c #905E4A",
")  c #83604F",
"_  c #846453",
"`  c #8B6D5C",
"'  c #866757",
"]  c #956C59",
"[  c #986C59",
"{  c #92715E",
"}  c #9C725E",
"|  c #A66F58",
" . c #866B67",
".. c #8E7262",
"X. c #947463",
"o. c #9C7662",
"O. c #9C7B6A",
"+. c #997967",
"@. c #907D76",
"#. c #A27D6A",
"$. c #A87B65",
"%. c #85847E",
"&. c #968478",
"*. c #AC826C",
"=. c #B3856E",
"-. c #B7876F",
";. c #AC8773",
":. c #B58670",
">. c #B48A74",
",. c #BB8A73",
"<. c #B58F7B",
"1. c #BA927C",
"2. c #C58F77",
"3. c #C4947B",
"4. c #CC967C",
"5. c #C6957C",
"6. c #D2997F",
"7. c #0A2D82",
"8. c #062B84",
"9. c #132F80",
"0. c #0D3187",
"q. c #153484",
"w. c #193887",
"e. c #173889",
"r. c #1A3481",
"t. c #2D4F88",
"y. c #2C528C",
"u. c #355584",
"i. c #3D5C8C",
"p. c #3C5A85",
"a. c #2A5498",
"s. c #355B95",
"d. c #365F9C",
"f. c #395E99",
"g. c #385C96",
"h. c #224F94",
"j. c #3E608F",
"k. c #3D629D",
"l. c #3E6296",
"z. c #3C64A1",
"x. c #4D5281",
"c. c #645D84",
"v. c #41608C",
"b. c #436394",
"n. c #43669C",
"m. c #44689E",
"M. c #496A9E",
"N. c #70738D",
"B. c #456BA2",
"V. c #496EA4",
"C. c #4266A3",
"Z. c #4D72A6",
"A. c #4E73A8",
"S. c #5272A6",
"D. c #5376AA",
"F. c #5978AC",
"G. c #5877AB",
"H. c #897C8C",
"J. c #927F8B",
"K. c #7F8996",
"L. c #8B8B85",
"P. c #97958E",
"I. c #9C9C95",
"U. c #9A9993",
"Y. c #92828C",
"T. c #B49389",
"R. c #A5A39D",
"E. c #ADADA6",
"W. c #A7A7A1",
"Q. c #B4B3AD",
"!. c #ABAFB1",
"~. c #B9B9B2",
"^. c #BFBEB8",
"/. c #B6B7B1",
"(. c #CC9B82",
"). c #C59A84",
"_. c #D49D82",
"`. c #DC9F83",
"'. c #C39F94",
"]. c #D3A087",
"[. c #DAA186",
"{. c #D5A48B",
"}. c #DBA58A",
"|. c #D7A88F",
" X c #DAA98E",
".X c #C7A495",
"XX c #D6AB94",
"oX c #DBAC92",
"OX c #D5AB96",
"+X c #D8B19B",
"@X c #CBA18A",
"#X c #D3B7A6",
"$X c #C6B8AD",
"%X c #C3C4BD",
"&X c #B5BDC5",
"*X c #CACBC4",
"=X c #CECFC8",
"-X c #C6C7C1",
";X c #CFD0C9",
":X c #D2D3CC",
">X c #D7D8D1",
",X c #D8D9D2",
"<X c #D0CBC3",
/* pixels */
"                                                                                                                                ",
"                                                                                                                                ",
"                                                                r                                                               ",
"                                                        e r   l l 0 0                                                           ",
"                                                      j h j l e.w.l l r                                                         ",
"                                                    e q.w.r.q.q.e.q.q.u 9                                                       ",
"                                                    f q.e.q.q.q.e.q.q.q.u                                                       ",
"                                                  r s q.9.q.q.q.q.q.s g a 8                                                     ",
"                                                  f 9.i 9.9.s q.g i s i s d 9                                                   ",
"                                                a 0.7.7.8.a 9.9.d a p i i i s 8                                                 ",
"                                              9 7.7.7.9.h h d k x.d z x.c.r.i y                                                 ",
"                                              t 7.i i z J.H.Y..X.XT.'.XXoXx.8.t                                                 ",
"                                              t 8.p u ^ ).}.oXoXoX@XT.).oXY p t                                                 ",
"                                              a 8.B T ..+.|.XXoXXX;..._ o.^ d y                                                 ",
"                                              k a T L G X.#.{.XXo.G < < ' ' 0 Y ;.                                              ",
"                                            X.@.9 K - & ..` P ' L O.; ; #.|.U  .(.F                                             ",
"                                            #.<.k  .3 2 -.;.X.<.` 4.3 3 ). XK $.(.                                              ",
"                                            } 1. .)./ ( |.+.*.{.' 6.| *. X6.P 1.*.                                              ",
"                                              <.] <.5.).;.7 >.oX` *.).5.5.&._ >.                                                ",
"                                              G ' ` X...` } =. X3.*.X.{ X.X.'                                                   ",
"                                                  { ].{.}.].3.;.*.@XXXoX{.{                                                     ",
"                                                    o.(. X2.-.5. X+X+X(.`                                                       ",
"                                                      H *.{. X X X|.>.G                                                         ",
"                                                        D (.{.{.|.{...                                                          ",
"                                                  & & * 6 @X X|. X}..X~.Q.R.P.~                                                 ",
"                                            & # O O O O 6 {.{.|.|.|.+X>X>X>X:X;X~.Q                                             ",
"                                          # O O O O O O 6 6.].{.{.{.+X<X:X:X:X>X>XR.                                            ",
"                                          # O O O O @ O C #XOXOXOX%X%X:X:X:X:X:X-X~.                                            ",
"                                        & # + O o O o + ! :X~.U.^.:X:X:X;X:X:X%XI.%XQ                                           ",
"                                        # O + o O O O o %.%X6 O Z %X;X:X;X:X:X/.R.:XL.                                          ",
"                                      # O + O O o O o + A R.% . < %X:X:X:X;X:XR.Q.>XU.                                          ",
"                                      O + + o O o O O o & ! E 6 L.:X:X:X:X:X;XU.%X>XE.                                          ",
"                                      + + . + O o o O O X @ c %.E.=X:X:X>X:X%XP.=X>X$X                                          ",
"                                    # . . . . o o o O o + . . O * A ~.;X:X:X%XU.:X:XQ.                                          ",
"                                      # o . . + O O O o + . . O O + 6 %X:X:XQ.R.%XR.R                                           ",
"                                        7 6 - . o O O o O O Z ~ 1 + $ P.:X:XR.%.&.D                                             ",
"                                        $._./ O . O O . . * E.,X~ + + Q :X:X&.-.`.{                                             ",
"                                        $.].) O . O o . + O E I.C . . R :X;XI *.`.o.                                            ",
"                                        *.4.F O O . . . . + + O + + O L.>X^.  } }.$.                                            ",
"                                        ,.5.    . . . . . . . . . . , !.&XK.  H `.=.                                            ",
"                                        5.:.  > e > : % $ $ O $ % : M M.k.j.    2.3.                                            ",
"                                      F 4.$.  c z.a.d.z.d.y.j.j.y.l.m.k.a.l.w   $.}.$.                                          ",
"                                      } _.$.  c h.z.z.z.z.z.A.Z.a.B.Z.A.z.y.q   =.}.}.]                                         ",
"                                    o._.].=.  e z.K.z.z.d.z.Z.z.a.B.Z.Z.V.s.    :._.[.]                                         ",
"                                    -.[.=.=.  j z.D.D.z.z.d.z.z.h.z.Z.V.B.b.    _ 2.`.'                                         ",
"                                    } 6.} /   x m.A.K.A.z.k.u.y.a.k.V.Z.Z.j.    5 $.,.                                          ",
"                                      J 7     v k.A.z.K.A.B.q p.k.z.Z.A.A.i.                                                    ",
"                                              b k.M.Z.D.A.M.> V k.V.Z.A.A.p.                                                    ",
"                                              c m.M.M.Z.Z.j.  V z.V.Z.A.S.V                                                     ",
"                                              c B.Z.V.B.V.B   N z.B.V.V.Z.V                                                     ",
"                                              c M.G.D.V.B.N   N k.C.m.m.V.M                                                     ",
"                                              w m.F.F.S.Z.m   N n.z.f.n.V.B                                                     ",
"                                              w b.G.G.S.n.e   N z.z.f.k.V.n                                                     ",
"                                                b.G.G.S.n.e   n n.f.f.n.M.m                                                     ",
"                                                b.D.D.S.b.q   n C.f.s.f.m.c                                                     ",
"                                                b.S.Z.B.b.    n C.n.f.n.M.w                                                     ",
"                                                b.S.Z.B.l.    m n.m.B.V.b.                                                      ",
"                                                i.B.C.m.b.    m k.B.B.B.v.                                                      ",
"                                                V k.f.k.i.    n k.f.f.f.p.                                                      ",
"                                                T N.N.N.^     K Y.J.H.N.U                                                       ",
"                                                -.}._.{.4.7   } `.`.[._.[                                                       ",
"                                              _ 4._._.4._.]   :.6.2.4.6.,.7                                                     ",
"                                                J J / / J     J J D F ) _                                                       ",
"                                                                                                                                "
};
