/* XPM */
static char *_b58cd07291a4f7dc9b6eebd52b79911XERN9KCqsHRKAY0P[] = {
/* columns rows colors chars-per-pixel */
"48 63 177 2 ",
"   c None",
".  c #11110C",
"X  c #1D1B14",
"o  c #3E291E",
"O  c #0E183D",
"+  c #1A253D",
"@  c #322921",
"#  c #3C332B",
"$  c #2F313C",
"%  c #37343C",
"&  c #534034",
"*  c #69473A",
"=  c #694D3F",
"-  c #724C3D",
";  c #0B1B4B",
":  c #0A1C56",
">  c #1C2B48",
",  c #08215E",
"<  c #152654",
"1  c #19295B",
"2  c #212E47",
"3  c #212B4A",
"4  c #29324D",
"5  c #202F5E",
"6  c #233455",
"7  c #25365A",
"8  c #25395B",
"9  c #293A5C",
"0  c #293A57",
"q  c #3B3B5E",
"w  c #031E6C",
"e  c #051964",
"r  c #0A2566",
"t  c #05236E",
"y  c #0A256D",
"u  c #072465",
"i  c #192C64",
"p  c #12296D",
"a  c #192F6B",
"s  c #122866",
"d  c #1E3265",
"f  c #1B316E",
"g  c #042473",
"h  c #052876",
"j  c #0D2A73",
"k  c #062B7A",
"l  c #0B2D79",
"z  c #0B2771",
"x  c #142D72",
"c  c #112F78",
"v  c #153176",
"b  c #1B3273",
"n  c #12317B",
"m  c #243B62",
"M  c #2C3D63",
"N  c #233D6C",
"B  c #243460",
"V  c #203876",
"C  c #2E466C",
"Z  c #2D4166",
"A  c #30476B",
"S  c #284678",
"D  c #2E4B7C",
"F  c #254171",
"G  c #3B4372",
"H  c #314A74",
"J  c #5F544C",
"K  c #414C5D",
"L  c #74594B",
"P  c #7B5342",
"I  c #785F56",
"U  c #786258",
"Y  c #524E67",
"T  c #4A5363",
"R  c #55526E",
"E  c #474C76",
"W  c #4C5A7E",
"Q  c #575777",
"!  c #58587A",
"~  c #6C6A63",
"^  c #696761",
"/  c #7D6D62",
"(  c #6D6479",
")  c #6B6577",
"_  c #786E7A",
"`  c #797772",
"'  c #835B4A",
"]  c #805645",
"[  c #846452",
"{  c #8B6654",
"}  c #85685C",
"|  c #966C56",
" . c #836D66",
".. c #977562",
"X. c #9B7562",
"o. c #997967",
"O. c #816F7B",
"+. c #87737A",
"@. c #947B7B",
"#. c #AC7C63",
"$. c #A67D69",
"%. c #B17C66",
"&. c #82817B",
"*. c #B8886D",
"=. c #AB8273",
"-. c #AC8779",
";. c #A5867F",
":. c #BF8770",
">. c #B78974",
",. c #B98A74",
"<. c #BF8F79",
"1. c #B28770",
"2. c #C1896F",
"3. c #C38D73",
"4. c #C98E75",
"5. c #C49177",
"6. c #CA9076",
"7. c #C4937B",
"8. c #C9967C",
"9. c #CC997F",
"0. c #1C3E86",
"q. c #254985",
"w. c #2F4E83",
"e. c #264A89",
"r. c #2A4C89",
"t. c #244783",
"y. c #324F82",
"u. c #2F508C",
"i. c #335285",
"p. c #3A5283",
"a. c #34548A",
"s. c #3B5A8D",
"d. c #3A578B",
"f. c #3B5B91",
"g. c #4D5D82",
"h. c #435882",
"j. c #505E80",
"k. c #48628D",
"l. c #697A96",
"z. c #8A7883",
"x. c #8B8A84",
"c. c #898782",
"v. c #948183",
"b. c #93928C",
"n. c #9C9B96",
"m. c #AF8F88",
"M. c #A68782",
"N. c #B68F80",
"B. c #A19F99",
"V. c #B9A79A",
"C. c #8693A5",
"Z. c #A9A8A3",
"A. c #AFAEA8",
"S. c #B0AFA9",
"D. c #B2B2AC",
"F. c #ADB1B4",
"G. c #B6B7B1",
"H. c #BAB9B3",
"J. c #BDBEB9",
"K. c #C29681",
"L. c #C39984",
"P. c #CD9C83",
"I. c #C39F8D",
"U. c #D09F86",
"Y. c #CFA087",
"T. c #CFA089",
"R. c #D2A187",
"E. c #D4A289",
"W. c #D8A48A",
"Q. c #C2AEA2",
"!. c #C2B6AC",
"~. c #C3BCB5",
"^. c #C1BFB9",
"/. c #BFC0BB",
"(. c #C5C5BE",
"). c #C2C2BC",
"_. c #C4C5C0",
/* pixels */
"                                                                                                ",
"                                                                                                ",
"                                  4 7 $   $                                                     ",
"                                  i B 5 6 7 4                                                   ",
"                                  f v x v b a 3                                                 ",
"                                3 p x c n c c x a i i 1                                         ",
"                                3 p j c c 0.h l l c l x i                                       ",
"                                3 x j j c l l l l l l l c 1                                     ",
"                                s x j h j V c k l k k k k z >                                   ",
"                              + < M b b ! M.E h k k k k k j ,                                   ",
"                                   .z.m.U.E.( y g k k k l k s                                   ",
"                                  o.U.W.W.W._ y z h k k h h r                                   ",
"                                  U $.7.P.P.;.x t g g g g g u                                   ",
"                                X @ L ....X.U < Y ! y g g g u                                   ",
"                                . o X.P.P.P.O.G K.<.f g g g ,                                   ",
"                                # P 5.U.R.E.;.M.R.=.1 w w w :                                   ",
"                              = } 1.U.R.Y.Y.Y.P.9.| q e t w ;                                   ",
"                                { 7.8.P.Y.Y.P.Y.#.1.E t e : O                                   ",
"                                & | *.R.Y.9.9.9.:.9.+.H s :                                     ",
"                                  | 9.9.9.9.Y.Y.9.9.Y.@.R ;                                     ",
"                                    =.8.9.9.P.9.9.L.K.7.I                                       ",
"                                      { *.8.9.8.8.8.<.[                                         ",
"                                          [ 8.8.5.5.,.                                          ",
"                                          L N.T.T.L.,.                                          ",
"                                          / !.(.(.~.V.J                                         ",
"                                          B.(.(.(._._.b.                                        ",
"                                        x.).).).(.(.(.D.~                                       ",
"                                      ^ G.).).).).).).^.b.                                      ",
"                                      b.)./.).).(.^.(.).D.                                      ",
"                                      D.)./.).).^.(.^.).H.~                                     ",
"                                    ~ H.).J._.^.).^.).).D.                                      ",
"                                      G._.J.).).).).).(.A.                                      ",
"                                      D.)./.~.~.~.~.).(.Z.                                      ",
"                                      Z._.~.N.7.K.7.Q.).B.                                      ",
"                                      n._.~.7.3.5.5.Q.).n.                                      ",
"                                      b._.^.7.3.5.5.!._.b.                                      ",
"                                      x.).).<.2.5.K.~._.c.                                      ",
"                                      &.).~.7.:.3.L.^.).&.                                      ",
"                                      ` J.H.<.:.5.V.F.C.T                                       ",
"                                      K l.l.=.2.5.v.g.a.m                                       ",
"                                      8 i.) *.5.5.@.i.0.d                                       ",
"                                      8 k.,.5.5.8.-.i.r.C                                       ",
"                                      6 W >.5.5.6.-.p.u.C                                       ",
"                                      6 W =.2.6.6.-.p.u.0                                       ",
"                                      > D _ >.>.=._ a.N                                         ",
"                                      2 D p.g.W p.i.i.2                                         ",
"                                      > D i.a.q.a.a.H                                           ",
"                                        H a.a.q.a.d.H                                           ",
"                                        C a.s.e.a.f.C                                           ",
"                                        Z d.s.e.a.s.Z                                           ",
"                                        8 a.a.e.a.s.M                                           ",
"                                        6 w.a.e.f.s.8                                           ",
"                                        2 D a.u.f.k.7                                           ",
"                                        + S a.u.f.s.9                                           ",
"                                          F i.u.f.s.9                                           ",
"                                          F w.r.a.s.9                                           ",
"                                          m y.e.r.d.7                                           ",
"                                          6 y.t.q.y.7                                           ",
"                                          } +.( ) ) %                                           ",
"                                      ' %.4.4.4.4.3.-                                           ",
"                                  ' #.4.4.6.2.3.4.2.*                                           ",
"                                  ' ' { { ' * - ] -                                             ",
"                                                                                                "
};
