/* XPM */
static char *bcc6f0bc1f114ad7abf041be4187f757DKc3syMDFFNesCDP[] = {
/* columns rows colors chars-per-pixel */
"48 63 208 2 ",
"   c None",
".  c #0D0A04",
"X  c #130E04",
"o  c #151107",
"O  c #191206",
"+  c #171309",
"@  c #19150A",
"#  c #1D190C",
"$  c #1A1815",
"%  c #221B0E",
"&  c #201608",
"*  c #251E13",
"=  c #291F12",
"-  c #2B2316",
";  c #322719",
":  c #34240F",
">  c #272428",
",  c #2C2936",
"<  c #312E3A",
"1  c #312D28",
"2  c #4A301B",
"3  c #623218",
"4  c #42392B",
"5  c #4D3823",
"6  c #533C24",
"7  c #463A33",
"8  c #554432",
"9  c #5B4127",
"0  c #684D34",
"q  c #68523D",
"w  c #735235",
"e  c #77563C",
"r  c #714A30",
"t  c #131E5E",
"y  c #1C245C",
"u  c #1C2458",
"i  c #252641",
"p  c #2C2D44",
"a  c #262949",
"s  c #302F47",
"d  c #252C54",
"f  c #222B5D",
"g  c #23275C",
"h  c #283C5F",
"j  c #141F61",
"k  c #142265",
"l  c #1A2563",
"z  c #1C2A65",
"x  c #13256C",
"c  c #16296E",
"v  c #1C2B6B",
"b  c #192769",
"n  c #132A73",
"m  c #132D79",
"M  c #182D76",
"N  c #273269",
"B  c #323465",
"V  c #413E69",
"C  c #394355",
"Z  c #3D414A",
"A  c #394E76",
"S  c #3E5171",
"D  c #3D4C64",
"F  c #434C5C",
"G  c #4A4D55",
"H  c #514B56",
"J  c #635A4B",
"K  c #665A48",
"L  c #7C5A43",
"P  c #755844",
"I  c #6F624D",
"U  c #766C5A",
"Y  c #756957",
"T  c #7F715D",
"R  c #6D6354",
"E  c #464865",
"W  c #5A4E68",
"Q  c #435269",
"!  c #4B5466",
"~  c #485A78",
"^  c #56566E",
"/  c #69596C",
"(  c #4D607E",
")  c #55627B",
"_  c #7F7260",
"`  c #6F6970",
"'  c #6E6C72",
"]  c #874A2C",
"[  c #825C3E",
"{  c #9C5130",
"}  c #825E43",
"|  c #8B6346",
" . c #86634C",
".. c #8C664C",
"X. c #8F684D",
"o. c #94694A",
"O. c #9A6D4D",
"+. c #90674A",
"@. c #8A6853",
"#. c #986E53",
"$. c #8F7055",
"%. c #9E7253",
"&. c #9F755A",
"*. c #A37452",
"=. c #AB7955",
"-. c #A2765B",
";. c #A4795C",
":. c #AD7C59",
">. c #AA7753",
",. c #B17D5A",
"<. c #B07A56",
"1. c #B66E4A",
"2. c #8A6964",
"3. c #917871",
"4. c #AA7D61",
"5. c #A37B71",
"6. c #B5815D",
"7. c #BA825D",
"8. c #8E836F",
"9. c #91846F",
"0. c #988975",
"q. c #9E907D",
"w. c #8E8472",
"e. c #AC8162",
"r. c #BD8663",
"t. c #BA8768",
"y. c #AB8772",
"u. c #BC8F77",
"i. c #A1917E",
"p. c #C28761",
"a. c #C58B63",
"s. c #CC8C63",
"d. c #CA8F6A",
"f. c #C58D6D",
"g. c #CE926D",
"h. c #CA906B",
"j. c #D3946C",
"k. c #DA966D",
"l. c #DD9A6F",
"z. c #D49369",
"x. c #C28F72",
"c. c #CD9472",
"v. c #C19175",
"b. c #D49A74",
"n. c #DC9C72",
"m. c #D69C7A",
"M. c #D39774",
"N. c #E19E73",
"B. c #DDA27D",
"V. c #D9A17A",
"C. c #E3A276",
"Z. c #E4A37A",
"A. c #31528B",
"S. c #3C5C8F",
"D. c #3D5789",
"F. c #3D5D94",
"G. c #3F6196",
"H. c #465E8A",
"J. c #4B6286",
"K. c #4D668D",
"L. c #4E688E",
"P. c #5B6E8C",
"I. c #576989",
"U. c #446294",
"Y. c #4D6A95",
"T. c #4D6B99",
"R. c #4A6796",
"E. c #536D93",
"W. c #536E9A",
"Q. c #577095",
"!. c #5B7396",
"~. c #56719C",
"^. c #5B759C",
"/. c #5F799F",
"(. c #657A9B",
"). c #64789B",
"_. c #5E79A0",
"`. c #5B77A1",
"'. c #637CA1",
"]. c #6780A3",
"[. c #918B81",
"{. c #A08680",
"}. c #A49682",
"|. c #AD9F8A",
" X c #A89B87",
".X c #B1A48F",
"XX c #B6A995",
"oX c #ABA08D",
"OX c #999CA3",
"+X c #B2ADA4",
"@X c #DEA481",
"#X c #D9AF8F",
"$X c #D5A786",
"%X c #C1B29D",
"&X c #D8B496",
"*X c #C0AD98",
"=X c #C3B6A1",
"-X c #C9BBA6",
";X c #CABCA7",
":X c #DABEA4",
">X c #CEC1AC",
",X c #D1C3AD",
"<X c #D9C2A9",
"1X c #D6C9B3",
"2X c #D9CBB5",
"3X c #DCCEB9",
"4X c #D3C7B1",
"5X c #DCD2BD",
/* pixels */
"                                                                                                ",
"                                                                                                ",
"                                                                                                ",
"                                                                                                ",
"                                                                                                ",
"                                              <                                                 ",
"                                      <     p v p                                               ",
"                                    d f < p v M f d s                                           ",
"                                  s v b a x m n c M N < ,                                       ",
"                                  y M n n n m n M m m z d                                       ",
"                                  v n x n n n m n n m n z ,                                     ",
"                                p c n n n n n m n n n m c i >                                   ",
"                              p z n c c n n n m m m n n c c u >                                 ",
"                              l n c x x x x n m m m n n n n x a                                 ",
"                            a c n x x x x x x n x x c x c n c u                                 ",
"                            u c x x x x x k x k y k x x k k c y                                 ",
"                            y x x x x x z t g W N k z E / l x l ,                               ",
"                          i j x k k V 3.3./ 5.m./ W 5.n.u.N x y ,                               ",
"                          i b b B E 4.a.n.C.C.C.b.6.p.z.M.B j g 7                               ",
"                          @.V N 3.-.=.>.j.C.C.C.V.6.<.>.,.H j W *.                              ",
"                        | V.$.a [ r 0 o.O.s.Z.l.O.[ 6 w o.P s 2.a.                              ",
"                        +.Z.@.H +.5 : O.p.[ O.| o.} : 6 s.c.H #.a.                              ",
"                        w g.&.t.r.r 2 <.n.O.r.o.,.s.3 ] z.N.X.=.>.                              ",
"                          o.-.h.C.1.] k.n.r.Z.z.,.k.{ 1.N.N.*.+.                                ",
"                            0 O.C.l.s.C.a.6.C.l.O.s.s.z.k.a.w                                   ",
"                              5 | <.<.:.%.6.l.C.s.<.=.>.O.0                                     ",
"                                6 *.g.n.V.C.C.N.k.k.N.z.o.                                      ",
"                                  2 O.j.C.j.7.,.<.s.d.@.T                                       ",
"                          % # @ O O O 5 p.k.s.z.l.l.$X;X,X;X;X;XXXI                             ",
"                        - O O O o . X : a.n.n.n.N.l.B.1X2X2X2X3X3Xq.                            ",
"                      ; O . O + X X X 8 m.n.n.l.n.n.#X2X3X2X2X2X3X%X                            ",
"                      # o O X + + O X U 2X:X&X#X&X<X2X3X2X1X1X3X2X1X0.                          ",
"                    - @ @ @ + + O X X Y 5X=XY 8.4X2X2X2X2X1X2X2X1X3X.X                          ",
"                    # @ @ @ o O + + o J 3XU O %  X3X1X1X2X1X1X2X1X3X;XI                         ",
"                  = @ @ # @ X o + X X - oXR o - |.3X,X|.1X2X2X2X2X3X3X9.                        ",
"                  * O @ @ @ X o + X X X 1 0.U q.4X2X2X}.*X2X2X3X4X+X.X$.                        ",
"                  + + + + + + o o X X X X * K  X>X2X2X%Xi.2X3X%Xy.$.0.I                         ",
"                  + o @ + + + . X . . X X X X % 1 8.4X2Xi.-XXXe.z.6.q                           ",
"                    @ + + $ + . . . X X . X X X O O $.3X%X0.e.k.l.a.                            ",
"                    8 q - + + o X X X X X X * # O X ; +X2X0.6.N.l.z.O.                          ",
"                    P g.e.6 @ + o o o O X 7 XX}.= X & }.3X-X;.n.p.:.|                           ",
"                    P b.Z.t.* o o + o O X J 5X%X; X @ 0.5XXX%.k.O.%.[                           ",
"                    L b.@Xe.* X + O O O X * J 7 O X % |.5X|.o.r.7.*.*.                          ",
"                    L m.Z.&.* X . . . X X X . . X X 8 <X3Xi.e =.;.6.o.                          ",
"                    } m.m. .  > > $ $ $ @ @ @ @ * 1 [.OXOX`     e                               ",
"                    ..m.x.    K.R.H.J.~ A S ~ ~ ~ P.E.D.I.)                                     ",
"                  0 t.@Xe.  C R.F.~.`.'.F.F.W.U.D.!.Q.H.D.H.                                    ",
"                P u.@X@X;.  C A.T.`.'.'.U.F.Y.S.F.^.!.^.K.A                                     ",
"                @.m.@Xt.4.  C G.~.`._.].T.U.R.S.L.!.).(.(.H.                                    ",
"                 .m.@X;.;.  D T.`.`.(.].~.U.Y.S.Y.(.(.(.(.I.                                    ",
"                  &.x. .    Q Y.~.`.`.~.F.A.A.A.Y.(.(.(.).)                                     ",
"                            E R.~.`.~.~.~.K.J.E.^.].(.(.).)                                     ",
"                            F T.W.`.`.^.^.Q Q E.!./.!.!.^.^                                     ",
"                              L.W.^.^.^.Y.C F E.Q.Q.Q.P.!.!                                     ",
"                              ~ ~.'.^.~.J.  Z J.E.E.Q.Q.P.G                                     ",
"                              D ~._.^.W.Q     ~ E.E.Q.Q.)                                       ",
"                              G L.!.W.E.!     G L.P.E.P.H                                       ",
"                                ' E.I.i.-.      ` P.Q.3...                                      ",
"                              ..c.u.x.n.j.4.  #.h.u.v.n.7.                                      ",
"                            q 4.f.c.c.g.g.t.P a.g.j.k.g.7.w                                     ",
"                                  P } L L     e   ....|                                         ",
"                                                                                                ",
"                                                                                                "
};
