/* XPM */
static char *ec17917769d041b2a1f83a891e95567cuOUY9JmbpFtmeEYE[] = {
/* columns rows colors chars-per-pixel */
"48 63 168 2 ",
"   c None",
".  c #060603",
"X  c #080703",
"o  c #070804",
"O  c #0A0905",
"+  c #0D0D09",
"@  c #110F0B",
"#  c #14120C",
"$  c #0F1011",
"%  c #161511",
"&  c #1C1A13",
"*  c #201913",
"=  c #37271C",
"-  c #33281D",
";  c #1B1F35",
":  c #1D223B",
">  c #3C2D22",
",  c #49372C",
"<  c #503E2F",
"1  c #523F33",
"2  c #5B4334",
"3  c #554131",
"4  c #664B3A",
"5  c #694E3B",
"6  c #6C513F",
"7  c #72543F",
"8  c #0F1A42",
"9  c #141E46",
"0  c #0D1E5C",
"q  c #141F53",
"w  c #1C2343",
"e  c #142155",
"r  c #12215C",
"t  c #2E394D",
"y  c #323947",
"u  c #2D3C53",
"i  c #091C64",
"p  c #071D6C",
"a  c #081F6A",
"s  c #041E74",
"d  c #041F79",
"f  c #0D2065",
"g  c #07206F",
"h  c #0C236D",
"j  c #142462",
"k  c #12256C",
"l  c #062174",
"z  c #0A2374",
"x  c #05237B",
"c  c #09257A",
"v  c #142C71",
"b  c #1A2B70",
"n  c #293774",
"m  c #323A73",
"M  c #334157",
"N  c #30435D",
"B  c #3B4555",
"V  c #334561",
"C  c #334B6C",
"Z  c #3A4D6C",
"A  c #394669",
"S  c #384077",
"D  c #334D73",
"F  c #3B5276",
"G  c #3B557C",
"H  c #355075",
"J  c #584A4B",
"K  c #4B4D5A",
"L  c #735544",
"P  c #795846",
"I  c #7C6252",
"U  c #48496D",
"Y  c #40516F",
"T  c #515463",
"R  c #4C4C75",
"E  c #565377",
"W  c #705B60",
"Q  c #605776",
"!  c #6D5F74",
"~  c #7C656C",
"^  c #66607A",
"/  c #6E6D7B",
"(  c #7D6975",
")  c #825E4A",
"_  c #85624D",
"`  c #886450",
"'  c #8A6853",
"]  c #946C56",
"[  c #926E5A",
"{  c #996F59",
"}  c #9C7057",
"|  c #9A735D",
" . c #96715A",
".. c #A6785E",
"X. c #A7755B",
"o. c #98776A",
"O. c #927360",
"+. c #947D7C",
"@. c #A57B63",
"#. c #AA7D63",
"$. c #A17B6A",
"%. c #96807F",
"&. c #9D817C",
"*. c #AE8167",
"=. c #B6866C",
"-. c #BC8A6E",
";. c #B9866A",
":. c #AA857C",
">. c #B58A73",
",. c #BD8E74",
"<. c #C38E72",
"1. c #C79277",
"2. c #C99275",
"3. c #C4947D",
"4. c #CD967A",
"5. c #CE997B",
"6. c #D39C7D",
"7. c #032780",
"8. c #042881",
"9. c #3D5A84",
"0. c #31528B",
"q. c #3D5B8E",
"w. c #385483",
"e. c #2C5495",
"r. c #315691",
"t. c #385792",
"y. c #355B96",
"u. c #3C5D94",
"i. c #365D98",
"p. c #3E6296",
"a. c #3F6399",
"s. c #455C82",
"d. c #415D8A",
"f. c #42608D",
"g. c #48638C",
"h. c #426294",
"j. c #496693",
"k. c #436599",
"l. c #486798",
"z. c #46699B",
"x. c #4B6B9B",
"c. c #586C92",
"v. c #53709D",
"b. c #686C83",
"n. c #62708F",
"m. c #69728C",
"M. c #787786",
"N. c #72758B",
"B. c #7C7888",
"V. c #797B91",
"C. c #4D6FA0",
"Z. c #927881",
"A. c #9E8785",
"S. c #A98D86",
"D. c #B28C81",
"F. c #BC9386",
"G. c #CA9A82",
"H. c #D39E81",
"J. c #D6A183",
"K. c #D9A384",
"L. c #D9A689",
"P. c #DCA789",
"I. c #DCA88A",
"U. c #DBA98B",
"Y. c #D6A488",
"T. c #E0A786",
"R. c #E0A887",
"E. c #E3AB8C",
/* pixels */
"                                                                                                ",
"                                                                                                ",
"                                                                                                ",
"                                                            :                                   ",
"                                                      : : w j w                                 ",
"                                                    r e r h z e                                 ",
"                                            w q r r c c c z z r                                 ",
"                                        w r z c c c c c c z z r                                 ",
"                                      : a d 7.7.8.c l z c z l r                                 ",
"                                      0 d 7.7.7.c z z l l l l f                                 ",
"                                    9 p d c 7.x z g k n l p v j e                               ",
"                                    0 d s x x l g p S F.Z.E E J w                               ",
"                                    f x s x x s p f R U.E.Y.3.I                                 ",
"                                    h s x s p v h f ( 6.J.,.} 5                                 ",
"                                    a s x s m D.~ e W @. .` 3 -                                 ",
"                                    p s s s E I.J.R ! 6.P.,.3 #                                 ",
"                                    i s s s U K.T.:.! J.U.H.X.=                                 ",
"                                    0 s p g A >.K.J.J.I.U.K.J.4 <                               ",
"                                    9 p p v ! >.<.J.I.I.U.K.J...L                               ",
"                                      0 v Q D.K.5.L.L.I.L.K.-.'                                 ",
"                                      8 U G.J.K.L.L.J.J.J.6.*.                                  ",
"                                        J ,.H.J.L.L.L.J.6.*.5                                   ",
"                                          { 5.H.6.J.4.@._                                       ",
"                                          O.5.2.5.6.*.                                          ",
"                                          P 3 , 3 @.*.                                          ",
"                                          # . . . & ,                                           ",
"                                        # O X X . X X #                                         ",
"                                        + O X X X X . +                                         ",
"                                      & . . X + O o . o #                                       ",
"                                      + . . X O O O O o +                                       ",
"                                      + . . X + O O O O + #                                     ",
"                                      @ . . X O + O X O + &                                     ",
"                                      @ . . . . X X O O + &                                     ",
"                                      + . + 4 P L ) > O $ *                                     ",
"                                      # O O ` H.H.3.> . +                                       ",
"                                      # O . L H.G.<.> . +                                       ",
"                                      & O . 2 H.H.4.> o +                                       ",
"                                        O . , 4.6.4., o #                                       ",
"                                        $ O = 2.H.H.1 + %                                       ",
"                                        C C K 2.6.H./ D N                                       ",
"                                        w.i.m.5.J.6.B.a.H                                       ",
"                                        9.i.N.H.K.J.3.n.D                                       ",
"                                        9.y.m.Y.K.K.6.N.C                                       ",
"                                        F e.m.5.K.H.3.c.C                                       ",
"                                        u 0.j.M.A.S.V.l.V                                       ",
"                                          G k.k.t.x.C.l.u                                       ",
"                                          9.z.a.i.z.x.f.                                        ",
"                                        C k.z.i.h.z.x.9.                                        ",
"                                      M f.z.a.i.k.z.k.F                                         ",
"                                    M d.k.p.i.h.k.h.h.C                                         ",
"                                  A d.k.h.r.p.z.h.f.h.V                                         ",
"                                Y h.j.h.r.t.z.l.t.u.j.u                                         ",
"                            ] =.b.h.u.y.u.h.h.h.u.C.d.                                          ",
"                            *.6.+.q.u.h.q.w.f.x.u.C.s.                                          ",
"                            _ 6.3.b.j.9.Z t g.v.u.k.F                                           ",
"                              @.6.>.T B   t d.x.t.h.Z                                           ",
"                              ] 6.<.5     y s.g.0.d.V                                           ",
"                                -.2.P       $.+.+.&.o.                                          ",
"                                7 ;.]       <.6.6.6.6.-.{                                       ",
"                                  ) }       X.<.-.<.4.4.<.;.{                                   ",
"                                              P   I O.[ P ) )                                   ",
"                                                                                                ",
"                                                                                                "
};
