/* XPM */
static char *_0f94c3ba62d4990c168efed6a3fcd32Pqc4S21MR1g5kY7D[] = {
/* columns rows colors chars-per-pixel */
"62 64 183 2 ",
"   c None",
".  c #050501",
"X  c #080703",
"o  c #0B0A04",
"O  c #0B0B0A",
"+  c #110E06",
"@  c #100F09",
"#  c #141007",
"$  c #15130C",
"%  c #19150C",
"&  c #101011",
"*  c #191818",
"=  c #28190C",
"-  c #201D17",
";  c #2C1F12",
":  c #232019",
">  c #2A2319",
",  c #362217",
"<  c #3D2A1C",
"1  c #3C2719",
"2  c #171820",
"3  c #191C25",
"4  c #1C1D2C",
"5  c #161A2A",
"6  c #161735",
"7  c #181732",
"8  c #171835",
"9  c #1B1B33",
"0  c #14173C",
"q  c #15193E",
"w  c #1C1D3C",
"e  c #241F26",
"r  c #211E32",
"t  c #201F3A",
"y  c #1C2027",
"u  c #1E212D",
"i  c #1E2333",
"p  c #1F203D",
"a  c #22222E",
"s  c #2C2829",
"d  c #322D25",
"f  c #37332A",
"g  c #3B362D",
"h  c #232432",
"j  c #252837",
"k  c #22253C",
"l  c #2A263C",
"z  c #252A3C",
"x  c #2A2C3C",
"c  c #2A2534",
"v  c #332C39",
"b  c #452F1D",
"n  c #4C2C19",
"m  c #44311F",
"M  c #48301F",
"N  c #59351F",
"B  c #4D3522",
"V  c #4D3A2A",
"C  c #463327",
"Z  c #513723",
"A  c #533A24",
"S  c #5A3C27",
"D  c #593F2C",
"F  c #493A37",
"G  c #5C422A",
"H  c #4D433B",
"J  c #56433C",
"K  c #5B463E",
"L  c #554738",
"P  c #62422A",
"I  c #68452D",
"U  c #65482E",
"Y  c #6D492E",
"T  c #724B2F",
"R  c #634733",
"E  c #654C33",
"W  c #6C4D32",
"Q  c #644C3B",
"!  c #714D32",
"~  c #6C5137",
"^  c #6D533A",
"/  c #755234",
"(  c #7A5536",
")  c #74553A",
"_  c #7A573E",
"`  c #77593D",
"'  c #7B5A3C",
"]  c #121740",
"[  c #161A41",
"{  c #1A1D44",
"}  c #1C2448",
"|  c #222242",
" . c #262D44",
".. c #292E42",
"X. c #252E4B",
"o. c #282F48",
"O. c #362E44",
"+. c #2C3145",
"@. c #26304E",
"#. c #2C334B",
"$. c #30364E",
"%. c #31384E",
"&. c #2C3551",
"*. c #343B53",
"=. c #393F56",
"-. c #463B49",
";. c #3B4056",
":. c #3B4159",
">. c #544C41",
",. c #52434B",
"<. c #58484E",
"1. c #575043",
"2. c #5C5144",
"3. c #5D564A",
"4. c #404452",
"5. c #555456",
"6. c #604D47",
"7. c #6A5D4D",
"8. c #655447",
"9. c #7E5F42",
"0. c #6F5852",
"q. c #6C5450",
"w. c #775D51",
"e. c #7D6044",
"r. c #6A6154",
"t. c #6E6458",
"y. c #726759",
"u. c #766B5C",
"i. c #7A6E5E",
"p. c #706555",
"a. c #5B5C64",
"s. c #796E60",
"d. c #7D7262",
"f. c #835B3A",
"g. c #895E3B",
"h. c #8B623F",
"j. c #836345",
"k. c #8B6544",
"l. c #8E6847",
"z. c #8D6A49",
"x. c #836349",
"c. c #916642",
"v. c #956A45",
"b. c #9B6E46",
"n. c #926C4B",
"m. c #986E4A",
"M. c #9F7147",
"N. c #96704E",
"B. c #9C724C",
"V. c #866857",
"C. c #9E7450",
"Z. c #A6784F",
"A. c #A37651",
"S. c #A67A53",
"D. c #AB7D55",
"F. c #A47D5A",
"G. c #AA7F5A",
"H. c #827565",
"J. c #817768",
"K. c #857868",
"L. c #8B7E6D",
"P. c #897F70",
"I. c #AE8157",
"U. c #AE815A",
"Y. c #B2845B",
"T. c #8B806F",
"R. c #91816D",
"E. c #8F8272",
"W. c #918573",
"Q. c #9A8D7B",
"!. c #978C7B",
"~. c #9D907F",
"^. c #A58566",
"/. c #B58861",
"(. c #BA8A61",
"). c #B28660",
"_. c #A79179",
"`. c #AB967E",
"'. c #9F9382",
"]. c #A49584",
"[. c #A79886",
"{. c #A99987",
"}. c #AB9C89",
/* pixels */
"                                                                                                                            ",
"                                                                                                                            ",
"                                                                                                                            ",
"                                            c                                                                               ",
"                                    a r - h { t e                                                                           ",
"                                  h t w t { } { { t                                                                         ",
"                                  t { { { { { { { { 9                                                                       ",
"                                a { { { { { { { [ { w                                                                       ",
"                                t { { { { [ { [ q q q 7                                                                     ",
"                              t { { { w [ [ q q q q q q 7                                                                   ",
"                            r { { } [ { 0 0 { w q q t { q 7                                                                 ",
"                            w { [ [ | ,.O.,.V.<.,.0.V.-.[ 8                                                                 ",
"                            { { q | 0.U.G.(.(.(.).(.(.q.] 8                                                                 ",
"                            w { l F ^ m./.(.Y.U.9.9.B.p.w 8                                                                 ",
"                            t | 8.9.x.z.U./.U.e.E V L R c c ~                                                               ",
"                          ' 2.c L ; d 9.) z.` ) m % W S.F J A.                                                              ",
"                          z.x.v R ; n A.~ 9.E n.P = ( G.>.^ S.                                                              ",
"                          k.n.8.n.n T D.) D.k.l.f.N A.G.9.k.m.                                                              ",
"                          W N.' S.m.A.z.U U.z.` D.A.D.C.R n.W                                                               ",
"                            ~ ) ) ` ~ E / Z.U.' ` ) ) ~ ^ ~                                                                 ",
"                                k.D.S.D.Z.B.l.N.D.G.S.k.                                                                    ",
"                                A v.D.D.k.k.B.U.Y.Y.l.                                                                      ",
"                                    ) A.D.I.I.I.S.'                                                                         ",
"                                      / Z.D.S.D.l.                                                                          ",
"                                # # # ~ D.D.D.D.F.T.T.H.p.6.                                                                ",
"                          # + # O + # ) D.D.D.D.I.`.}.}.}.].W.1.                                                            ",
"                        + O o o o o O E A.D.S.S.F._.}.{.}.}.}.H.                                                            ",
"                        o o o O + o O 7.^.F.F.^._.{.{.[.{.{.].R.                                                            ",
"                      + + o o o o o % E.].i.d.].{.{.[.[.{._.d.~.                                                            ",
"                      o o o o o o o % W.y.+ $ s.{.[.[.[.{.W.H.].8.                                                          ",
"                    O o o X X o o o o 7.3.. X t.{.[.].].[.J.E.{.y.                                                          ",
"                    o o X X o X o o X * 3.H 3.Q.].].].].[.s.!.[.H.                                                          ",
"                    X X . X X X X o X X @ f 3.J.].].].].'.u.'.[.L.                                                          ",
"                  o X . . . X X X X X X . . . $ >.'.].].!.s.].].u.                                                          ",
"                    o + o . . . o X X X . @ O . O r.'.[.W.i.K.2.                                                            ",
"                      G U ; . X X X . . : d.r.$ . g ~.'.d.~ ' A                                                             ",
"                      / A.G . X X X . . d ~.W.- . > !.[.r.' M.U                                                             ",
"                      ( v.A . . X . . . O f d o . d !.~.L W M.W                                                             ",
"                      h.h.M o X . . . . . . . . . H ~.T.  G M.(                                                             ",
"                      h.h.  O o . . . . . . . . & 5.a.;.    h.'                                                             ",
"                      h.f.  u +.p i u 5 3 y u i #.&.X.&.h   h.v.G                                                           ",
"                    A h./   h &.&.*.;.&.*.;.&.&.;.;.&.@.u   ) M.c.Z                                                         ",
"                  Z f.b./   4 @.:.=.*.&.*.:.&.&.:.:.;.@.5   f.b.v.S                                                         ",
"                  / b.k.f.  4 *.:.:.*.&.&.*.X.&.=.=.=.*.u   Y k.v.A                                                         ",
"                  ! b.( W   i %.:.:.=.&.&.o.} @.*.=.=.%.3   , f.'                                                           ",
"                  M ! G     i %.:.:.:.=.@.u #.#.*.=.:.#.                                                                    ",
"                            h #.=.=.;.:...2 @.*.=.=.=.#.                                                                    ",
"                            a *.*.*.=.=.j * #.*.*.=.=.#.                                                                    ",
"                            u *.*.%.*.%.4   o.#.*.*.=...                                                                    ",
"                            u %.;.*.*.#.3    .#.%.#.*...                                                                    ",
"                            3 %.;.;.*.%.    +.#.#.#.%...                                                                    ",
"                            3 $.;.;.;.+.    ..@.o.#.%.x                                                                     ",
"                              #.;.=.%.x     ..#.o.o.&.j                                                                     ",
"                              #.=.=.%.v     ..@.o.o.#.h                                                                     ",
"                              +.*.*.%.z     z #.o.+.$.h                                                                     ",
"                              +.%.%.#.z     i #.$.$.$.e                                                                     ",
"                              ..#.#.#.z     z @.#.o.o.                                                                      ",
"                              i  ...+.j     x +.....z                                                                       ",
"                              V K J K C     R _ _ ) D                                                                       ",
"                              / g.g.g./ , < f.f.g.g.( 1                                                                     ",
"                            B ! ! ! Y I   1 I S S P I M                                                                     ",
"                                                                                                                            ",
"                                                                                                                            ",
"                                                                                                                            "
};
