/* XPM */
static char *_81c1c41b5c24a67e8917123d0d4e10bjWYYJ3onnxPbpJTj[] = {
/* columns rows colors chars-per-pixel */
"48 63 202 2 ",
"   c None",
".  c #0C0A05",
"X  c #0E0D08",
"o  c #120E07",
"O  c #110F09",
"+  c #15120A",
"@  c #19150B",
"#  c #1C190E",
"$  c #1D1A11",
"%  c #1F1E19",
"&  c #20190F",
"*  c #211E13",
"=  c #2A251A",
"-  c #2A271B",
";  c #34291D",
":  c #1A1F25",
">  c #1B2129",
",  c #322E21",
"<  c #353227",
"1  c #242735",
"2  c #48463E",
"3  c #574332",
"4  c #66493D",
"5  c #1A275C",
"6  c #1E2855",
"7  c #252A48",
"8  c #222C57",
"9  c #2F3E58",
"0  c #303F54",
"q  c #283342",
"w  c #051F74",
"e  c #12256C",
"r  c #14286B",
"t  c #1A2A6B",
"y  c #192662",
"u  c #032176",
"i  c #0B2574",
"p  c #03237C",
"a  c #0B267D",
"s  c #0C297D",
"d  c #112771",
"f  c #122973",
"g  c #132B79",
"h  c #162B78",
"j  c #1B3079",
"k  c #28397D",
"l  c #233378",
"z  c #2E3761",
"x  c #39435A",
"c  c #3A4A66",
"v  c #3C4D6B",
"b  c #20457C",
"n  c #374977",
"m  c #38517C",
"M  c #4F4E48",
"N  c #5A5657",
"B  c #524E56",
"V  c #7A5C4C",
"C  c #6F574C",
"Z  c #444D67",
"A  c #4B576B",
"S  c #455169",
"D  c #5A566B",
"F  c #43597E",
"G  c #465674",
"H  c #50517E",
"J  c #444B77",
"K  c #625D71",
"L  c #6B6A63",
"P  c #7C7A74",
"I  c #706D71",
"U  c #846554",
"Y  c #8C6C5A",
"T  c #8A6754",
"R  c #936D5A",
"E  c #906853",
"W  c #9A715D",
"Q  c #95725C",
"!  c #89644F",
"~  c #897262",
"^  c #957463",
"/  c #99796B",
"(  c #82717A",
")  c #927B77",
"_  c #A37963",
"`  c #A07F74",
"'  c #85837B",
"]  c #AC826C",
"[  c #A7816A",
"{  c #B3856E",
"}  c #B4886F",
"|  c #B58A73",
" . c #B68972",
".. c #BD917B",
"X. c #B5917D",
"o. c #AD8774",
"O. c #C08E76",
"+. c #C4957C",
"@. c #CC9A7E",
"#. c #032682",
"$. c #092781",
"%. c #042985",
"&. c #0B2981",
"*. c #032D8B",
"=. c #062D8A",
"-. c #022F8D",
";. c #042B8A",
":. c #082C8A",
">. c #04318E",
",. c #08308B",
"<. c #033190",
"1. c #1D4683",
"2. c #3E5782",
"3. c #3B619E",
"4. c #335EA2",
"5. c #3C64A5",
"6. c #3C66AA",
"7. c #3F69A9",
"8. c #3260A6",
"9. c #424E83",
"0. c #445E8B",
"q. c #475C83",
"w. c #5D5D82",
"e. c #45608E",
"r. c #4A638E",
"t. c #4B6594",
"y. c #4F6995",
"u. c #4D6A9C",
"i. c #456598",
"p. c #526D9C",
"a. c #696585",
"s. c #746A84",
"d. c #667596",
"f. c #4569A3",
"g. c #4B6DA4",
"h. c #446CAC",
"j. c #486EAC",
"k. c #4066A9",
"l. c #506EA0",
"z. c #4C72AD",
"x. c #5171A6",
"c. c #5374AB",
"v. c #5579AF",
"b. c #5978AE",
"n. c #4C73B1",
"m. c #5176B2",
"M. c #5579B3",
"N. c #5B7DB4",
"B. c #5B7EB8",
"V. c #8B7886",
"C. c #5E80B6",
"Z. c #5C80B8",
"A. c #6282B7",
"S. c #6385B9",
"D. c #6789BD",
"F. c #7D96BB",
"G. c #8C8982",
"H. c #948B8B",
"J. c #93928B",
"K. c #9D8C94",
"L. c #9C9B95",
"P. c #8B8596",
"I. c #A98D89",
"U. c #B79691",
"Y. c #A4A29B",
"T. c #ABA49C",
"R. c #ABAAA4",
"E. c #A8A7A1",
"W. c #B3B2AC",
"Q. c #BAB8B1",
"!. c #B7B7B2",
"~. c #C79981",
"^. c #D19D82",
"/. c #DCA385",
"(. c #D4A48C",
"). c #DDA68A",
"_. c #DEA88C",
"`. c #D0A086",
"'. c #DEAA90",
"]. c #D2A992",
"[. c #E2AB8E",
"{. c #E1A78B",
"}. c #E1AC91",
"|. c #E4B195",
" X c #E9B395",
".X c #D9BCAA",
"XX c #C3C3BC",
"oX c #D9C2B3",
"OX c #92A5C1",
"+X c #A6B3C7",
"@X c #C7C7C2",
"#X c #CACBC5",
"$X c #CECEC9",
"%X c #C7C8C1",
"&X c #CFD0CB",
"*X c #D3D4CD",
"=X c #DED5CB",
"-X c #D5D6D1",
";X c #D8D7D1",
":X c #D7D8D3",
">X c #D9DAD3",
",X c #D8CDC2",
/* pixels */
"                                                                                                ",
"                                                                                                ",
"                                                t 5 1 y 7                                       ",
"                                          8 8 h g h t $.y                                       ",
"                                      q t d g &.s s $.&.y                                       ",
"                                    t f a $.&.$.s s $.$.6                                       ",
"                                  6 a %.$.$.&.g s $.p $.d 8                                     ",
"                                8 d a :.$.$.$.&.$.:.;.:.:.a 8                                   ",
"                              8 s a $.,.-.$.:.*.,.,.<.*.:.%.i                                   ",
"                              y a %.%.%.:.:.*.<.<.,.<.-.:.%.%.5                                 ",
"                              r $.%.p $.;.;.;.<.-.-.,.<.*.;.;.r                                 ",
"                              i a %.%.p #.#.-.-.*.-.<.<.*.*.:.r                                 ",
"                              d a %.%.p #.#.;.-.;.-.-.-.;.%.;.d                                 ",
"                            7 e a p %.%.#.#.#.;.;.-.-.-.%.%.#.k /                               ",
"                            Z s p p %.p #.#.#.;.;.;.-.;.$.$.p n ~.                              ",
"                            ( 9.i p %.p #.#.#.#.#.#.;.#.$.a i 9...                              ",
"                            | U.j u p p p u #.#.#.#.#.#.#.w j V.Q                               ",
"                            Q (.a.g p p p u u p #.#.#.#.w $.K Y                                 ",
"                              / X.w.u p p p p u w #.#.w 1.z                                     ",
"                                  ) m i w u p p #.w w j I                                       ",
"                                    / J u i u u u g f D                                         ",
"                                      B D a.p i j s.Z                                           ",
"                                        [ (.s.s.V.{.!                                           ",
"                              J.Y.W.Q.Q.].)._._.[.[.V & & & & * =                               ",
"                          ' XX-X>X>X>X>X|.{.[.[.[.[.Y # @ @ @ @ * ,                             ",
"                          R.>X:X>X>X>X;XoX_.[.@.).|.~ @ @ + o o @ -                             ",
"                          XX$X:X>X*X:X:X*XoXoXoXoX=X' + o @ @ o @ $                             ",
"                        L.#X!.:X:X:X:X>X>X>X;X;X>X>X' @ + + @ @ # # <                           ",
"                        XX%X!.:X:X:X:X*X;X;X;X-X;X>XL o o + @ @ # # -                           ",
"                      J.-XXXW.:X*X:X*X:X*X-X;X-X;X$X2 o + @ @ @ @ @ =                           ",
"                      W.:X%XR.-X-X-X*X:X-X*X-X:X>XG.# @ + @ + @ @ @ =                           ",
"                    P $X:X&XE.-X-X*X*X:X-X-X>X$XG.- + o o @ @ @ + @ # <                         ",
"                    G.#X>X-XY.&X-X-X-X-X:X&XL.2 + + + X o @ + @ X @ # -                         ",
"                      P Y.XXY.%X-X-X-X-X$XL % X X X + X + + @ @ # ;                             ",
"                        Y o.^ !.:X-X:X>XJ.+ X X X X X + + o @ 3 [ ]                             ",
"                        [ ).~.E.>X:X*X:XN . X X O X X + + X ; @.|.^.                            ",
"                        ] [.+.' :X:X:X&XM . . . + X X X + X ; @.|.`.                            ",
"                        { [._ P $X:X:X:XL . X X O X X X X @ - ] }.).                            ",
"                        O._./   Q.:X>X>XR.% . . . . . . @ %   Q )._.Q                           ",
"                        ^.(.U   C.F.OX+X+XK > > 1 q x c m r.    @.[.{                           ",
"                      U ).~.    i.n.m.M.M.m.h.i.c.m.n.n.n.c.A    .[._.}                         ",
"                    V +.'...    i.5.7.j.h.h.n.7.B.n.h.j.h.z.A   } [.|.).Y                       ",
"                    | }.'.~.  c f.5.M.M.n.7.n.7.B.j.m.Z.B.j.G   @.@.}._.R                       ",
"                    ..}.~.] R c 7.6.Z.Z.m.8.j.7.Z.h.m.B.M.f.G   W } [./.Y                       ",
"                    ] {.o.C     i.6.Z.N.6.6.z.5.B.j.j.N.c.i.v     R @.{                         ",
"                      ^ V       3.h.7.6.4.7.7.5.n.j.3.k.g.x.Z       V                           ",
"                                2.M.m.n.h.8.1.b 4.5.g.z.b.x.A                                   ",
"                                e.z.z.n.Z.M.9 x x.m.M.A.N.x.A                                   ",
"                                e.M.m.z.M.g.  x x.b.B.D.D.c.A                                   ",
"                                e.B.B.m.n.t.    l.N.S.S.S.x.S                                   ",
"                                t.B.Z.N.M.t.    y.M.N.B.N.g.                                    ",
"                                e.M.B.N.M.q.    y.b.A.S.N.y.                                    ",
"                                0.j.M.M.M.F     y.b.N.S.N.t.                                    ",
"                                0.j.c.n.c.G     y.c.b.S.b.0.                                    ",
"                                9.z.c.c.c.v     y.c.b.N.b.q.                                    ",
"                                m g.c.M.g.c     t.c.l.c.g.G                                     ",
"                                n 7.x.C.g.c     t.c.x.x.x.J                                     ",
"                                n f.x.b.x.Z     0.x.x.x.l.Z                                     ",
"                                S u.g.g.l.c     q.l.g.u.d.N                                     ",
"                                / U.K.H.I.V     ` K.P.I.^.W                                     ",
"                                 .[.[.[.{.Y     { {.{.{.@._                                     ",
"                                4 ! ^ _ R         ! R E E                                       ",
"                                                                                                "
};
