/* XPM */
static char *eeb86db1d6dd4883946548028e2f98a3LVUFWBy6rGpTVJEq[] = {
/* columns rows colors chars-per-pixel */
"48 63 184 2 ",
"   c None",
".  c #070704",
"X  c #080703",
"o  c #0C0B06",
"O  c #0E0D08",
"+  c #110F09",
"@  c #100E07",
"#  c #14130C",
"$  c #1A150D",
"%  c #1C1A12",
"&  c #131619",
"*  c #211C13",
"=  c #272217",
"-  c #262319",
";  c #2E271C",
":  c #37291D",
">  c #181D24",
",  c #392D21",
"<  c #3F3427",
"1  c #232A3A",
"2  c #2F2F35",
"3  c #493629",
"4  c #5C473A",
"5  c #594738",
"6  c #624C3D",
"7  c #17214B",
"8  c #1C2346",
"9  c #1B2451",
"0  c #1A255A",
"q  c #1C2657",
"w  c #252B44",
"e  c #282C41",
"r  c #292F4D",
"t  c #232D4B",
"y  c #2C384B",
"u  c #273345",
"i  c #323745",
"p  c #232D52",
"a  c #212D5B",
"s  c #2C3C53",
"d  c #2E345D",
"f  c #293C58",
"g  c #313F51",
"h  c #091C6C",
"j  c #051C6F",
"k  c #061E73",
"l  c #081F71",
"z  c #0C226D",
"x  c #142363",
"c  c #1D2E65",
"v  c #1B2D6B",
"b  c #112268",
"n  c #062176",
"m  c #0A2375",
"M  c #06257D",
"N  c #0A257C",
"B  c #0D297D",
"V  c #152A74",
"C  c #1B2D73",
"Z  c #122C7C",
"A  c #1F357C",
"S  c #202E63",
"D  c #213169",
"F  c #3C3D65",
"G  c #253877",
"H  c #3A4454",
"J  c #364458",
"K  c #3A4B64",
"L  c #334667",
"P  c #35427C",
"I  c #3F5476",
"U  c #3C567C",
"Y  c #424D5D",
"T  c #5B545B",
"R  c #654F40",
"E  c #6C5544",
"W  c #685245",
"Q  c #7B5D4C",
"!  c #755745",
"~  c #775F50",
"^  c #7D604D",
"/  c #7C6351",
"(  c #73605D",
")  c #414F66",
"_  c #42536B",
"`  c #5A5062",
"'  c #424A7C",
"]  c #445775",
"[  c #435A7F",
"{  c #4D507E",
"}  c #595C7F",
"|  c #625C71",
" . c #69607D",
".. c #7E6B71",
"X. c #85614F",
"o. c #846654",
"O. c #8A6652",
"+. c #866955",
"@. c #8B6A55",
"#. c #8E6D5A",
"$. c #856B5D",
"%. c #936D57",
"&. c #946E59",
"*. c #92715C",
"=. c #9A735C",
"-. c #A1745C",
";. c #947462",
":. c #9A7867",
">. c #836E77",
",. c #947C79",
"<. c #A17B65",
"1. c #A97F68",
"2. c #AA826B",
"3. c #AC8067",
"4. c #B4846B",
"5. c #B58A73",
"6. c #BB8C73",
"7. c #BC927A",
"8. c #C28E73",
"9. c #C49276",
"0. c #C2937A",
"q. c #CB967A",
"w. c #CB997D",
"e. c #C99275",
"r. c #D29A7D",
"t. c #062781",
"y. c #092781",
"u. c #062883",
"i. c #0C2A83",
"p. c #0C2C88",
"a. c #112D81",
"s. c #143082",
"d. c #1F4B94",
"f. c #2F5083",
"g. c #3E5A85",
"h. c #3F5C88",
"j. c #2C5496",
"k. c #2F599C",
"l. c #2A5497",
"z. c #345B96",
"x. c #395D97",
"c. c #355D9D",
"v. c #305795",
"b. c #3A619C",
"n. c #3B61A1",
"m. c #435E89",
"M. c #445E85",
"N. c #496388",
"B. c #5A698D",
"V. c #446394",
"C. c #496794",
"Z. c #4D6995",
"A. c #43669B",
"S. c #46699B",
"D. c #4B6B9C",
"F. c #666383",
"G. c #72748A",
"H. c #4165A1",
"J. c #456AA2",
"K. c #4B6DA2",
"L. c #4F71A3",
"P. c #5373A5",
"I. c #5977A7",
"U. c #5B79A8",
"Y. c #5876A8",
"T. c #867284",
"R. c #957C85",
"E. c #968283",
"W. c #AC8B82",
"Q. c #AA8B88",
"!. c #A78A87",
"~. c #B08E8A",
"^. c #CB9C82",
"/. c #C49984",
"(. c #D49E82",
"). c #D6A285",
"_. c #D9A486",
"`. c #D6A589",
"'. c #D9A689",
"]. c #DAA68A",
"[. c #DCA98C",
"{. c #CAA190",
"}. c #DAA990",
"|. c #E2AB8C",
/* pixels */
"                                                                                                ",
"                                                                                                ",
"                                                                                                ",
"                                                                p e   2 u                       ",
"                                                8 p 0 0 a w w v C p a a v p                     ",
"                                              0 m i.i.i.Z V V Z B Z Z Z s.c                     ",
"                                            x N y.i.p.p.i.Z N i.i.a.s.Z a.c                     ",
"                                          0 m N y.y.i.y.y.N N i.i.a.s.Z Z q                     ",
"                                        p k N y.y.y.p.y.N m m Z i.Z a.Z C 1                     ",
"                                        b k t.y.y.y.y.N N Z { C N N B V t                       ",
"                                      9 k y.t.M y.t.t.m k f.{.T.V Z G V r                       ",
"                                      b M t.t.t.N n k N N F.|.].F.G | c a                       ",
"                                      z y.t.k M ' ..d S | Q.|.|.}.~.;.i r                       ",
"                                    8 z k k k C !.|.>.d $.<.~.}.^.0.+.                          ",
"                                    7 l k k j F (.|.R.M./.2.%.O.*.*.5                           ",
"                                    7 l k h h ` (.|.~.| ].[.].7.E < ;                           ",
"                                    7 l k k P :.w.'.`.^._.'.[.w.Q = =                           ",
"                                      v A g.!.w.0._._.'.`._.[.'.-.;                             ",
"                                      T 2.!.[.'._.).`.`._._.'.[.<.-                             ",
"                                      E 0.`._._.).).`.`.'.[.[._.<.4                             ",
"                                        2.)._.)._._.'.'.'.[.).q.2.E                             ",
"                                        5.(.w.).r.r.r._.'.[.).#.4                               ",
"                                      , O.<.e.r._.r.r._.r.6.%.                                  ",
"                                    O @ O # 3 3.r.&.@.+.Q                                       ",
"                                  o o o o o o : @.                                              ",
"                              - @ X o o o O O O %                                               ",
"                              $ O o o o o @ @ O o                                               ",
"                            - O X o o o @ o o X o @                                             ",
"                            $ o X . X O @ O X X O O %                                           ",
"                            $ o O X X o @ o O o O O #                                           ",
"                            # o o X X o o O O O O O $                                           ",
"                          * o O o X X X o o O X O 3 6                                           ",
"                          # O o o X o o X o X * ^ w.2.                                          ",
"                          # o o o o o o X . # *.`.`.r.=.                                        ",
"                          O o o o O o o o o O 5 w.'.).q.+.                                      ",
"                          o o o o o o o o o o + ^ )._.).0.~                                     ",
"                          o o o o o o o X O @ #   =.)._._.5.                                    ",
"                          > o o o o o o O O O       1._.].(.6.;.                                ",
"                        y g.f & . X O O o O           5._.]._.(.5./                             ",
"                        s j.z.U w & X X O O           o.(.].[.].7.o.                            ",
"                        J S.c.K.S.f.L 1 &               5.].].`.7.^                             ",
"                        s S.b.P.P.c.k.S.N.K             o.^.`.0.1.;.                            ",
"                          N.c.K.L.H.k.L.L.L.N.I           &.2.;.#./ R                           ",
"                          L c.D.L.K.n.H.P.P.P.L.N.Y         ! R 6 4                             ",
"                            U K.K.K.J.c.J.Y.Y.Y.P.C._                                           ",
"                            i [ D.K.D.J.n.K.U.U.Y.P.Z.]                                         ",
"                                ] S.L.L.L.n.K.U.Y.Y.P.D._                                       ",
"                                  ] C.L.P.P.H.b.Y.U.Y.P.M.                                      ",
"                                    H I D.P.K.A.c.P.P.K.C.H                                     ",
"                                        K D.S.D.v.x.Y.L.C.H                                     ",
"                                        J C.K.P.j.j.L.L.m.                                      ",
"                                        ] L.P.D.d.x.S.S.K                                       ",
"                                      g Z.P.P.z.j.S.b.]                                         ",
"                                      M.D.K.A.l.S.S.g.u                                         ",
"                                    _ D.S.D.l.z.S.g.y                                           ",
"                                    ~ G.Z.V.v.V.M.s                                             ",
"                                  6 8.q.E.B.C.m.s                                               ",
"                                  ! q.(.r.0.W.,.W                                               ",
"                                    &.8.q.r.r.r.8.=.Q                                           ",
"                                        X.1.q.r.r.r.e.4.X.                                      ",
"                                            X.-.-.%.&.O.!                                       ",
"                                                                                                ",
"                                                                                                "
};
