/* XPM */
static char *c544461f52734240c24895d6e3650400Frd51mutpVkFDVQG[] = {
/* columns rows colors chars-per-pixel */
"53 80 202 2 ",
"   c None",
".  c #030200",
"X  c #0A0601",
"o  c #060A05",
"O  c #0B0B04",
"+  c #070B0A",
"@  c #0D0D09",
"#  c #120502",
"$  c #110D05",
"%  c #1B0D02",
"&  c #110E0A",
"*  c #0E1205",
"=  c #05140E",
"-  c #0D110B",
";  c #0F1A0E",
":  c #131206",
">  c #1B1305",
",  c #1B1A05",
"<  c #14120B",
"1  c #1A170E",
"2  c #19150D",
"3  c #1E160D",
"4  c #1A150C",
"5  c #16190C",
"6  c #1B180F",
"7  c #1A180E",
"8  c #1D1A0E",
"9  c #1C1A0D",
"0  c #180F12",
"q  c #140F15",
"w  c #0B1312",
"e  c #0F1A12",
"r  c #111211",
"t  c #141511",
"y  c #191611",
"u  c #1A1412",
"i  c #171812",
"p  c #191A11",
"a  c #1C1910",
"s  c #1D1A11",
"d  c #1E1B13",
"f  c #1F1C12",
"g  c #1D1D15",
"h  c #1C1B13",
"j  c #131718",
"k  c #151918",
"l  c #1C1D1A",
"z  c #200D00",
"x  c #200C02",
"c  c #280C00",
"v  c #201404",
"b  c #291103",
"n  c #231A07",
"m  c #22150B",
"M  c #221B0D",
"N  c #2B1B0B",
"B  c #2C1907",
"V  c #351B0D",
"C  c #211E15",
"Z  c #221E13",
"A  c #291C12",
"S  c #231C1A",
"D  c #3A1E12",
"F  c #112212",
"G  c #1C2113",
"H  c #21230E",
"J  c #2D220E",
"K  c #302009",
"L  c #3D220F",
"P  c #3F2C0E",
"I  c #3A2304",
"U  c #232215",
"Y  c #2B2314",
"T  c #212119",
"R  c #25221A",
"E  c #26251D",
"W  c #24231A",
"Q  c #2A251A",
"!  c #272A1D",
"~  c #2C2A1D",
"^  c #312314",
"/  c #3C2313",
"(  c #3B2D10",
")  c #34251D",
"_  c #3B271B",
"`  c #3C2B1B",
"'  c #342C1F",
"]  c #3F3416",
"[  c #292521",
"{  c #262920",
"}  c #2C2C23",
"|  c #312527",
" . c #332D23",
".. c #3C2B24",
"X. c #2F302A",
"o. c #343125",
"O. c #3B3425",
"+. c #34332A",
"@. c #3B362A",
"#. c #3A3B29",
"$. c #41230D",
"%. c #4A2616",
"&. c #432A14",
"*. c #4C2A15",
"=. c #4B271B",
"-. c #412C1C",
";. c #4D2818",
":. c #432211",
">. c #5F2515",
",. c #522D1C",
"<. c #58281A",
"1. c #592419",
"2. c #4B3116",
"3. c #4F331C",
"4. c #563418",
"5. c #56381E",
"6. c #583B1B",
"7. c #5E341E",
"8. c #61351C",
"9. c #7A3F1F",
"0. c #472D22",
"q. c #443125",
"w. c #4B3524",
"e. c #4D3628",
"r. c #403D2E",
"t. c #593623",
"y. c #5A3A26",
"u. c #513728",
"i. c #5D3D2A",
"p. c #5C342A",
"a. c #5B3E30",
"s. c #6A3E24",
"d. c #693D2C",
"f. c #663727",
"g. c #7A3F21",
"h. c #733F29",
"j. c #6E3E30",
"k. c #753D31",
"l. c #7E421D",
"z. c #4C4928",
"x. c #4A4132",
"c. c #574E3F",
"v. c #5B423D",
"b. c #664124",
"n. c #6D4627",
"m. c #604826",
"M. c #6C4824",
"N. c #614128",
"B. c #6D422A",
"V. c #74452B",
"C. c #7A4B2B",
"Z. c #744827",
"A. c #7E502C",
"S. c #664332",
"D. c #6F4435",
"F. c #6B4B35",
"G. c #634439",
"H. c #6B4739",
"J. c #644E39",
"K. c #754434",
"L. c #744F35",
"P. c #7B4C33",
"I. c #734E3B",
"U. c #78483A",
"Y. c #7D5230",
"T. c #70513D",
"R. c #7F4F41",
"E. c #7C5945",
"W. c #873E15",
"Q. c #863A18",
"!. c #8D3C19",
"~. c #903C1A",
"^. c #8C3F24",
"/. c #853D2C",
"(. c #973F2B",
"). c #84431E",
"_. c #8D431A",
"`. c #864B1F",
"'. c #8B4C1E",
"]. c #92461D",
"[. c #91481F",
"{. c #834225",
"}. c #8C4523",
"|. c #854A25",
" X c #8A4A26",
".X c #84442C",
"XX c #8B442C",
"oX c #844D2E",
"OX c #8A492E",
"+X c #934623",
"@X c #9B4021",
"#X c #924A23",
"$X c #95492F",
"%X c #854733",
"&X c #8A4737",
"*X c #834A33",
"=X c #8A4A33",
"-X c #89493B",
";X c #964E36",
":X c #8B5234",
">X c #84523A",
",X c #8E5541",
/* pixels */
"                                                                                                          ",
"                                                                                                          ",
"                                                                                                          ",
"                                                                                                          ",
"                                                                                                          ",
"                                                                                                          ",
"                                                                                                          ",
"                                                                                                          ",
"                                                                                                          ",
"                                                                                                          ",
"                                                                                                          ",
"                                                                                                          ",
"                                                                                                          ",
"                                                                                                          ",
"                                                                                                          ",
"                                                                                                          ",
"                                                                                                          ",
"                                                                                                          ",
"                                                                                                          ",
"                    T { E E 2 O X X . . . . . . . . . . . . . . . . X X X X X O O X                       ",
"                  g g < * o X X X X # O X * O + & X # # $ O O X . X X X X . . . . . . . X X .             ",
"                  g * O X X * & # $ $ O X O o . . X @ @ O : 5 : < & : < : & & < 2 2 # O O X X .           ",
"                  E O . < - i @ & & < $ O O O O . + @ O X O O $ O $ & < & & < < < $ < $ : < $ O           ",
"                  U o . < O @ @ u & < 5 : X . o o o + + O O : $ < < < $ 2 2 2 $ 2 < 4 < 2 7 M O           ",
"                  T . . @ O O X o O < O & $ & O & w - + 5 < 7 > & > 2 u a 2 2 2 2 4 2 a : 2 7 O           ",
"                  p . X < . . @ . X O & & & $ O p - - - < 9 p 3 $ & 2 2 p > u i < 2 < 2 < 2 4 $           ",
"                  i . X & X . @ o = + < 2 u $ @ 7 h 9 5 $ $ $ 2 O $ < < > : C 2 : a 2 2 4 2 < $           ",
"                  i . O @ @ X X o O O < 2 & X $ 9 H : * : 3 & 0 $ < : 4 < < R < < u 2 > 4 4 : $           ",
"                  5 . O O @ @ o O O @ @ r @ X % 3 v n N > > $ d : < $ p < 2 R 4 2 2 4 2 2 a 4 <           ",
"                  < X O @ @ & & $ O < - w O O > z % ` ` % u @ @ < : $ 3 < 8 R 2 a 2 5 2 2 h 8 2           ",
"                  O @ @ O @ @ & # O : r - + X > z L F.N.z > 2 r > O O 8 2 a C a a a p 3 7 Z 8 2           ",
"                  O < O O @ o o # # @ k w t < M w.T.E.S.V # 2 w a < $ a 2 2 8 a a a a 8 7 h a C           ",
"                  O 5 X o o * O X o = e p A ) -.P.;X}.:X6.v 9 q 5 & & 0 % % H 9 ; t l 2 4 Y M Z           ",
"                  O 5 < O < X X # o o ; Z ^ b d.oX}.}.OX:Xy.$ i < & @ u 0 4 9 h i t t i 3 A M Q           ",
"                  X 5 O : < O O 2 o t t Z > b 8.|.).|..X-Xh.D R > 5 2 q r 5 8 M 7 p u 2 h U h !           ",
"                  . 5 O O < O 2 : & a h U , B P.).).C.s.>.>.j.G.2.K 5 @ j @ 3 Y m Z 8 p G U U !           ",
"                  . i O @ t @ & : Z E  .S X -.V.{.9.C.n.V.XXOXOXA.4.N O w < 8 n > n , 5 T G { }           ",
"                  . - O < i o @ M 8 C m c :.=.K..X.XXX{. X+X_.[. XC.&.> - u Z v n H , 5 g E [ }           ",
"                . . & O @ i @ - 5 } 7 b k.,X1.<.C.%X/.XX}._.'.|.+XoX3.Y G < 4 3 H 9 5 : U R { }           ",
"                . . i @ < & O < 2 ~ > ,././.k.;.%.d.K.k.V.Z.b.F.OX>Xw.M X.@ 2 2 8 F , > R Q ~  .          ",
"                . . & < @ + O < G 3 z d.{.Z.V.L.t.%./ _ _ ) ` ..<.5.w.Y R u 0 u T p 5 < M Q  .}           ",
"                . . @ & < O X & F 9 V V.l.l.9..X=XV.t.w.e.i.G.v.p.%.5.J.-.A | S l k 7 $ 3 Y o.o.          ",
"                . . - < & O @ + F 5 N U./.Q.!.~.!.}.%X%X&X;X;XoX,XK.P.P.L./ ) [ l 5 7 h Y Q o.o.          ",
"                . . < @ @ O & < 5 5 % d..X^.}.!.W._..XXX$X~.].'.P. X|.l.|.f.V 8 < 5 h M Z Q O. .          ",
"                . O @ O O @ < - O X . D 7.Z.n.M.Z.Z.L.U.-XOX X X/.!.+X_.|.n.K H < 9 U 9 2 R @...          ",
"                . O < X @ < @ O # X m e.*.I ( ] P &.` ..e.i.B.V.*XOX}.^.:XN.Y , 9 , U h i U @.o.          ",
"                . @ i @ @ & X < O $ x R.P.8.t.2.*.,.,.=.:.L / / ;.d.=X,XD.w.~ U < 8 R p < W r.O.          ",
"                . O u O o X . i w O x f.XXXX*X*X*X%X%X&X.XZ.m.z.q.0.j.D.G...G p U 8 M g e G #.#.          ",
"                . @ & X . O o < % % x V D.D.D.D.d.i.p.i.y.t.i.S.c.x.O. . .M $ 4 R h R R > U @.#.          ",
"                . @ o o @ @ O @ * 2 > m 0.-._ V N N B Y Y V ` q.@.@.O.Q 3 : 8 C 8 8 4 U h 8 o.@.          ",
"              . . @ . O + O @ + = e w @ t 0 % $ : : * 2 5 5 Z C Y M 3 > 3 8 C a 2 4 8 h U 8 ~ o.          ",
"              . . @ . O O O @ - w w + + @ & & & O - - t t i u 2 > 3 > > 8 4 2 f $ : R a G U R ~           ",
"              . . 2 o O @ o O - + + + q & & & $ < t i i @ & 2 0 $ 2 5 $ Z S p < $ O h h 2 R U ~           ",
"              . o u o O - O O O o O # # # # # $ $ & : < & % S S > > > & 2 S R < < & $ Z 7 U R ~           ",
"              . o u o O < + + O o - @ X X X $ O 7 5 * : < < 9 > 2 2 t & 2 u a & < < < a 7 h U ~           ",
"              . O & O O @ @ O - * < O O $ $ : O : * 5 * * * : $ $ a a $ < 2 2 2 $ < 8 9 5 Y U ~           ",
"              . & 2 O O . . t i & $ X & & O O & < * O < < $ < Z < : < * * $ 2 < : < 9 h 8 ~ Q !           ",
"              X O @ o X O < g k u & & & $ $ o o X O < & O & > u X : 2 < p : : 7 2 4 8 9 : U ~ U           ",
"              - @ o . . X . . . . . . . . . . . . o O @ O O $ $ * O : : Z 8 Z Q U G 7 7 9 ~ Y H           ",
"              o . . . . . . - k l p u p l l G { { X.X.} E C p u 5 < < * O O O : > 9 U ~ ~ U 8 9           ",
"                                                                              X O : : > 9 7 9 3           ",
"                                                                                                          ",
"                                                                                                          ",
"                                                                                                          ",
"                                                                                                          ",
"                                                                                                          ",
"                                                                                                          ",
"                                                                                                          ",
"                                                                                                          ",
"                                                                                                          ",
"                                                                                                          ",
"                                                                                                          ",
"                                                                                                          ",
"                                                                                                          ",
"                                                                                                          ",
"                                                                                                          ",
"                                                                                                          ",
"                                                                                                          ",
"                                                                                                          ",
"                                                                                                          "
};
