/* XPM */
static char *ae507a7c8700456cfabf51f50e1d5200vZGliNo0vgXetLdN[] = {
/* columns rows colors chars-per-pixel */
"32 39 144 2 ",
"   c None",
".  c #0E352F",
"X  c #1C382D",
"o  c #1F3C33",
"O  c #2E382C",
"+  c #223E32",
"@  c #5F331B",
"#  c #6F2E13",
"$  c #712E11",
"%  c #64361E",
"&  c #743116",
"*  c #7B3215",
"=  c #73371C",
"-  c #7A381B",
";  c #523521",
":  c #5E3D25",
">  c #613D24",
",  c #16463D",
"<  c #1C4339",
"1  c #1F483D",
"2  c #2D4036",
"3  c #244439",
"4  c #334135",
"5  c #35453A",
"6  c #374939",
"7  c #4A4A36",
"8  c #444B38",
"9  c #534631",
"0  c #1A4D44",
"q  c #16534B",
"w  c #1D554D",
"e  c #1B584F",
"r  c #0D5D55",
"t  c #165A50",
"y  c #214B42",
"u  c #2E4D42",
"i  c #23564C",
"p  c #2C544A",
"a  c #305147",
"s  c #385145",
"d  c #365C4E",
"f  c #3A594A",
"g  c #235D52",
"h  c #2D5E52",
"j  c #0F665D",
"k  c #0E685E",
"l  c #14675E",
"z  c #19655D",
"x  c #1C685C",
"c  c #276055",
"v  c #2C6155",
"b  c #246359",
"n  c #2C675C",
"m  c #21685E",
"M  c #2B6B5D",
"N  c #316256",
"B  c #0B6D65",
"V  c #136A62",
"C  c #1D6C63",
"Z  c #0E7067",
"A  c #07716A",
"S  c #0D7269",
"D  c #147067",
"F  c #1D7066",
"G  c #14736A",
"H  c #18776E",
"J  c #17796F",
"K  c #1A796F",
"L  c #067B73",
"P  c #0B7D74",
"I  c #117C73",
"U  c #1A7C72",
"Y  c #226A60",
"T  c #296E62",
"R  c #257167",
"E  c #217C72",
"W  c #415245",
"Q  c #427165",
"!  c #833515",
"~  c #8A3613",
"^  c #863816",
"/  c #803618",
"(  c #863818",
")  c #8B3818",
"_  c #903511",
"`  c #923915",
"'  c #04847C",
"]  c #0C837A",
"[  c #06887F",
"{  c #14857C",
"}  c #1E837A",
"|  c #16887E",
" . c #22847A",
".. c #26897E",
"X. c #038C84",
"o. c #0B8B82",
"O. c #168C82",
"+. c #019187",
"@. c #099187",
"#. c #03948C",
"$. c #0B948B",
"%. c #03988F",
"&. c #17968C",
"*. c #009790",
"=. c #029C93",
"-. c #0E9F95",
";. c #0E9D94",
":. c #0B9B92",
">. c #129D94",
",. c #129E95",
"<. c #149E96",
"1. c #199D93",
"2. c #00A197",
"3. c #02A096",
"4. c #07A096",
"5. c #01A097",
"6. c #09A096",
"7. c #0BA197",
"8. c #0FA197",
"9. c #01A098",
"0. c #00A198",
"q. c #01A199",
"w. c #02A098",
"e. c #03A098",
"r. c #03A299",
"t. c #07A29A",
"y. c #07A39A",
"u. c #02A49A",
"i. c #05A59C",
"p. c #06A69C",
"a. c #02A49A",
"s. c #0AA39A",
"d. c #0CA298",
"f. c #0BA49B",
"g. c #08A99F",
"h. c #11A097",
"j. c #14A298",
"k. c #10A49B",
"l. c #17A59B",
"z. c #13A69C",
"x. c #1CA299",
"c. c #1BA59C",
"v. c #24A49B",
"b. c #22A69C",
/* pixels */
"                                                                ",
"                                                                ",
"                                                                ",
"                                                                ",
"                                                                ",
"                                                                ",
"                                                                ",
"                                      + , X                     ",
"                                4 i B L ' k                     ",
"                              u G X.X.X.' L <                   ",
"                              H X.X.X.X.X.' t                   ",
"                          h h o.X.+.+.+.X.' Z                   ",
"                        i ] V P X.X.#.%.+.X.] 1                 ",
"                      p | %.D I +.#.=.>.:.+.#.j                 ",
"                    W } >.:.{ l +.=.>.v.<.%.#.X.3               ",
"                    R :.:.+.o.z X.#.j.v.x.=.#.#.V               ",
"                  N $.6.=.#.+.I V =.d.l.c.d.=.*.X.y             ",
"                   .8.:.:.:.#.#.C $.t.d.k.k.=.*.*.o.3           ",
"                Q 1.:.:.:.=.:.%.{ E t.e.t.f.=.=.#.' 0           ",
"                ..h.:.6.8.2.=.#.#.C O.t.q.q.=.X.r r S ,         ",
"              h $.;.;.6.6.=.=.=.*.o.Y :.e.e.+.t L =.*.0         ",
"              U =.=.=.=.=.=.#.] =.=.{ F 2.e.V P A X.P           ",
"            a o.%.=.:.=.o.U f d =.u.=.K U X.V L . ' t           ",
"            b %.#.=.=.@.W = * f e.e.2.=.G w S +.L V             ",
"            U =.%.:.%.T - ^ $ h =.e.u.=.*.B w G w               ",
"          W O.:.%.%.T % * ^ $ > P =.g.g.=.#.<                   ",
"          f &.:.=.b % ( # ~ ~ ) v =.i.u.q.O.                    ",
"          v $.:.#.8 $ ~ * $ ! & C =.u.u.=.b                     ",
"          n :.#.%.M @ * ` ^ * ; X.e.e.u.O.+                     ",
"          T :.*.2.#.G 6 / ` _ 7 =.=.e.u.Y                       ",
"          v $.=.=.=.e.%.v : 9 U =.=.e.@.u                       ",
"          s } @.=.=.r.e.=.@.*.=.=.=.=.U                         ",
"            5 e #.*.=.e.2.e.u.u.=.=.:.v                         ",
"              < X.=.=.=.e.u.g.u.i.2.@.y                         ",
"                V S B *.e.e.g.i.u.i.]                           ",
"                      Z #.%.2.i.g.e.K                           ",
"                      + 0 V o.2.i.=.F                           ",
"                            0 x P P g                           ",
"                                    O                           "
};
