/* XPM */
static char *_7b645e0652349bbf09177a45cbd2424NH6sBEqC6DW8wXy4[] = {
/* columns rows colors chars-per-pixel */
"32 48 103 2 ",
"   c None",
".  c #040301",
"X  c #0A0603",
"o  c #0C0B05",
"O  c #0D0D09",
"+  c #110D06",
"@  c #110E09",
"#  c #0F1307",
"$  c #0E110D",
"%  c #131107",
"&  c #1C1106",
"*  c #14120B",
"=  c #19150C",
"-  c #17180D",
";  c #1B1A0D",
":  c #0B1510",
">  c #131211",
",  c #1A1611",
"<  c #141910",
"1  c #1C1A12",
"2  c #1F1719",
"3  c #1C1B19",
"4  c #221207",
"5  c #26160A",
"6  c #211A0D",
"7  c #2A1B0B",
"8  c #331D0C",
"9  c #231D13",
"0  c #2A1E15",
"q  c #221E18",
"w  c #331B13",
"e  c #3B1E13",
"r  c #1F2114",
"t  c #2F200E",
"y  c #35220F",
"u  c #232215",
"i  c #2B2414",
"p  c #24241A",
"a  c #2B251A",
"s  c #25291E",
"d  c #352214",
"f  c #3F2817",
"g  c #3F271C",
"h  c #3F2A19",
"j  c #2C2B22",
"k  c #312F24",
"l  c #382F26",
"z  c #343025",
"x  c #3C3527",
"c  c #3B3827",
"v  c #383628",
"b  c #422216",
"n  c #442C15",
"m  c #432B1A",
"M  c #4E2E1A",
"N  c #522D1F",
"B  c #4B3317",
"V  c #4F311F",
"C  c #54321F",
"Z  c #5C371F",
"A  c #5C381D",
"S  c #402F24",
"D  c #4B2F22",
"F  c #413221",
"G  c #493323",
"H  c #4D3927",
"J  c #4E352B",
"K  c #473A2B",
"L  c #553324",
"P  c #5B3320",
"I  c #563B24",
"U  c #5C3A24",
"Y  c #5B3C2B",
"T  c #673923",
"R  c #6B3B25",
"E  c #613F28",
"W  c #6F3E2B",
"Q  c #703622",
"!  c #70352A",
"~  c #733D2C",
"^  c #783E2C",
"/  c #75421E",
"(  c #6B4123",
")  c #684028",
"_  c #744224",
"`  c #7B4326",
"'  c #73422C",
"]  c #7C442D",
"[  c #744A2D",
"{  c #664133",
"}  c #7B4432",
"|  c #774833",
" . c #893E1D",
".. c #8D401E",
"X. c #824424",
"o. c #8C4623",
"O. c #8C4924",
"+. c #844529",
"@. c #8A452E",
"#. c #814B2F",
"$. c #89492C",
"%. c #854530",
"&. c #894A30",
/* pixels */
"                                                                ",
"                                                                ",
"                                                                ",
"                                                                ",
"                                                                ",
"                                                                ",
"                                                                ",
"                                                                ",
"                                                                ",
"                                                                ",
"                                                                ",
"              r ; o . . . . . . . . . . . X . X                 ",
"            - # o o X o X X X O o @ o o o + X X o X X X         ",
"            X o @ @ @ @ o X . X X o + + * @ * * * * + % o       ",
"            X O o o O * % o o O O * = % * = = = = = = = *       ",
"            X O X o o O * + * - # * = + @ = * ; * = * = *       ",
"            X o o o O O @ + = ; % % = * + = = , = = = = +       ",
"          * X o O o O O @ o & 5 d & * * + = ; 9 = = = 1 =       ",
"          o o O O o o @ : @ 7 I Y 4 * * + ; = 1 1 1 = ; ;       ",
"          # * X o X o $ 1 0 U &.#.n = > @ = = ; < , , 9 9       ",
"          o * % o o o * 6 8 _ O.+.' d ; * = = ; 1 , ; 1 u       ",
"          . $ o * % = p ; 8 ` X._ Q ' U i * > 6 6 ; 1 u s       ",
"          . O @ $ % 1 9 e N ^ +.+.o.o.O.A 1 = ; ; ; ; p j       ",
"          . O * o * u d ^ ! C W ^ _ _ ] R i < = ; - ; a j       ",
"          . @ * o * 1 M ` ` ' P D G J L L F 0 2 1 - - a z       ",
"          . O O O * - V X. ...X.} %.#.| ' [ D a 1 ; 6 a z       ",
"          . O o o * @ w R _ / _ } @.o.$.o.o.R t - r ; a l       ",
"          o @ o @ + X m A M B M D C A R +.$.E i - 6 1 s x       ",
"          o * o X : @ b ] } ) W ~ T I H Y W l 1 1 9 < p c       ",
"          o O X X O @ 5 D D M f f f G K x a 6 ; 1 9 1 u v       ",
"        . . . O O : $ > > * @ * = 1 1 9 6 = ; 1 * 1 9 u j       ",
"        . O O X X O O X @ @ @ * * @ , = = = 1 = * = ; u a       ",
"        . O O O O X o o X + % % % * ; = = * 1 = * * ; 9 a       ",
"        . $ o X # $ O @ + o # % * % % % * * * * @ = 1 u a       ",
"        o O X X $ $ O o o X X # @ + @ * * * - ; ; ; - u s       ",
"        X X . . X O O O O O : 1 1 > = * % % % - ; ; u i 6       ",
"                                                  % = = %       ",
"                                                                ",
"                                                                ",
"                                                                ",
"                                                                ",
"                                                                ",
"                                                                ",
"                                                                ",
"                                                                ",
"                                                                ",
"                                                                ",
"                                                                "
};
