/* XPM */
static char *ae2d2e22a71b4333ce1daf7c0ef33bd42FJBgus5VftTNfzz[] = {
/* columns rows colors chars-per-pixel */
"64 64 89 1 ",
"  c #C2BCB6",
". c #C4BEB9",
"X c #C7C2BD",
"o c #C9C3BE",
"O c #C7C4C0",
"+ c #CAC6C1",
"@ c #CECAC5",
"# c #CFCCC8",
"$ c #D0CBC7",
"% c #D1CECA",
"& c #D5D1CD",
"* c #D8D3CF",
"= c #D7D4D1",
"- c #DAD6D2",
"; c #DCDAD6",
": c #DEDCD9",
"> c #E1DEDB",
", c #E3E1DE",
"< c #E3E2E0",
"1 c #E4E2E0",
"2 c #E5E3E0",
"3 c #E4E4E0",
"4 c #E5E4E0",
"5 c #E6E4E1",
"6 c #E6E5E1",
"7 c #E5E4E2",
"8 c #E7E5E2",
"9 c #E6E5E3",
"0 c #E7E5E3",
"q c #E7E6E4",
"w c #E8E6E3",
"e c #E8E7E3",
"r c #E8E7E5",
"t c #E9E7E5",
"y c #E9E8E3",
"u c #EAE9E5",
"i c #E9E8E6",
"p c #EAE9E6",
"a c #EBE9E6",
"s c #EBEAE8",
"d c #EBEBE8",
"f c #ECEBE9",
"g c #EEEDE9",
"h c #EDECEA",
"j c #EFEEEA",
"k c #EFEEEB",
"l c #EEEDEC",
"z c #EEEEEC",
"x c #EFEEEC",
"c c #EFEFEC",
"v c #F0EFEB",
"b c #F1EFEB",
"n c #F0EEEC",
"m c #F1EFED",
"M c #F1F0EC",
"N c #F0F0ED",
"B c #F2F0ED",
"V c #F2F1ED",
"C c #F2F1EE",
"Z c #F2F0EF",
"A c #F3F1EF",
"S c #F3F2EF",
"D c #F2F1F0",
"F c #F3F2F0",
"G c #F4F2F0",
"H c #F4F3F0",
"J c #F4F3F1",
"K c #F6F3F1",
"L c #F4F4F1",
"P c #F5F4F1",
"I c #F6F4F3",
"U c #F7F5F3",
"Y c #F5F4F4",
"T c #F7F7F6",
"R c #F8F7F4",
"E c #F8F7F5",
"W c #F9F8F5",
"Q c #F9F8F6",
"! c #FAF9F7",
"~ c #F8F8F8",
"^ c #FAF9F8",
"/ c #FBFAF8",
"( c #FAFAF9",
") c #FBFBF9",
"_ c #FCFBF9",
"` c #FCFCFA",
"' c #FDFCFA",
"] c #FDFDFC",
"[ c #FEFEFC",
/* pixels */
"Fk;nFFCNCNxCCCkkMkdbbky%,kd%;sttqq999991<<<:<:<<##;,%O;;;;;=;===",
"Jx;kFCFFFFFxxCCkkMkdkkp#6kk%:ttqqt999199<<<<<<:<##;<%O;:;;;=;=;=",
"UC:nCLUCFFFFCCCCMkMkkkp&1dk#;dtttqqt99<9q<<<::<:##:<%O;;;;;;;===",
"Un:nUUFJFFFFCCkCMMkkkkp&1kk%;dftsqqq99<9<<<<<<<<##:<%O;;;;=;=;;;",
"EF:nIIIILUFFFCFxCCxknxf&6kn%:ftfsqsqq9991q<<><><##:6&O;::==;;;;=",
"EF>CIEIILIIFFFFFxCCCxnd%6xn&;kddrqqq9tq<q<<<1<<<##:<%O;;:::;;=;=",
"^J:CEEIEIILLFFFCCNCxCCd%6xx%:ddtsqsqqq99q19,<<<<%#:1&+;::=;=;;;=",
"^J>JQEQIEIIIIFFFCCCCxCd&qxC%;fdsqsqtq9991q11<<<<%#:<%O;:::;;;=;;",
"_J>AQQQQTUIIIILCFFFNCCd%tnJ%:lssdsqsqs999777<<<9##<3=O;::;;;;;=;",
"`J,AQQQQTTUTIILUFFFxxFx%wnC%;ffsdssq9s9999779<<<##:3#O;::;;;;;;;",
"`U>U_QQQQQTUULULFFFFCFd%wbJ%:fldssqs9q99977<<<<9##:3#O::::;;:==;",
"_U,U`__Q^QTQUTFUFFFFNFx%wbZ%:fdfsssqsqts97771<<1##<3=O:::;:;;;;=",
"`J,U``__Q)QQTUULIFFFCFk%pCC&:lddssqsqsq999777<<9##33#O::::;:;;;=",
"[E,U``_Q)QQQTRLULFFFFCk%wCC%:xlfsssss99sq9777<<7##33=O::;::;=:;;",
"[U>U````)QQQTRTUJIFFFFk%wCC&:xkfsssdqs9q9999<<77##<3=O;:::;:;;;;",
"[U,E`````))QQTRRUUJFFFb&wCA&:xfflssqsqs9q99977<7##<3#O:::;:;;;;;",
"[U,I````___!E!EUUJJUCFk#pnJ&>kfkffsssqsrqqq<333q##33#O<:::::;:=;",
"[Y,E[[[`]_~_!EEEEIUJFUk&tFJ%:kxdfdsrqsrrqqqq3333##33=O:::::;:=;;",
"[Y<~[[`[]___EE!EEUJJFLx#pnJ&:kkkffdsdsrqqqq<q<3q##<3#O::::;::;;;",
"[U,~[[[`_____!E!EUJJLLx&pnJ&>kkflfddsqsrqqqq<q3q##<3=O:::::;::=;",
"[I<^[[[[```___QE^IILFUx#qCF%:kxfffffdqsrqqqq33qq##:3=O::::;:=;;;",
"[I>~[[[[[```QQQQIIILLUx%pCF&:xkdfffsrdrqqqq<q33q##3q#O:::::::;;=",
"[I>^[[[[`[`____QTIUILUx%pCU&:nxkffssqddqqqqq333q##3q=O::::::;:;;",
"[I<~[[[[[``___QQTTULUUx%pCU%:nfklffsddqqqqqq333q##33#O:<:::;:;;;",
"[I<^[[[[[[`[__QQTTUUIIN#pCU&:kkkfffssrqs33qq3333##33=O:::::;;;;;",
"[I<^[[[[[[[^__QQTTUUFUN#pCL&>kkkfffsssrrddq3333d##:3#O:::::::;;;",
"[L,^[[[[[[[[_QQQTRTUUUx#pNF&:kxkxffdsssrd3d33333##33#O:::::;;;;=",
"[I,^[[[[[[[^___QTRUULLx&pFL#:kkkffffrssq3d33333d##33#O::::::;;;;",
"[I:^[[[[[_[__^^QRTRULUk#pCF&:xkdfffssrrrr3rr333d##33=O;::::;;;;;",
"[I3~[[[[[[[___E^TRUULUk&pCL&:Ckkfffssssrd3333333##33=O;::::;;;;;",
"[I3^[[[[[[[___^EQUUULLx#pLL%:Mkklffsrsrqrrtq3333##33#O::::;:;;;;",
"[I,I[[[[[[[^__^^RTTUUUx#pCF%:nkkffdssssr6q333333##33#O::::::;=;;",
"[I<~[[[[[```___QTTIUIJk%pCU%:kkbffssssrrp66663er##,,%o;:::;;:;;-",
"[I>^[[[[[```__QQTTTEIUk%pCC&;kkdlfssrrsr,ee,,63,##,,%o,::::;:;-;",
"[E>~[[[[[```___QRUIIUJx%pCU%:kdkffdsptqq6ee66e,e$$,,%o:::;:;*,;-",
"[U<^[[[[[[``_QQQQUIJUIx$pCC%:bMdffssdtttee6,6,,e$#,,%o;:::;;;-;;",
"[Y,~[[[[[[``_)QQTUUUUJx#tFF%,bjbffdqptdq6t66,666$@,,&X::;>:;;;-:",
"[U>~[[[[[`[``)QQQUUUUJk#pkJ%:bjyfddddqt6wq,666,,@$,,%X;:>,;;;;--",
"[U<^[[```_`_`QQQUUFFFJk$tCC%,bBbfddpqtt66q61,,,6&@:,%o;:;;;;;;--",
"[Un^QQQEIUJUACCCNkNxkkp&yCJ>a,,,196,,,:,>:::::;:@#,,=%==*$&*%%%%",
"[[``^`~^QQQRUUUCCCCCbkkkbMVd,bg,9911w,,,,,>>>>::;:>,:----*==&&&&",
"[^^^^`^~QQIQUUAUCCCCMkkdbbyjbdg,t9wt,ww,,,,>>>>:::::;;-;--=*===&",
"IFIIFFFFCCMCkdpykpypw6,6,,,,,,,,>:::;;-----=&&&&&%&@$&$$#$o$#+o+",
"[[[^^[[^`Q^QTRRUCCCCCMCxbbbB,bd,twttyp,,,,,,,,>::;;;;;;-;-;**===",
"`QAUIILICFCCCbbbbkfkppp*bbV,,,,,,,>>>>::::>;;-;;#&:,*&&&&&$#####",
"[S,A~ITFUFFCCnnnffpppky@,VSX>,,,,>,>>>>:;;;;---:@o:,$ $&#$&@%###",
"[U>Q`````_QQEUJIJJJJCCk@,SK%:duuawww,6wy16,,,,,,@+:1$.*:>*->--**",
"[U>R``))QQQQEUEJJCAbCCp@,bVX-gbaypywyw,,,,,,,,>,++>>$.*;:;;---**",
"[J:Q`___EQ!EUJJJKBBVBVa$,BB$>uuaeyee6e661111>>>1++>1@.**>*----**",
"[I>U`!!QQQEEEUJUKBBBMBa$,BM$-uu,ey,p6,6,>>1>1>>>++>1$.*>>*-*****",
"`U:F__QQQQUILJAABBbbMBuX,gbX-gggeee,,6,,1>1>>>>1+o->$ ***---****",
"[n:UQ_QEEUUJUUUCBbbbbBu$,gB$-g,,eee,r,6,>1>>>>>1+o>>$.*>*---****",
"^U>bQ!QEUUCRCUCCbbbbbba$,gb$*,,g6,66,1,,1>>>>>>>++*>$ **-******$",
")F>J!UEUURUCCCCcbbbbbbao,gbo-ug,6e636<,,>>>>>>-1+.>>@ **-*******",
"^J>CUUUUCUCUCMMMbbgbgbuo,uB$-g,,r6,,,,>1>>>>>;:>++>>@ *>*-*****$",
"QC-nUUUALCCCCMMMbgbbagbo,uuo-,,g,e,,6>,>1>>>:>;>+.*>..********$*",
"RB,BKKKBUCBBSBMMbbbMabuo>abo-w66e,,6,,,,1>>>>>>>oo->+.*--*****&&",
"Kb,bbbbBdcgdgayayw,ww,,o>ak*>>>>::=::;*;;****&&*Xo-:%+%$$$@@@+++",
"RKbbbbbukdbdaaaywyww,,,,yay>>>,;:::;;*;*-***&&&&&*-;*%$$$$+@++++",
"KKKKKBKBCSMMSMMMbbaaaBgaapyyy,66,,,,,,,,>>>1>::;:-;;----*****&**",
"Bbbbbbbgggaguuaauyyyw,,,,,,,,>>>>>->----------**&&&&%&$$%$$@$$+@",
"bBbBbbbbMgMgggagaaayyyaww,,w,,,,>>>>>>>>->>-----*****&&&&%%&$$$$",
"bbVbbbgbMgggggagyayyyy,w66,6,>>>>>>->;->>-;;;---**&*&%&%&$%$$$$@",
"bVVbbbbBgggggggayyyyu,w6,w1>>>>>>>>>>;>---;;:--****&&&&&%&%$@$@@"
};
