/* XPM */
static char *a042d28466b04c89f397dc6324bd0423KcRaraw7qcKqPoQR[] = {
/* columns rows colors chars-per-pixel */
"64 64 249 2 ",
"   c #0F0600",
".  c #150900",
"X  c #1B0D03",
"o  c #1D1305",
"O  c #1E1507",
"+  c #260E01",
"@  c #330E03",
"#  c #231304",
"$  c #2D1201",
"%  c #2A1A07",
"&  c #22160B",
"*  c #241A0C",
"=  c #2B1C0C",
"-  c #331401",
";  c #3B1403",
":  c #351A04",
">  c #3A1B05",
",  c #361B0D",
"<  c #3D1E0B",
"1  c #2B1714",
"2  c #261D11",
"3  c #2A1D12",
"4  c #331D14",
"5  c #2B210C",
"6  c #3C2407",
"7  c #3C220B",
"8  c #2C2214",
"9  c #2D2913",
"0  c #2D2319",
"q  c #322414",
"w  c #3B2414",
"e  c #342B15",
"r  c #382A16",
"t  c #32241A",
"y  c #3B251B",
"u  c #352A1C",
"i  c #3B2C1C",
"p  c #36301A",
"a  c #3C321D",
"s  c #3A2722",
"d  c #362C21",
"f  c #3B2D22",
"g  c #3D3224",
"h  c #3F3824",
"j  c #3E352A",
"k  c #471D09",
"l  c #411E11",
"z  c #442502",
"x  c #4D2603",
"c  c #4B2903",
"v  c #44230C",
"b  c #4B240B",
"n  c #46290B",
"m  c #4B2A0D",
"M  c #532607",
"N  c #542B03",
"B  c #5A2D02",
"V  c #552C0C",
"C  c #5A2D0E",
"Z  c #4F300A",
"A  c #553106",
"S  c #5E3103",
"D  c #56320A",
"F  c #5B330C",
"G  c #5C390F",
"H  c #452516",
"J  c #4B2612",
"K  c #4D2A13",
"L  c #442B1B",
"P  c #532C13",
"I  c #5A2E12",
"U  c #45321B",
"Y  c #533313",
"T  c #5C3313",
"R  c #5D3914",
"E  c #53311A",
"W  c #5C3519",
"Q  c #5C3B1B",
"!  c #623502",
"~  c #653904",
"^  c #693C03",
"/  c #63360A",
"(  c #693708",
")  c #65390B",
"_  c #6A3C0D",
"`  c #613512",
"'  c #623B14",
"]  c #6A3D12",
"[  c #633C1B",
"{  c #653C1B",
"}  c #422E23",
"|  c #4B2E23",
" . c #512F24",
".. c #423424",
"X. c #4C3324",
"o. c #443924",
"O. c #4A3C26",
"+. c #43352B",
"@. c #49352B",
"#. c #443A2C",
"$. c #4A3D2C",
"%. c #513627",
"&. c #543A24",
"*. c #5C3C24",
"=. c #533C2B",
"-. c #5C3C2C",
";. c #463C31",
":. c #4B3E33",
">. c #4B3935",
",. c #523D34",
"<. c #5F3E30",
"1. c #643D26",
"2. c #633F30",
"3. c #5D401F",
"4. c #6D4109",
"5. c #71430C",
"6. c #684115",
"7. c #65421B",
"8. c #69441B",
"9. c #734413",
"0. c #74491A",
"q. c #794D1B",
"w. c #7D5017",
"e. c #4D412C",
"r. c #49452D",
"t. c #51432D",
"y. c #57472C",
"u. c #5C442B",
"i. c #474131",
"p. c #4D4234",
"a. c #4D4439",
"s. c #524534",
"d. c #5B4434",
"f. c #554A34",
"g. c #5A4C35",
"h. c #53453A",
"j. c #5B453B",
"k. c #544A3B",
"l. c #5B4C3C",
"z. c #5A5136",
"x. c #57513B",
"c. c #5C523C",
"v. c #654423",
"b. c #6B4523",
"n. c #6B4924",
"m. c #64432B",
"M. c #6A442A",
"N. c #6C492D",
"B. c #724C25",
"V. c #734C2A",
"C. c #7B5224",
"Z. c #75512B",
"A. c #7B542C",
"S. c #694534",
"D. c #624B35",
"F. c #684835",
"G. c #624D3B",
"H. c #714F32",
"J. c #62533D",
"K. c #6C543B",
"L. c #68583B",
"P. c #7B5433",
"I. c #775A3C",
"U. c #5B4643",
"Y. c #544C41",
"T. c #5B4D41",
"R. c #5D5343",
"E. c #5E5646",
"W. c #635543",
"Q. c #6B5643",
"!. c #655944",
"~. c #6B5C44",
"^. c #635549",
"/. c #69534A",
"(. c #695749",
"). c #655B4B",
"_. c #6B5D4B",
"`. c #725C44",
"'. c #725D4B",
"]. c #795E4D",
"[. c #695A52",
"{. c #6C5D51",
"}. c #6D6146",
"|. c #66604A",
" X c #6D624B",
".X c #736244",
"XX c #796447",
"oX c #72634C",
"OX c #74694E",
"+X c #7A6B4D",
"@X c #6D6252",
"#X c #6F6953",
"$X c #736553",
"%X c #7A6553",
"&X c #756A54",
"*X c #7A6C54",
"=X c #74665A",
"-X c #756B5B",
";X c #7B6C5C",
":X c #797158",
">X c #7D725C",
",X c #776F62",
"<X c #7C6E61",
"1X c #7D7263",
"2X c #7C7564",
"3X c #825729",
"4X c #815936",
"5X c #81623A",
"6X c #85674C",
"7X c #836D53",
"8X c #846A59",
"9X c #81745C",
"0X c #88775A",
"qX c #947859",
"wX c #827463",
"eX c #897667",
"rX c #847A64",
"tX c #8A7A65",
"yX c #857B6A",
"uX c #8A7D6B",
"iX c #947B68",
"pX c #8A7F71",
"aX c #8B8268",
"sX c #8C826C",
"dX c #93856C",
"fX c #8D8373",
"gX c #8E8678",
"hX c #928574",
"jX c #968677",
"kX c #938A75",
"lX c #958B7B",
"zX c #9A8D7D",
"xX c #9B927D",
"cX c #9A947C",
"vX c #A48D78",
"bX c #978D80",
"nX c #9B8F82",
"mX c #9D9383",
"MX c #9F9981",
"NX c #A29987",
"BX c #A79987",
"VX c #A4968A",
"CX c #A59B8B",
"ZX c #A79C91",
"AX c #A9A38C",
"SX c #ADA294",
"DX c #B6AE97",
"FX c #B5A998",
"GX c #BCB2A3",
/* pixels */
"@.q G.@.H X.X.,.y q y @.f i y q +.#.#.} i f } @.@.y 3 t } +.s y i } i ..t = ,.=.} y ..| 4 D.2. .| X.,.y y q y @.} } 4 # h.@.} @.",
"M.M.M.M.M.M.M.m.M.M.M.M.m.m.m.m.*.E 1.-.1.2.2.S.2.S.F.S.S.S.S.S.S.S.m.M.N.N.N.M.N.n.M.N.N.M.1.2.M.m.m.S.S.-.-.-.-.-.<.<.2.-.*.2.",
"C ` ` ` / ` C I C ` I I V M M C C C I P P b b k k k k k k b b m V I ` ` T F C V V V V C I C M C I V V P V m K P P K J P P V b k ",
"B C ` ` I C V M V M ` T T [ W I I Y N A C F ` ` { { ` { ` F N c x x D I C C I Y C C C C ` I I I I I F F D C T ` W C T T T T F R ",
"] b.{ b.1.{ [ T T T T Y W 1.W P m W 7.6.' G F F B B x N F ) 6.' 8.B.v.b.m.M.1.W W Y T W [ [ { 1.1.{ F G F S F G R F F F F D A A ",
"N M I Y P V b b J K P K K E P m Y *.Z Z D G R ' 6.{ ' ' G A c z z z m E Y Y m b v b b v k J P E E T D D A A N D F R R 7.7.8.8.6.",
"[ 1.m.m.*.Q *.*.m.m.*.*.m.D.u.&.Q *.v.u.v.v.b.7.b.8.n.7.R Y D Y Q 3.m.m.m.u.*.u.m.S.m.m.1.m.m.2.1.M.[ 7.3.R R Q v.v.W Q [ Q 7.b.",
"v J > > 7 < > > : : - - : : : - $ : # $ $ $ @ @ ; ; ; ; - - - < 7 e 7 < : - : : : : : - - ; > > > < > < > : $ - - $ @ : > - $ - ",
"| | S.K.Q.`.Q.D.=.X.L H 7 $ : i =.j.j.j.,. .| l @ k k , l H | @.} y = - , U d.G.G.S.=.X.&.-.F.K.`.].=.%.| | } y 4 , + y >.<.U.<.",
"@.].;XQ.=.X.K.g.g.-.%...X = # r W.W.@.U.s 4  .@ l @ @ ; , H U.@.>.} = 4 + } '.G.=.D.o.7 (.8X'.&.%.G.,.T.@.@.,.s 4 1 1 t /./.>.>.",
"{.$X'._.G.J.oXG.d.O.U o.= = . % $.@.3 3 ,.].8X .l k l J  ., j.U.>.s 4 =   , T.,.y = %.].;X].K.G.-.'.W.T.>.>.;.t 1 X X & U.+.1 1 ",
"oXW.'.$XJ.(.(.^.)._.q :.@.i . q =XfX{.+./.(./.k J J k J J @ G.Q.h.+.j.+.X y eXpX$Xj.{.wX(.%X$XoX(.%X!.R.).k.g g ;.a.  1 ,XyX@Xo.",
" XrX&XwX X;X$X XW.).T.-X-X{.u g [.,X!.f.tX*X+XY M k C M Y : +X$XW.-X1X).f @.<XwX_.:.jX;X;XeXeX'.9X).OX X!.r.c.>X).R.u o.).&X!.r.",
"y.&X>XwX).@X{.@X).[.2X@Xp.p.u p.#X2X).|.0X6X7XR 1.C ] k R : XX~.!.yX:.k.>.a.[.=X;X=X<X8XuXuX9X_.eX X!.}.!.g.>XrXr.r.a s.R.-X}.c.",
"c. X@X).o.@.$.p.p.k.-XR.i.k.j i.a.Y.x.W.*X7XqXQ ' C F V [ $ D.t.f.).+.:.j >.E.T.T.h.-X;X(.&X(.e.r t.t.g.g.).-Xk.e l.u s.s.c.r.f.",
">.,.yX>X@X X-X).k.#.|.k.p.i.0 j k.).a.g c.K.H.m.b.{ ' { n.: g.=.E.a.Y.a.f ;.E.^.l.@.{.W.j.;XtX;XW.tXW.p...U._.j.>.h.t >.j.k.j.$.",
";.^.[.E.Y.k.#XR.R.a.Y.a.a.i.9 j i.j E.p E.e.n M.B.F ` ' M.< W.,.).p.Y.j 0 j ;.p.k.a.k.g _.).W.c.T.c._.T.l.^.h.>.^.} 3 } ,.>.^.f ",
"d f d u 2 8 d d 8 8 O O 8 O X O 9 * * o p * > Q C.! _ S Z.v , 4 d O O 2 . * 0 * 0 O O 8 g 0 t O 8 i @.& * @.3 X 3 2 . o d * q X ",
"=XbX|.d gXZXgX,XgXpX,X,XfXlXlXcXMXmXsXsXdXiXdX4XC.^ 4.~ B.v iXiXrXrXmXgXgXlXmXbXfX2XlXbXkXE.g kXSXlX-XfXfX2X XwXmXfXlXzXCXzXfX1X",
"2XFXR.8 SXGX2X2XZXMXkXfXMXbXgX2XgXlXkXcXiXjXvXB.q.4.^ N V.*.nXvXxXkXlXsXMXkXlXlXlXMXyXgXMXk.* NXGX1XsXNXAXmXfXhXnXhXxXhXyXzXzXzX",
":XdXp.u 2XmX:XyX Xf.>X X X).:X$X#X!.r.E.W.(.6Xb.q.^ w.N V.k 8XW. X$X).).wX X Xz.k.E.c.c.cXk.p sXNX X>X}.f.).9X&X!.l.0X>X}. Xc.J.",
"oXc.e U -XkX&X).!.~.).}.}.z.!.J.z.r.x.f.(.D.2.V.3X^ 5.5.V.; eXd.o.!.}.c.l.z.).g.W.f.!.r.L.e a >XrX}.>X9Xz.t.z.J.~.OXz.z.J.f.y.f.",
"&X:Xl.r l.J.W.!.9Xe.O.g.f.O.t.J.OX&XaXc.[.S.*.1.C.4.! _ 4XJ 8Xs.r.c.r.f.O.z.}.~.>X&Xg.~.>Xd.q Q.~.OXl.`.g.t.y.=.t.O.d.c.}.OX9X9X",
"~.J.l.O.tX Xt.s.~.i rX9Xg.z.L.9XOXOX$X)._.Q.I.B.q.! 4./ P.v -.,.oX&Xf.~.).rX%X;XoX$X~.J.l.y.t.wX_.a g.g.O.L.tXtX.XO.'.*X;X8X~.~.",
").g.$.} <X;X,.l._.jXQ.wX%XwXW.W.f.&Xc.#Xf.%.F.b.3X^ S _ V.v 8XeX&X&XeX&XW.W.f.$XT.$Xd.t.W.o.$._.eXf.d.;XyX8X'._.wXwXW.W.,.$XQ.%X",
"l.s.f } <X^.,.l.;X{.^.(.;X=XuXl.f.!.x.c.W.i K b.9.^ ^ S H.K ]./.c.&X(.<XzXj.d.{.T.W.l.@.l.} i =X=X@.j.;X_.W.(.;X'.;XeX^.j.d._.W.",
"l.>.@.0 =XU.h.<XT.U.T._.).^.@X{.k.E.x.r.@.L `.n.q.N ~ ) P.v G.(.c.W.<XW.h.=X>.l.Y.h.@.f f >.3 @Xl.h.=X^./.(.l./.{.W.W.].j.{.j.h.",
"T.p.>.4 ^.;.+.-Xh.^.T.^.U.$.:.W.$.r.p a _.<.H.n.9.w.4.4.P.k %.W.c.c.:.:.j.j.[.+.;.y ^.l.T.} i U.j.,.=X>.,.^.T.j.W.>.U.T.h.y } t ",
":.$.u 0 j j :.[.>.h.k.>.^.p.W.).k.p.9 !.r.f.K [ q.S 5.~ P.K %.d.e.r.).k.Y.R.Y.+.2 {.T.>.h.9 f u f +.{.h.s.:.R.h.l.h.R.$.^.f i $X",
"= O 8 8 & 2 0 p.g #.9 9 f.h u p u 9 O p i 7 k P.9.~ 5.~ P.H X...q * g p #.g * d 0 9 9 3 o t 0 9 O u :.o.g 8 i r @.g q f.q i q 3 ",
"aX2X X@X1X@XE.-X).yX2XgXrX X9 x.&X#XaXcXfX8X6XT A.^ ~ ~ 4XJ '.eXkXkXlXE.e p.yX_.sXcXkXkXyX@X#X#X|.c.;X$XaXsX>XyXhX X9 U tXoXrXlX",
"fXlX:XsXCXCXcXyX>X>XaXkX#XE.5 c.MXMXAXkXlXeXiXB.0.^ 4.) 4X6 %X8XsXdX#X:X5 c.mXAXlXcX2XsXlX#XlXcXGXNX:X&XrXsXaXdXaXc.e J.cXAXkXSX",
"+X.XaXaX#X>XdXoXsXc.}. Xz.z.p U aXaX>X>X}.7XqX8.q.^ ^ B P.K iX_.!. Xc.o.a p.aXaX>X:X:X}.OXaXaX+X:X>X>XaXJ.c.}.&Xf.r.r f.aX9X>X*X",
"L.aXaX+X}.L.7X*X*X*Xc.f.r.a 5 !.:XaX|.>X+XXX5XA.w.5._ ~ A.c 6X7X&Xr.o.o.5 }.:XOXoXtXoX}.0XaX:XL.+X0X+X+X+X~.g.s.p.o.r c.&XsXL.0X",
"y.aXaXXX.X.X+X~.J.z.J.r y.f.U r.&X:Xc.OX}.I.5XC.w._ 9._ 3Xz K.K._.k.p.s...t. XrXz.&XOX`.0X0X7XL.+X+X}.D.~.*X(.r.o.#.u k. X0Xz.XX",
"L.7X+X.XL.}.oX`.!.oX!.#.f.&X5 f.}.>Xz.}.L.I.I.C.w.9._ ! B.z K.~.!.p.f.&X5 r.&X&X~.J._.~.9X7X*XL..X}.*XL.W.Q.f.+.W.yXe s. X7Xz.}.",
"L..X+X+XL.OXoXOX~._.W.s._.c.q #.#X:XE.|.L.XX5XC.q.5.9.! B.c .XOX|.i.).k.u r.$X-Xl.@X}.}.>X*X*X.XXX.XL.~.$X$XW.j.k.h.u a._.>X!.~.",
"}.}.L.L.z._._.$XR.W.+.k.^.:.g p.c.!.E.|.}.XXP.C.0._ ( / Z.z D.g.Y.a.).+.u f.W.(.R. X!.).}.J.).z.L.!.&X_.l.,.p.E.^.a.d a.E.$X!.!.",
"|.x.!.c.f.f.k.k.p.p.g h.;.p.u h.h E.x.x.J.D.n.8.0._ B B 7.z g.g.a.#.k.a.9 h.h.p.@Xs.@X).~.l.W.f.z.c.s.e.s.p.#.;.;.;.d :.k.l.f.c.",
"c.x.p h o.$.R.).@X-Xs.+.p.d d j i.Y.i.x.r.t.Y [ C._ / B v.Y I.OXx.i.a.d +.g ;.Y.p.a.p.$.o.g p.o.#.f.@X@X&X@Xh.+.;.a.t #.a.:.p.k.",
"r.9 k.E.$X@X-XR.a.i.a.+.#.;.2 ;.a.a.a.a.i.U n 6.A.] / / b.n y.s.i.j j j 3 j Y.;.h.a.a.#.j p.@X|.@X2XR.k.p.p.#.;.;.d 3 ;.a.;.a.k.",
"* i.k.j 0 g p.j u u o * 1 * 2 f ;.j 0 2 5 5 : R 3X] S ] 7.n 7 r 8 8 2 8 o j j ;.1 0 O 8 f Y.j t o.+.o.e g 2 2 * * 1 & t >.;.2 g ",
"@X).p.u d g $.a.p.T.p.$.d 8 8 t u d d 8 f.}.N.7.0.) B ] Z.z d.z.;.d d d 1 t h.0 f 2 k.E.@XE.0 9 j p.$.a.k.p.p.+.3 f f 1 >.0 0 8 ",
"mXyXp.$.2XlXlXAXxXlX).W.uXlX=X,XmXnXZXgXDXvXqXn./ B / / Z.m dXcXyX,XpXyXwX{.bXjXSXbXFXmXwXs.d 1XlXmXCXcXlXfX^.rXpXyX=X;XnXbXGXpX",
"@X=Xs.f 1X#XW.-X-X$Xz.fXjXpXjX=X{.mXpX2XFX0XI.B.0._ M B A.n `.L.R.2XnXnXVX$X;XVX1X-XFXfX_.g u yX#XR.:X@X}.R.t.rXBXhXCX$XwXBX;X1X",
"h.R.>.u ,X).e.l.g.e._.&XW.W.eX;X=XbX[.^.hXK.b.8.( M ] _ B.z K.J.i.#Xf.(.;X$X_.zX_.(.yX_.^.s.o.yXk.p.r.}.g.o.%X$Xl.G.tXW.(.lXR. X",
"j.p.#.8 W.o.u O.J.g.kXz.D.~.l.Q.=XT.E.^.eX`.P.V.] _ B _ 3Xn u.g.k.@Xl.~.J.'.=XQ.!.J.>Xz.e.a # c.g h e.g.e.y.aX'.D.~.K.%X~.J.$XW.",
",.:.l.$.2X&X$X~.+XL.+X'.~.`.'.Q.T.W._.^.'.K.N.6.( S _ ] C.c XX`. Xk.}.$XD.G.~.y.Q.J.%XW.f.l.$.tX XoX0XOX~.OXXXD.~.`.d.D.'.J.W.l.",
"@.^.$.h E.z.!.c.>X}.!.L.~.'.L.l.T.W.k.^.W.K.n.b.9.B _ ! A.m 7XK.-X).Q.oXW.g.G.~.g.f._.W.f.f.e  Xc.c.z.>X}.}.~.~.L.oXL.W.G.y.z.l.",
"W.k.h e x.E.|.c.|.|.f.).).W.).R.#.).E.Y.*XX.Y A.] ) ] B A.n `.oXE.E.^.W.W.=.t.W._.c.g.c.f.h p z. Xc.z. X!.!.g.f.OXJ.l.g.f.!.W.J.",
"k.g 9 9 |.#Xx.R.r.E.h s.).{.l.k.i.E.E.R.~.u.Q B.( S q.] P.> y.R.a.:.{._.(.h.l.W.l.R.R.f.o.p u x.|.).r.k.R.f.$.k.).).$Xr.r.R.W.c.",
"+.p.h * h a.j |.r.R.R.;.k.R.l.>.;.E.Y.a...&.Q n.] _ / ] Z.v u.W.Y.Y.>.T.T.O.:.R.#.e.s.p.o.h 5 #.r.o.@Xf.l.k.p.h.$.l.k.+.l.s.:.p.",
"g f.t 5 #.k.g a.d #.>.,.Y.} ;.U.>.+.d h p y.3.B.C B ] ] b.> n $.d Y.Y.;.>.h.:.$.u >.g $.$.h * h p.i.;.u +.:.a.h.:.p.>.>.T.;.g #.",
"u 9 3 # * j g d j y 0 +.T.h.U.>.+.h.;.#.U U n Z.B _ / ) 7.m U i 0 j Y.;.>.h.d >.s.g g d d 9 . 8 g g d ;.d t 3 ;.T.h.Y.>.d @.>.+.",
"+.s.p.f * i d y #.0 s s t 3 . t f U.E.c.e.6 z 6.k _ ] ` Q 6 U q 2 8 t 0 o j y T.{.$.k.g g +.g 9 u 0 @.d & 3 s 1 d & . +.j Y.E.Y.",
"xXkXhXNXNXSX-X_.$X<XpXnXyX,.X pXZXgXlXcXtX0X6XZ.N B ` / T > K.wXbXmX<Xh.. 1XmXpXzXCXuX1XkXxXCXMXcX2X-X@X<XZXZXlX,XT.X ,XVXnXbXnX",
"OX>X>XrXuXzXW.>X<XBXuXwXeXyX# [.lXhXyXuX!.XX6XQ N F B T 1.n eXlXbX,XyX1XX _.cXhXsX2X!.oXfX#XaXaXlX!.{.yXVXuX-XfXpX<X= ).mXfXyXyX",
"~.oXOX$X_.$X}.;X&X%X*X-X-XQ.s._.fX&X|.:XJ.L.K.b.M ' T T Y m 7XoX#X,X&X!.f.E.sX-X!.:XJ.!.:X}.|.OX X@X>X1X@X-X-X>X<XT.k.!.uX@X=X-X",
"L.}.~.~.L.oX&XtX$XL. XoX_.f...~.sX Xp.c.r.D.I.H.c m Y T m v %X_.).,X).r.o.>X9X:Xy.c.f.p.J.}.L.}.L.$X>X:X!.).@X$X@Xs...;X:X;Xs.R.",
"z.L.L.~.g.J.L.>XOXW.W.).J.O.p W.2Xc.a !._.'.I.m.V W V P K 7 ].^.E.).|.g o.c.9Xf.r.t.}.L.c.OXz.c.z.}.9X$XR.c.J.).!.r.e ).rXf.s.r.",
"y.z.z.L.g.J.!.>X Xx.f.E.z.r...f.@Xk.g a.d.d.D.2.b b b P J L _.W.k.x.E.Y.e r. Xp.5 z.c.z.z.!.J.l.f.J.:X Xc.k.f.c.J.p.i t.@Xr.5 d.",
"f.f.c.x.....r.~.E.f.k.Y.k.a.g g a.i.g i.s.$.-.E v J b J J L W.G.Y.Y.i.R.p p E.p.q c.e.p.f.d.l.$.e.U ).R.R.l.k.z.x.f.e i l.p.h c.",
"k.T.a.f.#.+.t $.p.k.Y.Y.i.;.u 8 j Y.p.R._.W.,.v J E J J l w ,.h.a.R.i.j g 2 r.$.R.Y.R.T.c.p.k.o.:...r.$.h.k.s.k.p.#.u 0 #.:.W.k.",
"k.p.g k.E.{.a.>.j j j a.j d 0 8 j i.Y.p.s.=.<.H k l J H l 4 } +.j a.j j 2 d 0 Y.h.h.k.a.@.s.j.,.T.R.#.d #.+.#.:.+.g u u t Y.f p."
};
